<svg xmlns="http://www.w3.org/2000/svg" xmlns:xlink="http://www.w3.org/1999/xlink" contentStyleType="text/css" data-diagram-type="ACTIVITY" height="1249px" preserveAspectRatio="none" style="width:1438px;height:1249px;background:#FFFFFF;" version="1.1" viewBox="0 0 1438 1249" width="1438px" zoomAndPan="magnify"><?plantuml 1.2026.3?><defs/><g><g class="title" data-source-line="1"><text fill="#000000" font-family="sans-serif" font-size="14" font-weight="700" lengthAdjust="spacing" textLength="355.2637" x="540.5195" y="33.5352">TradingAgents &#8212; Dataflow Vendor Routing Logic</text></g><rect fill="none" height="21.1992" style="stroke:none;stroke-width:1;" width="1391.3027" x="20" y="54.7852"/><ellipse cx="121.251" cy="90.9844" fill="#222222" rx="10" ry="10" style="stroke:#222222;stroke-width:1;"/><rect fill="#F0F8FF" height="48.2656" rx="12.5" ry="12.5" style="stroke:#181818;stroke-width:0.5;" width="144.248" x="49.127" y="120.9844"/><text fill="#000000" font-family="sans-serif" font-size="12" lengthAdjust="spacing" textLength="101.7598" x="59.127" y="142.5859">Agent needs data</text><text fill="#000000" font-family="sans-serif" font-size="12" lengthAdjust="spacing" textLength="124.248" x="59.127" y="156.7188">(e.g., get_stock_data)</text><rect fill="#F0F8FF" height="48.2656" rx="12.5" ry="12.5" style="stroke:#181818;stroke-width:0.5;" width="169.2266" x="36.6377" y="189.25"/><text fill="#000000" font-family="sans-serif" font-size="12" lengthAdjust="spacing" textLength="100.3887" x="46.6377" y="210.8516">Call tool function</text><text fill="#000000" font-family="sans-serif" font-size="12" lengthAdjust="spacing" textLength="149.2266" x="46.6377" y="224.9844">(via LangChain ToolNode)</text><rect fill="#F0F8FF" height="48.2656" rx="12.5" ry="12.5" style="stroke:#181818;stroke-width:0.5;" width="144.1367" x="49.1826" y="1084.5078"/><text fill="#000000" font-family="sans-serif" font-size="12" lengthAdjust="spacing" textLength="124.1367" x="59.1826" y="1106.1094">Append tool result to</text><text fill="#000000" font-family="sans-serif" font-size="12" lengthAdjust="spacing" textLength="122.0801" x="59.1826" y="1120.2422">LangChain messages</text><rect fill="#F0F8FF" height="34.1328" rx="12.5" ry="12.5" style="stroke:#181818;stroke-width:0.5;" width="190.502" x="26" y="1152.7734"/><text fill="#000000" font-family="sans-serif" font-size="12" lengthAdjust="spacing" textLength="170.502" x="36" y="1174.375">Continue LLM reasoning loop</text><ellipse cx="121.251" cy="1217.9063" fill="none" rx="11" ry="11" style="stroke:#222222;stroke-width:1;"/><ellipse cx="121.251" cy="1217.9063" fill="#222222" rx="6" ry="6" style="stroke:#222222;stroke-width:1;"/><line style="stroke:#000000;stroke-width:1.5;" x1="20" x2="20" y1="54.7852" y2="1228.9063"/><rect fill="#F0F8FF" height="34.1328" rx="12.5" ry="12.5" style="stroke:#181818;stroke-width:0.5;" width="127.9297" x="418.4468" y="257.5156"/><text fill="#000000" font-family="sans-serif" font-size="12" lengthAdjust="spacing" textLength="107.9297" x="428.4468" y="279.1172">Receive tool_name</text><rect fill="#F0F8FF" height="34.1328" rx="12.5" ry="12.5" style="stroke:#181818;stroke-width:0.5;" width="187.7949" x="388.5142" y="311.6484"/><text fill="#000000" font-family="sans-serif" font-size="12" lengthAdjust="spacing" textLength="167.7949" x="398.5142" y="333.25">Read current DataflowConfig</text><polygon fill="#F0F8FF" points="404.6731,365.7813,560.1501,365.7813,572.1501,377.7813,560.1501,389.7813,404.6731,389.7813,392.6731,377.7813,404.6731,365.7813" style="stroke:#181818;stroke-width:0.5;"/><text fill="#000000" font-family="sans-serif" font-size="11" lengthAdjust="spacing" textLength="155.4771" x="404.6731" y="381.9385">tool_vendors[tool_name] set?</text><text fill="#000000" font-family="sans-serif" font-size="11" lengthAdjust="spacing" textLength="17.4829" x="375.1902" y="375.4609">yes</text><text fill="#000000" font-family="sans-serif" font-size="11" lengthAdjust="spacing" textLength="13.5835" x="572.1501" y="375.4609">no</text><rect fill="#F0F8FF" height="48.2656" rx="12.5" ry="12.5" style="stroke:#181818;stroke-width:0.5;" width="196.6426" x="226.502" y="399.7813"/><text fill="#000000" font-family="sans-serif" font-size="12" lengthAdjust="spacing" textLength="176.6426" x="236.502" y="421.3828">Use tool-level vendor override</text><text fill="#000000" font-family="sans-serif" font-size="12" lengthAdjust="spacing" textLength="129.416" x="236.502" y="435.5156">(e.g., "alpha_vantage")</text><rect fill="#F0F8FF" height="62.3984" rx="12.5" ry="12.5" style="stroke:#181818;stroke-width:0.5;" width="255.418" x="512.291" y="399.7813"/><text fill="#000000" font-family="sans-serif" font-size="12" lengthAdjust="spacing" textLength="140.8359" x="522.291" y="421.3828">Determine tool category</text><text fill="#000000" font-family="sans-serif" font-size="12" lengthAdjust="spacing" textLength="235.418" x="522.291" y="435.5156">(core_stock_apis / technical_indicators /</text><text fill="#000000" font-family="sans-serif" font-size="12" lengthAdjust="spacing" textLength="183.2813" x="522.291" y="449.6484">fundamental_data / news_data)</text><polygon fill="#F0F8FF" points="565.9675,482.1797,714.0325,482.1797,726.0325,494.1797,714.0325,506.1797,565.9675,506.1797,553.9675,494.1797,565.9675,482.1797" style="stroke:#181818;stroke-width:0.5;"/><text fill="#000000" font-family="sans-serif" font-size="11" lengthAdjust="spacing" textLength="148.0649" x="565.9675" y="498.3369">data_vendors[category] set?</text><text fill="#000000" font-family="sans-serif" font-size="11" lengthAdjust="spacing" textLength="17.4829" x="536.4846" y="491.8594">yes</text><text fill="#000000" font-family="sans-serif" font-size="11" lengthAdjust="spacing" textLength="13.5835" x="726.0325" y="491.8594">no</text><rect fill="#F0F8FF" height="48.2656" rx="12.5" ry="12.5" style="stroke:#181818;stroke-width:0.5;" width="172.332" x="453.1445" y="516.1797"/><text fill="#000000" font-family="sans-serif" font-size="12" lengthAdjust="spacing" textLength="152.332" x="463.1445" y="537.7813">Use category-level vendor</text><text fill="#000000" font-family="sans-serif" font-size="12" lengthAdjust="spacing" textLength="94.6289" x="463.1445" y="551.9141">(e.g., "yfinance")</text><rect fill="#F0F8FF" height="34.1328" rx="12.5" ry="12.5" style="stroke:#181818;stroke-width:0.5;" width="190.4258" x="645.4766" y="516.1797"/><text fill="#000000" font-family="sans-serif" font-size="12" lengthAdjust="spacing" textLength="170.4258" x="655.4766" y="537.7813">Use global default: "yfinance"</text><polygon fill="#F0F8FF" points="640,570.4453,652,582.4453,640,594.4453,628,582.4453,640,570.4453" style="stroke:#181818;stroke-width:0.5;"/><polygon fill="#F0F8FF" points="482.4116,600.4453,494.4116,612.4453,482.4116,624.4453,470.4116,612.4453,482.4116,600.4453" style="stroke:#181818;stroke-width:0.5;"/><polygon fill="#F0F8FF" points="424.6831,644.4453,540.1401,644.4453,552.1401,656.4453,540.1401,668.4453,424.6831,668.4453,412.6831,656.4453,424.6831,644.4453" style="stroke:#181818;stroke-width:0.5;"/><text fill="#000000" font-family="sans-serif" font-size="11" lengthAdjust="spacing" textLength="115.457" x="424.6831" y="660.6025">Vendor == "yfinance"</text><text fill="#000000" font-family="sans-serif" font-size="11" lengthAdjust="spacing" textLength="17.4829" x="395.2002" y="654.125">yes</text><text fill="#000000" font-family="sans-serif" font-size="11" lengthAdjust="spacing" textLength="116.1123" x="552.1401" y="654.125">no &#8212; "alpha_vantage"</text><polygon fill="#F0F8FF" points="482.4116,972.2422,494.4116,984.2422,482.4116,996.2422,470.4116,984.2422,482.4116,972.2422" style="stroke:#181818;stroke-width:0.5;"/><rect fill="#F0F8FF" height="48.2656" rx="12.5" ry="12.5" style="stroke:#181818;stroke-width:0.5;" width="157.8125" x="403.5054" y="1016.2422"/><text fill="#000000" font-family="sans-serif" font-size="12" lengthAdjust="spacing" textLength="137.8125" x="413.5054" y="1037.8438">Return formatted string</text><text fill="#000000" font-family="sans-serif" font-size="12" lengthAdjust="spacing" textLength="71.9297" x="413.5054" y="1051.9766">to ToolNode</text><line style="stroke:#000000;stroke-width:1.5;" x1="220.502" x2="220.502" y1="54.7852" y2="1228.9063"/><rect fill="#F0F8FF" height="34.1328" rx="12.5" ry="12.5" style="stroke:#181818;stroke-width:0.5;" width="135.1719" x="868.543" y="688.4453"/><text fill="#000000" font-family="sans-serif" font-size="12" lengthAdjust="spacing" textLength="115.1719" x="878.543" y="710.0469">Call yfinance library</text><rect fill="#F0F8FF" height="48.2656" rx="12.5" ry="12.5" style="stroke:#181818;stroke-width:0.5;" width="177.2598" x="847.499" y="756.7109"/><text fill="#000000" font-family="sans-serif" font-size="12" lengthAdjust="spacing" textLength="157.2598" x="857.499" y="778.3125">Fetch OHLCV / indicators /</text><text fill="#000000" font-family="sans-serif" font-size="12" lengthAdjust="spacing" textLength="122.9063" x="857.499" y="792.4453">fundamentals / news</text><rect fill="#F0F8FF" height="34.1328" rx="12.5" ry="12.5" style="stroke:#181818;stroke-width:0.5;" width="180.4531" x="845.9023" y="839.9766"/><text fill="#000000" font-family="sans-serif" font-size="12" lengthAdjust="spacing" textLength="160.4531" x="855.9023" y="861.5781">Format as markdown string</text><line style="stroke:#000000;stroke-width:1.5;" x1="839.9023" x2="839.9023" y1="54.7852" y2="1228.9063"/><rect fill="#F0F8FF" height="48.2656" rx="12.5" ry="12.5" style="stroke:#181818;stroke-width:0.5;" width="204.875" x="1123.2651" y="688.4453"/><text fill="#000000" font-family="sans-serif" font-size="12" lengthAdjust="spacing" textLength="184.875" x="1133.2651" y="710.0469">Read ALPHA_VANTAGE_API_KEY</text><text fill="#000000" font-family="sans-serif" font-size="12" lengthAdjust="spacing" textLength="105.0586" x="1133.2651" y="724.1797">from environment</text><polygon fill="#F0F8FF" points="1182.2156,770.8438,1269.1897,770.8438,1281.1897,782.8438,1269.1897,794.8438,1182.2156,794.8438,1170.2156,782.8438,1182.2156,770.8438" style="stroke:#181818;stroke-width:0.5;"/><text fill="#000000" font-family="sans-serif" font-size="11" lengthAdjust="spacing" textLength="86.9741" x="1182.2156" y="787.001">API key present?</text><text fill="#000000" font-family="sans-serif" font-size="11" lengthAdjust="spacing" textLength="17.4829" x="1152.7327" y="780.5234">yes</text><text fill="#000000" font-family="sans-serif" font-size="11" lengthAdjust="spacing" textLength="13.5835" x="1281.1897" y="780.5234">no</text><rect fill="#F0F8FF" height="34.1328" rx="12.5" ry="12.5" style="stroke:#181818;stroke-width:0.5;" width="184.1445" x="1036.3555" y="804.8438"/><text fill="#000000" font-family="sans-serif" font-size="12" lengthAdjust="spacing" textLength="164.1445" x="1046.3555" y="826.4453">Call Alpha Vantage REST API</text><rect fill="#F0F8FF" height="34.1328" rx="12.5" ry="12.5" style="stroke:#181818;stroke-width:0.5;" width="142.2148" x="1057.3203" y="873.9766"/><text fill="#000000" font-family="sans-serif" font-size="12" lengthAdjust="spacing" textLength="122.2148" x="1067.3203" y="895.5781">Fetch requested data</text><rect fill="#F0F8FF" height="34.1328" rx="12.5" ry="12.5" style="stroke:#181818;stroke-width:0.5;" width="180.4531" x="1038.2012" y="928.1094"/><text fill="#000000" font-family="sans-serif" font-size="12" lengthAdjust="spacing" textLength="160.4531" x="1048.2012" y="949.7109">Format as markdown string</text><rect fill="#F0F8FF" height="34.1328" rx="12.5" ry="12.5" style="stroke:#181818;stroke-width:0.5;" width="164.9551" x="1240.5" y="804.8438"/><text fill="#000000" font-family="sans-serif" font-size="12" lengthAdjust="spacing" textLength="144.9551" x="1250.5" y="826.4453">Raise configuration error</text><ellipse cx="1322.9775" cy="884.9766" fill="none" rx="11" ry="11" style="stroke:#222222;stroke-width:1;"/><ellipse cx="1322.9775" cy="884.9766" fill="#222222" rx="6" ry="6" style="stroke:#222222;stroke-width:1;"/><line style="stroke:#000000;stroke-width:1.5;" x1="1030.3555" x2="1030.3555" y1="54.7852" y2="1228.9063"/><line style="stroke:#000000;stroke-width:1.5;" x1="1409.4551" x2="1409.4551" y1="54.7852" y2="1228.9063"/><line style="stroke:#181818;stroke-width:1;" x1="121.251" x2="121.251" y1="100.9844" y2="120.9844"/><polygon fill="#181818" points="117.251,110.9844,121.251,120.9844,125.251,110.9844,121.251,114.9844" style="stroke:#181818;stroke-width:1;"/><line style="stroke:#181818;stroke-width:1;" x1="121.251" x2="121.251" y1="169.25" y2="189.25"/><polygon fill="#181818" points="117.251,179.25,121.251,189.25,125.251,179.25,121.251,183.25" style="stroke:#181818;stroke-width:1;"/><line style="stroke:#181818;stroke-width:1;" x1="121.251" x2="121.251" y1="1132.7734" y2="1152.7734"/><polygon fill="#181818" points="117.251,1142.7734,121.251,1152.7734,125.251,1142.7734,121.251,1146.7734" style="stroke:#181818;stroke-width:1;"/><line style="stroke:#181818;stroke-width:1;" x1="121.251" x2="121.251" y1="1186.9063" y2="1206.9063"/><polygon fill="#181818" points="117.251,1196.9063,121.251,1206.9063,125.251,1196.9063,121.251,1200.9063" style="stroke:#181818;stroke-width:1;"/><line style="stroke:#181818;stroke-width:1;" x1="482.4116" x2="482.4116" y1="291.6484" y2="311.6484"/><polygon fill="#181818" points="478.4116,301.6484,482.4116,311.6484,486.4116,301.6484,482.4116,305.6484" style="stroke:#181818;stroke-width:1;"/><line style="stroke:#181818;stroke-width:1;" x1="553.9675" x2="539.3105" y1="494.1797" y2="494.1797"/><line style="stroke:#181818;stroke-width:1;" x1="539.3105" x2="539.3105" y1="494.1797" y2="516.1797"/><polygon fill="#181818" points="535.3105,506.1797,539.3105,516.1797,543.3105,506.1797,539.3105,510.1797" style="stroke:#181818;stroke-width:1;"/><line style="stroke:#181818;stroke-width:1;" x1="726.0325" x2="740.6895" y1="494.1797" y2="494.1797"/><line style="stroke:#181818;stroke-width:1;" x1="740.6895" x2="740.6895" y1="494.1797" y2="516.1797"/><polygon fill="#181818" points="736.6895,506.1797,740.6895,516.1797,744.6895,506.1797,740.6895,510.1797" style="stroke:#181818;stroke-width:1;"/><line style="stroke:#181818;stroke-width:1;" x1="539.3105" x2="539.3105" y1="564.4453" y2="582.4453"/><line style="stroke:#181818;stroke-width:1;" x1="539.3105" x2="628" y1="582.4453" y2="582.4453"/><polygon fill="#181818" points="618,578.4453,628,582.4453,618,586.4453,622,582.4453" style="stroke:#181818;stroke-width:1;"/><line style="stroke:#181818;stroke-width:1;" x1="740.6895" x2="740.6895" y1="550.3125" y2="582.4453"/><line style="stroke:#181818;stroke-width:1;" x1="740.6895" x2="652" y1="582.4453" y2="582.4453"/><polygon fill="#181818" points="662,578.4453,652,582.4453,662,586.4453,658,582.4453" style="stroke:#181818;stroke-width:1;"/><line style="stroke:#181818;stroke-width:1;" x1="640" x2="640" y1="462.1797" y2="482.1797"/><polygon fill="#181818" points="636,472.1797,640,482.1797,644,472.1797,640,476.1797" style="stroke:#181818;stroke-width:1;"/><line style="stroke:#181818;stroke-width:1;" x1="392.6731" x2="324.8232" y1="377.7813" y2="377.7813"/><line style="stroke:#181818;stroke-width:1;" x1="324.8232" x2="324.8232" y1="377.7813" y2="399.7813"/><polygon fill="#181818" points="320.8232,389.7813,324.8232,399.7813,328.8232,389.7813,324.8232,393.7813" style="stroke:#181818;stroke-width:1;"/><line style="stroke:#181818;stroke-width:1;" x1="572.1501" x2="640" y1="377.7813" y2="377.7813"/><line style="stroke:#181818;stroke-width:1;" x1="640" x2="640" y1="377.7813" y2="399.7813"/><polygon fill="#181818" points="636,389.7813,640,399.7813,644,389.7813,640,393.7813" style="stroke:#181818;stroke-width:1;"/><line style="stroke:#181818;stroke-width:1;" x1="324.8232" x2="324.8232" y1="448.0469" y2="612.4453"/><line style="stroke:#181818;stroke-width:1;" x1="324.8232" x2="470.4116" y1="612.4453" y2="612.4453"/><polygon fill="#181818" points="460.4116,608.4453,470.4116,612.4453,460.4116,616.4453,464.4116,612.4453" style="stroke:#181818;stroke-width:1;"/><line style="stroke:#181818;stroke-width:1;" x1="640" x2="640" y1="594.4453" y2="612.4453"/><line style="stroke:#181818;stroke-width:1;" x1="640" x2="494.4116" y1="612.4453" y2="612.4453"/><polygon fill="#181818" points="504.4116,608.4453,494.4116,612.4453,504.4116,616.4453,500.4116,612.4453" style="stroke:#181818;stroke-width:1;"/><line style="stroke:#181818;stroke-width:1;" x1="482.4116" x2="482.4116" y1="345.7813" y2="365.7813"/><polygon fill="#181818" points="478.4116,355.7813,482.4116,365.7813,486.4116,355.7813,482.4116,359.7813" style="stroke:#181818;stroke-width:1;"/><line style="stroke:#181818;stroke-width:1;" x1="482.4116" x2="482.4116" y1="624.4453" y2="644.4453"/><polygon fill="#181818" points="478.4116,634.4453,482.4116,644.4453,486.4116,634.4453,482.4116,638.4453" style="stroke:#181818;stroke-width:1;"/><line style="stroke:#181818;stroke-width:1;" x1="482.4116" x2="482.4116" y1="996.2422" y2="1016.2422"/><polygon fill="#181818" points="478.4116,1006.2422,482.4116,1016.2422,486.4116,1006.2422,482.4116,1010.2422" style="stroke:#181818;stroke-width:1;"/><line style="stroke:#181818;stroke-width:1;" x1="936.1289" x2="936.1289" y1="722.5781" y2="756.7109"/><polygon fill="#181818" points="932.1289,746.7109,936.1289,756.7109,940.1289,746.7109,936.1289,750.7109" style="stroke:#181818;stroke-width:1;"/><line style="stroke:#181818;stroke-width:1;" x1="936.1289" x2="936.1289" y1="804.9766" y2="839.9766"/><polygon fill="#181818" points="932.1289,829.9766,936.1289,839.9766,940.1289,829.9766,936.1289,833.9766" style="stroke:#181818;stroke-width:1;"/><line style="stroke:#181818;stroke-width:1;" x1="1128.4277" x2="1128.4277" y1="838.9766" y2="873.9766"/><polygon fill="#181818" points="1124.4277,863.9766,1128.4277,873.9766,1132.4277,863.9766,1128.4277,867.9766" style="stroke:#181818;stroke-width:1;"/><line style="stroke:#181818;stroke-width:1;" x1="1128.4277" x2="1128.4277" y1="908.1094" y2="928.1094"/><polygon fill="#181818" points="1124.4277,918.1094,1128.4277,928.1094,1132.4277,918.1094,1128.4277,922.1094" style="stroke:#181818;stroke-width:1;"/><line style="stroke:#181818;stroke-width:1;" x1="1322.9775" x2="1322.9775" y1="838.9766" y2="873.9766"/><polygon fill="#181818" points="1318.9775,863.9766,1322.9775,873.9766,1326.9775,863.9766,1322.9775,867.9766" style="stroke:#181818;stroke-width:1;"/><line style="stroke:#181818;stroke-width:1;" x1="1170.2156" x2="1128.4277" y1="782.8438" y2="782.8438"/><line style="stroke:#181818;stroke-width:1;" x1="1128.4277" x2="1128.4277" y1="782.8438" y2="804.8438"/><polygon fill="#181818" points="1124.4277,794.8438,1128.4277,804.8438,1132.4277,794.8438,1128.4277,798.8438" style="stroke:#181818;stroke-width:1;"/><line style="stroke:#181818;stroke-width:1;" x1="1281.1897" x2="1322.9775" y1="782.8438" y2="782.8438"/><line style="stroke:#181818;stroke-width:1;" x1="1322.9775" x2="1322.9775" y1="782.8438" y2="804.8438"/><polygon fill="#181818" points="1318.9775,794.8438,1322.9775,804.8438,1326.9775,794.8438,1322.9775,798.8438" style="stroke:#181818;stroke-width:1;"/><line style="stroke:#181818;stroke-width:1;" x1="1128.4277" x2="1128.4277" y1="962.2422" y2="984.2422"/><line style="stroke:#181818;stroke-width:1;" x1="1128.4277" x2="494.4116" y1="984.2422" y2="984.2422"/><polygon fill="#181818" points="504.4116,980.2422,494.4116,984.2422,504.4116,988.2422,500.4116,984.2422" style="stroke:#181818;stroke-width:1;"/><line style="stroke:#181818;stroke-width:1;" x1="1225.7026" x2="1225.7026" y1="736.7109" y2="770.8438"/><polygon fill="#181818" points="1221.7026,760.8438,1225.7026,770.8438,1229.7026,760.8438,1225.7026,764.8438" style="stroke:#181818;stroke-width:1;"/><line style="stroke:#181818;stroke-width:1;" x1="121.251" x2="121.251" y1="237.5156" y2="242.5156"/><line style="stroke:#181818;stroke-width:1;" x1="121.251" x2="482.4116" y1="242.5156" y2="242.5156"/><line style="stroke:#181818;stroke-width:1;" x1="482.4116" x2="482.4116" y1="242.5156" y2="257.5156"/><polygon fill="#181818" points="478.4116,247.5156,482.4116,257.5156,486.4116,247.5156,482.4116,251.5156" style="stroke:#181818;stroke-width:1;"/><line style="stroke:#181818;stroke-width:1;" x1="412.6831" x2="400.6831" y1="656.4453" y2="656.4453"/><line style="stroke:#181818;stroke-width:1;" x1="400.6831" x2="400.6831" y1="656.4453" y2="674.4453"/><line style="stroke:#181818;stroke-width:1;" x1="400.6831" x2="936.1289" y1="674.4453" y2="674.4453"/><line style="stroke:#181818;stroke-width:1;" x1="936.1289" x2="936.1289" y1="674.4453" y2="688.4453"/><polygon fill="#181818" points="932.1289,678.4453,936.1289,688.4453,940.1289,678.4453,936.1289,682.4453" style="stroke:#181818;stroke-width:1;"/><line style="stroke:#181818;stroke-width:1;" x1="552.1401" x2="1225.7026" y1="656.4453" y2="656.4453"/><line style="stroke:#181818;stroke-width:1;" x1="1225.7026" x2="1225.7026" y1="656.4453" y2="688.4453"/><polygon fill="#181818" points="1221.7026,678.4453,1225.7026,688.4453,1229.7026,678.4453,1225.7026,682.4453" style="stroke:#181818;stroke-width:1;"/><line style="stroke:#181818;stroke-width:1;" x1="936.1289" x2="936.1289" y1="874.1094" y2="967.2422"/><line style="stroke:#181818;stroke-width:1;" x1="936.1289" x2="452.4116" y1="967.2422" y2="967.2422"/><line style="stroke:#181818;stroke-width:1;" x1="452.4116" x2="452.4116" y1="967.2422" y2="984.2422"/><line style="stroke:#181818;stroke-width:1;" x1="452.4116" x2="470.4116" y1="984.2422" y2="984.2422"/><polygon fill="#181818" points="460.4116,980.2422,470.4116,984.2422,460.4116,988.2422,464.4116,984.2422" style="stroke:#181818;stroke-width:1;"/><line style="stroke:#181818;stroke-width:1;" x1="482.4116" x2="482.4116" y1="1064.5078" y2="1069.5078"/><line style="stroke:#181818;stroke-width:1;" x1="482.4116" x2="121.251" y1="1069.5078" y2="1069.5078"/><line style="stroke:#181818;stroke-width:1;" x1="121.251" x2="121.251" y1="1069.5078" y2="1084.5078"/><polygon fill="#181818" points="117.251,1074.5078,121.251,1084.5078,125.251,1074.5078,121.251,1078.5078" style="stroke:#181818;stroke-width:1;"/><text fill="#000000" font-family="sans-serif" font-size="18" lengthAdjust="spacing" textLength="51.5742" x="94.4639" y="72.1875">Agent</text><text fill="#000000" font-family="sans-serif" font-size="18" lengthAdjust="spacing" textLength="153.1318" x="453.6362" y="72.1875">DataflowInterface</text><text fill="#000000" font-family="sans-serif" font-size="18" lengthAdjust="spacing" textLength="141.1699" x="864.5439" y="72.1875">yfinance Vendor</text><text fill="#000000" font-family="sans-serif" font-size="18" lengthAdjust="spacing" textLength="194.9766" x="1122.417" y="72.1875">Alpha Vantage Vendor</text><?plantuml-src TLJRRjim37ttLn1zIe6jVNTG36xQhSMohiYo0CKo6AnDEq9aofDa5m7oi8_O5-vBHijnadRjIouI3tdE8Icll2QOMymLbqb9x1ty_Vq7hj1ZeSqJB8XpOs5c6YyHC3MbogB8hHNNQB42pBngbTzSAQmCvvUOhKjh6iudHWjkgigLVo0jgLu1lOnEjCheKZSKHTj0PXivZzP7SVW7J9Gxo8NRaaTqLfwzWv9ywhp9rcbtV3gEuWbg3TuO3KN3KiYm1BSAOOfSJbQe6EPoUsToal1eEqYzPK-sm8osKJoZZ5HB8KtAMD6uEyCSiiRQZia0cXWkL2bfL06Z4Dq6mzoFFVGdEF8VJi6lY66q8NSQ0SJVNP_zlQQMDFGeC2rPgtBQopj1NQymRP4zbdGYX4aBSiGcPBaYuLmfxdD1XfvAOpS2puobdJ5OAmVdu2bRiSfGfufp-VR24iwNB2xbGbCAwE2XX38zkS5FW4vQzsSlRIZpghATjY7ccRw3h4sX63aBYW2EDUtmfJQFg26d0XljuoD408Y28ke_W_MxCRsuE4xzdDXskDZDzBOpC0pB_aAhHujsqrM8FvBFLl3rPZfPY2DlMkPsTlKOOolqW0ugjElSF34uRsLl3cqBs_Mognsxf3k2HNzqJ37CNJAzlqdIHN8tJpvTfydzRVhv-a68M5E96QsoXZi-Gxia0DQqWTgIa-DNUXI4Fwyvk_us1q6E-uZU04k_6dAUyh1smzNRElzhvWnLDmvXJngBtJw23BcnVIuPqVfbGzzOITzOXYAKxlZq5PVipNwVnuTt8qxgMjBrUo4ko139xoKV7e6Ad1FPhdio3ClhrX1Cfrya69tXxh7JnjJZA33y1m00?></g></svg>