<svg xmlns="http://www.w3.org/2000/svg" xmlns:xlink="http://www.w3.org/1999/xlink" contentStyleType="text/css" data-diagram-type="CLASS" height="810px" preserveAspectRatio="none" style="width:2545px;height:810px;background:#FFFFFF;" version="1.1" viewBox="0 0 2545 810" width="2545px" zoomAndPan="magnify"><?plantuml 1.2026.3?><defs/><g><g class="title" data-source-line="1"><text fill="#000000" font-family="sans-serif" font-size="14" font-weight="700" lengthAdjust="spacing" textLength="463.6475" x="1037.2452" y="23.5352">TradingAgents &#8212; Dataflows, Tool Routing &amp; Vendor Abstraction</text></g><!--cluster dataflows--><g class="cluster" data-qualified-name="dataflows" data-source-line="6" id="ent0002"><path d="M8.5,382.9283 L80.2041,382.9283 A3.75,3.75 0 0 1 82.7041,385.4283 L89.7041,405.4166 L2185.5,405.4166 A2.5,2.5 0 0 1 2188,407.9166 L2188,792.7983 A2.5,2.5 0 0 1 2185.5,795.2983 L8.5,795.2983 A2.5,2.5 0 0 1 6,792.7983 L6,385.4283 A2.5,2.5 0 0 1 8.5,382.9283" fill="none" style="stroke:#000000;stroke-width:1.5;"/><line style="stroke:#000000;stroke-width:1.5;" x1="6" x2="89.7041" y1="405.4166" y2="405.4166"/><text fill="#000000" font-family="sans-serif" font-size="14" font-weight="700" lengthAdjust="spacing" textLength="70.7041" x="10" y="398.4634">dataflows</text></g><!--cluster yfinance_vendor--><g class="cluster" data-qualified-name="dataflows.yfinance_vendor" data-source-line="27" id="ent0005"><path d="M452.5,589.8583 L571.5771,589.8583 A3.75,3.75 0 0 1 574.0771,592.3583 L581.0771,612.3466 L1298.5,612.3466 A2.5,2.5 0 0 1 1301,614.8466 L1301,768.7983 A2.5,2.5 0 0 1 1298.5,771.2983 L452.5,771.2983 A2.5,2.5 0 0 1 450,768.7983 L450,592.3583 A2.5,2.5 0 0 1 452.5,589.8583" fill="none" style="stroke:#000000;stroke-width:1.5;"/><line style="stroke:#000000;stroke-width:1.5;" x1="450" x2="581.0771" y1="612.3466" y2="612.3466"/><text fill="#000000" font-family="sans-serif" font-size="14" font-weight="700" lengthAdjust="spacing" textLength="118.0771" x="454" y="605.3934">yfinance_vendor</text></g><!--cluster alpha_vantage_vendor--><g class="cluster" data-qualified-name="dataflows.alpha_vantage_vendor" data-source-line="46" id="ent0009"><path d="M1327.5,589.8583 L1489.3428,589.8583 A3.75,3.75 0 0 1 1491.8428,592.3583 L1498.8428,612.3466 L2161.5,612.3466 A2.5,2.5 0 0 1 2164,614.8466 L2164,768.7983 A2.5,2.5 0 0 1 2161.5,771.2983 L1327.5,771.2983 A2.5,2.5 0 0 1 1325,768.7983 L1325,592.3583 A2.5,2.5 0 0 1 1327.5,589.8583" fill="none" style="stroke:#000000;stroke-width:1.5;"/><line style="stroke:#000000;stroke-width:1.5;" x1="1325" x2="1498.8428" y1="612.3466" y2="612.3466"/><text fill="#000000" font-family="sans-serif" font-size="14" font-weight="700" lengthAdjust="spacing" textLength="160.8428" x="1329" y="605.3934">alpha_vantage_vendor</text></g><!--cluster agents--><g class="cluster" data-qualified-name="agents" data-source-line="86" id="ent0024"><path d="M620.5,43.4883 L669.9531,43.4883 A3.75,3.75 0 0 1 672.4531,45.9883 L679.4531,65.9766 L1668.5,65.9766 A2.5,2.5 0 0 1 1671,68.4766 L1671,356.4283 A2.5,2.5 0 0 1 1668.5,358.9283 L620.5,358.9283 A2.5,2.5 0 0 1 618,356.4283 L618,45.9883 A2.5,2.5 0 0 1 620.5,43.4883" fill="none" style="stroke:#000000;stroke-width:1.5;"/><line style="stroke:#000000;stroke-width:1.5;" x1="618" x2="679.4531" y1="65.9766" y2="65.9766"/><text fill="#000000" font-family="sans-serif" font-size="14" font-weight="700" lengthAdjust="spacing" textLength="48.4531" x="622" y="59.0234">agents</text></g><!--cluster utils--><g class="cluster" data-qualified-name="agents.utils" data-source-line="86" id="ent0025"><path d="M644.5,86.4883 L677.3896,86.4883 A3.75,3.75 0 0 1 679.8896,88.9883 L686.8896,108.9766 L1644.5,108.9766 A2.5,2.5 0 0 1 1647,111.4766 L1647,332.4283 A2.5,2.5 0 0 1 1644.5,334.9283 L644.5,334.9283 A2.5,2.5 0 0 1 642,332.4283 L642,88.9883 A2.5,2.5 0 0 1 644.5,86.4883" fill="none" style="stroke:#000000;stroke-width:1.5;"/><line style="stroke:#000000;stroke-width:1.5;" x1="642" x2="686.8896" y1="108.9766" y2="108.9766"/><text fill="#000000" font-family="sans-serif" font-size="14" font-weight="700" lengthAdjust="spacing" textLength="31.8896" x="646" y="102.0234">utils</text></g><!--cluster tools--><g class="cluster" data-qualified-name="agents.utils.tools" data-source-line="85" id="ent0022"><path d="M668.5,129.4883 L705.5254,129.4883 A3.75,3.75 0 0 1 708.0254,131.9883 L715.0254,151.9766 L1620.5,151.9766 A2.5,2.5 0 0 1 1623,154.4766 L1623,308.4283 A2.5,2.5 0 0 1 1620.5,310.9283 L668.5,310.9283 A2.5,2.5 0 0 1 666,308.4283 L666,131.9883 A2.5,2.5 0 0 1 668.5,129.4883" fill="none" style="stroke:#000000;stroke-width:1.5;"/><line style="stroke:#000000;stroke-width:1.5;" x1="666" x2="715.0254" y1="151.9766" y2="151.9766"/><text fill="#000000" font-family="sans-serif" font-size="14" font-weight="700" lengthAdjust="spacing" textLength="36.0254" x="670" y="145.0234">tools</text></g><!--class DataflowConfig--><g class="entity" data-qualified-name="dataflows.DataflowConfig" data-source-line="8" id="ent0003"><rect fill="#F1F1F1" height="163.418" rx="2.5" ry="2.5" style="stroke:#181818;stroke-width:0.5;" width="227.0176" x="22.49" y="608.3683"/><ellipse cx="79.4163" cy="624.3683" fill="#ADD1B2" rx="11" ry="11" style="stroke:#181818;stroke-width:1;"/><path d="M81.8894,630.5113 Q81.3084,630.8102 80.6692,630.9596 Q80.03,631.109 79.3245,631.109 Q76.8176,631.109 75.4978,629.4571 Q74.178,627.8053 74.178,624.6842 Q74.178,621.5548 75.4978,619.9029 Q76.8176,618.2511 79.3245,618.2511 Q80.03,618.2511 80.6775,618.4005 Q81.325,618.5499 81.8894,618.8487 L81.8894,621.5714 Q81.2586,620.9904 80.665,620.7206 Q80.0715,620.4508 79.4407,620.4508 Q78.096,620.4508 77.4111,621.5175 Q76.7263,622.5841 76.7263,624.6842 Q76.7263,626.776 77.4111,627.8426 Q78.096,628.9093 79.4407,628.9093 Q80.0715,628.9093 80.665,628.6395 Q81.2586,628.3697 81.8894,627.7887 Z " fill="#000000"/><text fill="#000000" font-family="sans-serif" font-size="14" lengthAdjust="spacing" textLength="104.665" x="99.9163" y="629.6593">DataflowConfig</text><line style="stroke:#181818;stroke-width:0.5;" x1="23.49" x2="248.5076" y1="640.3683" y2="640.3683"/><text fill="#000000" font-family="sans-serif" font-size="14" lengthAdjust="spacing" textLength="149.8711" x="28.49" y="657.9034">+core_stock_apis : str</text><text fill="#000000" font-family="sans-serif" font-size="14" lengthAdjust="spacing" textLength="177.2969" x="28.49" y="674.3917">+technical_indicators : str</text><text fill="#000000" font-family="sans-serif" font-size="14" lengthAdjust="spacing" textLength="164.6709" x="28.49" y="690.88">+fundamental_data : str</text><text fill="#000000" font-family="sans-serif" font-size="14" lengthAdjust="spacing" textLength="113.4424" x="28.49" y="707.3683">+news_data : str</text><text fill="#000000" font-family="sans-serif" font-size="14" lengthAdjust="spacing" textLength="191.3447" x="28.49" y="723.8566">+tool_vendors : dict[str, str]</text><line style="stroke:#181818;stroke-width:0.5;" x1="23.49" x2="248.5076" y1="730.8097" y2="730.8097"/><text fill="#000000" font-family="sans-serif" font-size="14" lengthAdjust="spacing" textLength="129.9375" x="28.49" y="748.3448">+get_config() : dict</text><text fill="#000000" font-family="sans-serif" font-size="14" lengthAdjust="spacing" textLength="215.0176" x="28.49" y="764.8331">+set_config(config: dict) : None</text></g><!--class DataflowInterface--><g class="entity" data-qualified-name="dataflows.DataflowInterface" data-source-line="18" id="ent0004"><rect fill="#F1F1F1" height="130.4414" rx="2.5" ry="2.5" style="stroke:#181818;stroke-width:0.5;" width="371.1875" x="966.41" y="417.9283"/><ellipse cx="1088.2025" cy="433.9283" fill="#ADD1B2" rx="11" ry="11" style="stroke:#181818;stroke-width:1;"/><path d="M1090.6756,440.0713 Q1090.0946,440.3702 1089.4554,440.5196 Q1088.8162,440.669 1088.1107,440.669 Q1085.6038,440.669 1084.284,439.0171 Q1082.9642,437.3653 1082.9642,434.2442 Q1082.9642,431.1148 1084.284,429.4629 Q1085.6038,427.8111 1088.1107,427.8111 Q1088.8162,427.8111 1089.4637,427.9605 Q1090.1112,428.1099 1090.6756,428.4087 L1090.6756,431.1314 Q1090.0448,430.5504 1089.4513,430.2806 Q1088.8578,430.0108 1088.2269,430.0108 Q1086.8822,430.0108 1086.1974,431.0775 Q1085.5125,432.1441 1085.5125,434.2442 Q1085.5125,436.336 1086.1974,437.4026 Q1086.8822,438.4693 1088.2269,438.4693 Q1088.8578,438.4693 1089.4513,438.1995 Q1090.0448,437.9297 1090.6756,437.3487 Z " fill="#000000"/><text fill="#000000" font-family="sans-serif" font-size="14" lengthAdjust="spacing" textLength="119.1025" x="1108.7025" y="439.2193">DataflowInterface</text><line style="stroke:#181818;stroke-width:0.5;" x1="967.41" x2="1336.5975" y1="449.9283" y2="449.9283"/><text fill="#000000" font-family="sans-serif" font-size="14" lengthAdjust="spacing" textLength="332.9717" x="972.41" y="467.4634">+VENDOR_METHODS : dict[str, dict[str, Callable]]</text><text fill="#000000" font-family="sans-serif" font-size="14" lengthAdjust="spacing" textLength="270.8262" x="972.41" y="483.9517">+TOOLS_CATEGORIES : dict[str, list[str]]</text><line style="stroke:#181818;stroke-width:0.5;" x1="967.41" x2="1336.5975" y1="490.9048" y2="490.9048"/><text fill="#000000" font-family="sans-serif" font-size="14" lengthAdjust="spacing" textLength="346.876" x="972.41" y="508.44">+get_data_vendor(tool_name: str, config: dict) : str</text><text fill="#000000" font-family="sans-serif" font-size="14" lengthAdjust="spacing" textLength="343.9365" x="972.41" y="524.9283">+get_tool_fn(tool_name: str, vendor: str) : Callable</text><text fill="#000000" font-family="sans-serif" font-size="14" lengthAdjust="spacing" textLength="359.1875" x="972.41" y="541.4166">+build_tool_list(category: str, config: dict) : list[Tool]</text></g><!--class ToolCategory--><g class="entity" data-qualified-name="dataflows.ToolCategory" data-source-line="67" id="ent0013"><rect fill="#F1F1F1" height="122.5742" rx="2.5" ry="2.5" style="stroke:#181818;stroke-width:0.5;" width="146.7773" x="284.61" y="628.7883"/><ellipse cx="310.3436" cy="649.0988" fill="#ADD1B2" rx="11" ry="11" style="stroke:#181818;stroke-width:1;"/><path d="M312.8168,655.2419 Q312.2357,655.5407 311.5966,655.6901 Q310.9574,655.8396 310.2518,655.8396 Q307.745,655.8396 306.4252,654.1877 Q305.1054,652.5358 305.1054,649.4147 Q305.1054,646.2854 306.4252,644.6335 Q307.745,642.9816 310.2518,642.9816 Q310.9574,642.9816 311.6049,643.1311 Q312.2523,643.2805 312.8168,643.5793 L312.8168,646.302 Q312.1859,645.7209 311.5924,645.4511 Q310.9989,645.1813 310.3681,645.1813 Q309.0233,645.1813 308.3385,646.248 Q307.6537,647.3146 307.6537,649.4147 Q307.6537,651.5065 308.3385,652.5732 Q309.0233,653.6398 310.3681,653.6398 Q310.9989,653.6398 311.5924,653.3701 Q312.1859,653.1003 312.8168,652.5192 Z " fill="#000000"/><text fill="#000000" font-family="sans-serif" font-size="12" font-style="italic" lengthAdjust="spacing" textLength="86.3555" x="329.0136" y="645.3898">&#171;enumeration&#187;</text><text fill="#000000" font-family="sans-serif" font-size="14" lengthAdjust="spacing" textLength="90.9248" x="326.7289" y="661.4563">ToolCategory</text><line style="stroke:#181818;stroke-width:0.5;" x1="285.61" x2="430.3873" y1="669.4094" y2="669.4094"/><text fill="#000000" font-family="sans-serif" font-size="14" lengthAdjust="spacing" textLength="107.3516" x="290.61" y="686.9445">core_stock_apis</text><text fill="#000000" font-family="sans-serif" font-size="14" lengthAdjust="spacing" textLength="134.7773" x="290.61" y="703.4328">technical_indicators</text><text fill="#000000" font-family="sans-serif" font-size="14" lengthAdjust="spacing" textLength="122.1514" x="290.61" y="719.9211">fundamental_data</text><text fill="#000000" font-family="sans-serif" font-size="14" lengthAdjust="spacing" textLength="70.9229" x="290.61" y="736.4094">news_data</text><line style="stroke:#181818;stroke-width:0.5;" x1="285.61" x2="430.3873" y1="743.3625" y2="743.3625"/></g><!--class YFinanceStock--><g class="entity" data-qualified-name="dataflows.yfinance_vendor.YFinanceStock" data-source-line="28" id="ent0006"><rect fill="#F1F1F1" height="80.9766" rx="2.5" ry="2.5" style="stroke:#181818;stroke-width:0.5;" width="277.4805" x="466.26" y="649.5883"/><ellipse cx="552.2082" cy="665.5883" fill="#ADD1B2" rx="11" ry="11" style="stroke:#181818;stroke-width:1;"/><path d="M554.6814,671.7313 Q554.1003,672.0302 553.4612,672.1796 Q552.822,672.329 552.1164,672.329 Q549.6096,672.329 548.2898,670.6771 Q546.97,669.0253 546.97,665.9042 Q546.97,662.7748 548.2898,661.1229 Q549.6096,659.4711 552.1164,659.4711 Q552.822,659.4711 553.4695,659.6205 Q554.1169,659.7699 554.6814,660.0687 L554.6814,662.7914 Q554.0505,662.2104 553.457,661.9406 Q552.8635,661.6708 552.2327,661.6708 Q550.8879,661.6708 550.2031,662.7375 Q549.5183,663.8041 549.5183,665.9042 Q549.5183,667.996 550.2031,669.0626 Q550.8879,670.1293 552.2327,670.1293 Q552.8635,670.1293 553.457,669.8595 Q554.0505,669.5897 554.6814,669.0087 Z " fill="#000000"/><text fill="#000000" font-family="sans-serif" font-size="14" lengthAdjust="spacing" textLength="97.084" x="572.7082" y="670.8793">YFinanceStock</text><line style="stroke:#181818;stroke-width:0.5;" x1="467.26" x2="742.7405" y1="681.5883" y2="681.5883"/><line style="stroke:#181818;stroke-width:0.5;" x1="467.26" x2="742.7405" y1="689.5883" y2="689.5883"/><text fill="#000000" font-family="sans-serif" font-size="14" lengthAdjust="spacing" textLength="265.4805" x="472.26" y="707.1234">+get_stock_data(ticker, start, end) : str</text><text fill="#000000" font-family="sans-serif" font-size="14" lengthAdjust="spacing" textLength="224.1914" x="472.26" y="723.6117">+get_indicators(ticker, date) : str</text></g><!--class YFinanceNews--><g class="entity" data-qualified-name="dataflows.yfinance_vendor.YFinanceNews" data-source-line="32" id="ent0007"><rect fill="#F1F1F1" height="80.9766" rx="2.5" ry="2.5" style="stroke:#181818;stroke-width:0.5;" width="205.3477" x="778.33" y="649.5883"/><ellipse cx="828.5434" cy="665.5883" fill="#ADD1B2" rx="11" ry="11" style="stroke:#181818;stroke-width:1;"/><path d="M831.0165,671.7313 Q830.4355,672.0302 829.7963,672.1796 Q829.1571,672.329 828.4516,672.329 Q825.9447,672.329 824.6249,670.6771 Q823.3051,669.0253 823.3051,665.9042 Q823.3051,662.7748 824.6249,661.1229 Q825.9447,659.4711 828.4516,659.4711 Q829.1571,659.4711 829.8046,659.6205 Q830.4521,659.7699 831.0165,660.0687 L831.0165,662.7914 Q830.3857,662.2104 829.7922,661.9406 Q829.1987,661.6708 828.5678,661.6708 Q827.2231,661.6708 826.5383,662.7375 Q825.8534,663.8041 825.8534,665.9042 Q825.8534,667.996 826.5383,669.0626 Q827.2231,670.1293 828.5678,670.1293 Q829.1987,670.1293 829.7922,669.8595 Q830.3857,669.5897 831.0165,669.0087 Z " fill="#000000"/><text fill="#000000" font-family="sans-serif" font-size="14" lengthAdjust="spacing" textLength="96.4209" x="849.0434" y="670.8793">YFinanceNews</text><line style="stroke:#181818;stroke-width:0.5;" x1="779.33" x2="982.6777" y1="681.5883" y2="681.5883"/><line style="stroke:#181818;stroke-width:0.5;" x1="779.33" x2="982.6777" y1="689.5883" y2="689.5883"/><text fill="#000000" font-family="sans-serif" font-size="14" lengthAdjust="spacing" textLength="191.4063" x="784.33" y="707.1234">+get_news(ticker, date) : str</text><text fill="#000000" font-family="sans-serif" font-size="14" lengthAdjust="spacing" textLength="193.3477" x="784.33" y="723.6117">+get_global_news(date) : str</text></g><!--class YFinanceFundamentals--><g class="entity" data-qualified-name="dataflows.yfinance_vendor.YFinanceFundamentals" data-source-line="36" id="ent0008"><rect fill="#F1F1F1" height="130.4414" rx="2.5" ry="2.5" style="stroke:#181818;stroke-width:0.5;" width="266.9463" x="1018.53" y="624.8583"/><ellipse cx="1070.008" cy="640.8583" fill="#ADD1B2" rx="11" ry="11" style="stroke:#181818;stroke-width:1;"/><path d="M1072.4812,647.0013 Q1071.9001,647.3002 1071.261,647.4496 Q1070.6218,647.599 1069.9162,647.599 Q1067.4094,647.599 1066.0896,645.9471 Q1064.7697,644.2953 1064.7697,641.1742 Q1064.7697,638.0448 1066.0896,636.3929 Q1067.4094,634.7411 1069.9162,634.7411 Q1070.6218,634.7411 1071.2693,634.8905 Q1071.9167,635.0399 1072.4812,635.3387 L1072.4812,638.0614 Q1071.8503,637.4804 1071.2568,637.2106 Q1070.6633,636.9408 1070.0324,636.9408 Q1068.6877,636.9408 1068.0029,638.0075 Q1067.3181,639.0741 1067.3181,641.1742 Q1067.3181,643.266 1068.0029,644.3326 Q1068.6877,645.3993 1070.0324,645.3993 Q1070.6633,645.3993 1071.2568,645.1295 Q1071.8503,644.8597 1072.4812,644.2787 Z " fill="#000000"/><text fill="#000000" font-family="sans-serif" font-size="14" lengthAdjust="spacing" textLength="155.4902" x="1090.508" y="646.1493">YFinanceFundamentals</text><line style="stroke:#181818;stroke-width:0.5;" x1="1019.53" x2="1284.4763" y1="656.8583" y2="656.8583"/><line style="stroke:#181818;stroke-width:0.5;" x1="1019.53" x2="1284.4763" y1="664.8583" y2="664.8583"/><text fill="#000000" font-family="sans-serif" font-size="14" lengthAdjust="spacing" textLength="211.333" x="1024.53" y="682.3934">+get_fundamentals(ticker) : str</text><text fill="#000000" font-family="sans-serif" font-size="14" lengthAdjust="spacing" textLength="214.1973" x="1024.53" y="698.8817">+get_balance_sheet(ticker) : str</text><text fill="#000000" font-family="sans-serif" font-size="14" lengthAdjust="spacing" textLength="177.8643" x="1024.53" y="715.37">+get_cashflow(ticker) : str</text><text fill="#000000" font-family="sans-serif" font-size="14" lengthAdjust="spacing" textLength="242.8672" x="1024.53" y="731.8583">+get_income_statement(ticker) : str</text><text fill="#000000" font-family="sans-serif" font-size="14" lengthAdjust="spacing" textLength="254.9463" x="1024.53" y="748.3466">+get_insider_transactions(ticker) : str</text></g><!--class AlphaVantageStock--><g class="entity" data-qualified-name="dataflows.alpha_vantage_vendor.AlphaVantageStock" data-source-line="47" id="ent0010"><rect fill="#F1F1F1" height="97.4648" rx="2.5" ry="2.5" style="stroke:#181818;stroke-width:0.5;" width="277.4805" x="1341.26" y="641.3483"/><ellipse cx="1410.3816" cy="657.3483" fill="#ADD1B2" rx="11" ry="11" style="stroke:#181818;stroke-width:1;"/><path d="M1412.8547,663.4913 Q1412.2737,663.7902 1411.6345,663.9396 Q1410.9954,664.089 1410.2898,664.089 Q1407.7829,664.089 1406.4631,662.4371 Q1405.1433,660.7853 1405.1433,657.6642 Q1405.1433,654.5348 1406.4631,652.8829 Q1407.7829,651.2311 1410.2898,651.2311 Q1410.9954,651.2311 1411.6428,651.3805 Q1412.2903,651.5299 1412.8547,651.8287 L1412.8547,654.5514 Q1412.2239,653.9704 1411.6304,653.7006 Q1411.0369,653.4308 1410.406,653.4308 Q1409.0613,653.4308 1408.3765,654.4975 Q1407.6916,655.5641 1407.6916,657.6642 Q1407.6916,659.756 1408.3765,660.8226 Q1409.0613,661.8893 1410.406,661.8893 Q1411.0369,661.8893 1411.6304,661.6195 Q1412.2239,661.3497 1412.8547,660.7687 Z " fill="#000000"/><text fill="#000000" font-family="sans-serif" font-size="14" lengthAdjust="spacing" textLength="130.7373" x="1430.8816" y="662.6393">AlphaVantageStock</text><line style="stroke:#181818;stroke-width:0.5;" x1="1342.26" x2="1617.7405" y1="673.3483" y2="673.3483"/><text fill="#000000" font-family="sans-serif" font-size="14" lengthAdjust="spacing" textLength="93.4063" x="1347.26" y="690.8834">+api_key : str</text><line style="stroke:#181818;stroke-width:0.5;" x1="1342.26" x2="1617.7405" y1="697.8366" y2="697.8366"/><text fill="#000000" font-family="sans-serif" font-size="14" lengthAdjust="spacing" textLength="265.4805" x="1347.26" y="715.3717">+get_stock_data(ticker, start, end) : str</text><text fill="#000000" font-family="sans-serif" font-size="14" lengthAdjust="spacing" textLength="224.1914" x="1347.26" y="731.86">+get_indicators(ticker, date) : str</text></g><!--class AlphaVantageNews--><g class="entity" data-qualified-name="dataflows.alpha_vantage_vendor.AlphaVantageNews" data-source-line="52" id="ent0011"><rect fill="#F1F1F1" height="97.4648" rx="2.5" ry="2.5" style="stroke:#181818;stroke-width:0.5;" width="205.3477" x="1653.33" y="641.3483"/><ellipse cx="1687.803" cy="657.3483" fill="#ADD1B2" rx="11" ry="11" style="stroke:#181818;stroke-width:1;"/><path d="M1690.2762,663.4913 Q1689.6951,663.7902 1689.056,663.9396 Q1688.4168,664.089 1687.7112,664.089 Q1685.2044,664.089 1683.8846,662.4371 Q1682.5648,660.7853 1682.5648,657.6642 Q1682.5648,654.5348 1683.8846,652.8829 Q1685.2044,651.2311 1687.7112,651.2311 Q1688.4168,651.2311 1689.0643,651.3805 Q1689.7117,651.5299 1690.2762,651.8287 L1690.2762,654.5514 Q1689.6453,653.9704 1689.0518,653.7006 Q1688.4583,653.4308 1687.8275,653.4308 Q1686.4827,653.4308 1685.7979,654.4975 Q1685.1131,655.5641 1685.1131,657.6642 Q1685.1131,659.756 1685.7979,660.8226 Q1686.4827,661.8893 1687.8275,661.8893 Q1688.4583,661.8893 1689.0518,661.6195 Q1689.6453,661.3497 1690.2762,660.7687 Z " fill="#000000"/><text fill="#000000" font-family="sans-serif" font-size="14" lengthAdjust="spacing" textLength="130.0742" x="1706.1304" y="662.6393">AlphaVantageNews</text><line style="stroke:#181818;stroke-width:0.5;" x1="1654.33" x2="1857.6777" y1="673.3483" y2="673.3483"/><text fill="#000000" font-family="sans-serif" font-size="14" lengthAdjust="spacing" textLength="93.4063" x="1659.33" y="690.8834">+api_key : str</text><line style="stroke:#181818;stroke-width:0.5;" x1="1654.33" x2="1857.6777" y1="697.8366" y2="697.8366"/><text fill="#000000" font-family="sans-serif" font-size="14" lengthAdjust="spacing" textLength="191.4063" x="1659.33" y="715.3717">+get_news(ticker, date) : str</text><text fill="#000000" font-family="sans-serif" font-size="14" lengthAdjust="spacing" textLength="193.3477" x="1659.33" y="731.86">+get_global_news(date) : str</text></g><!--class AlphaVantageFundamentals--><g class="entity" data-qualified-name="dataflows.alpha_vantage_vendor.AlphaVantageFundamentals" data-source-line="57" id="ent0012"><rect fill="#F1F1F1" height="130.4414" rx="2.5" ry="2.5" style="stroke:#181818;stroke-width:0.5;" width="254.8672" x="1893.57" y="624.8583"/><ellipse cx="1923.7456" cy="640.8583" fill="#ADD1B2" rx="11" ry="11" style="stroke:#181818;stroke-width:1;"/><path d="M1926.2188,647.0013 Q1925.6377,647.3002 1924.9986,647.4496 Q1924.3594,647.599 1923.6538,647.599 Q1921.147,647.599 1919.8272,645.9471 Q1918.5074,644.2953 1918.5074,641.1742 Q1918.5074,638.0448 1919.8272,636.3929 Q1921.147,634.7411 1923.6538,634.7411 Q1924.3594,634.7411 1925.0069,634.8905 Q1925.6543,635.0399 1926.2188,635.3387 L1926.2188,638.0614 Q1925.5879,637.4804 1924.9944,637.2106 Q1924.4009,636.9408 1923.77,636.9408 Q1922.4253,636.9408 1921.7405,638.0075 Q1921.0557,639.0741 1921.0557,641.1742 Q1921.0557,643.266 1921.7405,644.3326 Q1922.4253,645.3993 1923.77,645.3993 Q1924.4009,645.3993 1924.9944,645.1295 Q1925.5879,644.8597 1926.2188,644.2787 Z " fill="#000000"/><text fill="#000000" font-family="sans-serif" font-size="14" lengthAdjust="spacing" textLength="189.1436" x="1941.118" y="646.1493">AlphaVantageFundamentals</text><line style="stroke:#181818;stroke-width:0.5;" x1="1894.57" x2="2147.4372" y1="656.8583" y2="656.8583"/><text fill="#000000" font-family="sans-serif" font-size="14" lengthAdjust="spacing" textLength="93.4063" x="1899.57" y="674.3934">+api_key : str</text><line style="stroke:#181818;stroke-width:0.5;" x1="1894.57" x2="2147.4372" y1="681.3466" y2="681.3466"/><text fill="#000000" font-family="sans-serif" font-size="14" lengthAdjust="spacing" textLength="211.333" x="1899.57" y="698.8817">+get_fundamentals(ticker) : str</text><text fill="#000000" font-family="sans-serif" font-size="14" lengthAdjust="spacing" textLength="214.1973" x="1899.57" y="715.37">+get_balance_sheet(ticker) : str</text><text fill="#000000" font-family="sans-serif" font-size="14" lengthAdjust="spacing" textLength="177.8643" x="1899.57" y="731.8583">+get_cashflow(ticker) : str</text><text fill="#000000" font-family="sans-serif" font-size="14" lengthAdjust="spacing" textLength="242.8672" x="1899.57" y="748.3466">+get_income_statement(ticker) : str</text></g><!--class CoreStockTools--><g class="entity" data-qualified-name="agents.utils.tools.CoreStockTools" data-source-line="86" id="ent0023"><rect fill="#F1F1F1" height="80.9766" rx="2.5" ry="2.5" style="stroke:#181818;stroke-width:0.5;" width="209.627" x="682.19" y="189.2183"/><ellipse cx="729.8638" cy="205.2183" fill="#ADD1B2" rx="11" ry="11" style="stroke:#181818;stroke-width:1;"/><path d="M732.337,211.3613 Q731.7559,211.6602 731.1168,211.8096 Q730.4776,211.959 729.772,211.959 Q727.2652,211.959 725.9454,210.3071 Q724.6255,208.6553 724.6255,205.5342 Q724.6255,202.4048 725.9454,200.7529 Q727.2652,199.1011 729.772,199.1011 Q730.4776,199.1011 731.1251,199.2505 Q731.7725,199.3999 732.337,199.6987 L732.337,202.4214 Q731.7061,201.8404 731.1126,201.5706 Q730.5191,201.3008 729.8882,201.3008 Q728.5435,201.3008 727.8587,202.3675 Q727.1739,203.4341 727.1739,205.5342 Q727.1739,207.626 727.8587,208.6926 Q728.5435,209.7593 729.8882,209.7593 Q730.5191,209.7593 731.1126,209.4895 Q731.7061,209.2197 732.337,208.6387 Z " fill="#000000"/><text fill="#000000" font-family="sans-serif" font-size="14" lengthAdjust="spacing" textLength="105.7793" x="750.3638" y="210.5093">CoreStockTools</text><line style="stroke:#181818;stroke-width:0.5;" x1="683.19" x2="890.817" y1="221.2183" y2="221.2183"/><text fill="#000000" font-family="sans-serif" font-size="14" lengthAdjust="spacing" textLength="156.1191" x="688.19" y="238.7534">+get_stock_data : Tool</text><text fill="#000000" font-family="sans-serif" font-size="14" lengthAdjust="spacing" textLength="197.627" x="688.19" y="255.2417">+get_YFin_data_online : Tool</text><line style="stroke:#181818;stroke-width:0.5;" x1="683.19" x2="890.817" y1="262.1948" y2="262.1948"/></g><!--class TechnicalIndicatorsTools--><g class="entity" data-qualified-name="agents.utils.tools.TechnicalIndicatorsTools" data-source-line="90" id="ent0026"><rect fill="#F1F1F1" height="64.4883" rx="2.5" ry="2.5" style="stroke:#181818;stroke-width:0.5;" width="200.6152" x="926.69" y="197.4583"/><ellipse cx="941.69" cy="213.4583" fill="#ADD1B2" rx="11" ry="11" style="stroke:#181818;stroke-width:1;"/><path d="M944.1631,219.6013 Q943.5821,219.9002 942.9429,220.0496 Q942.3038,220.199 941.5982,220.199 Q939.0914,220.199 937.7715,218.5471 Q936.4517,216.8953 936.4517,213.7742 Q936.4517,210.6448 937.7715,208.9929 Q939.0914,207.3411 941.5982,207.3411 Q942.3038,207.3411 942.9512,207.4905 Q943.5987,207.6399 944.1631,207.9387 L944.1631,210.6614 Q943.5323,210.0804 942.9388,209.8106 Q942.3453,209.5408 941.7144,209.5408 Q940.3697,209.5408 939.6849,210.6075 Q939.0001,211.6741 939.0001,213.7742 Q939.0001,215.866 939.6849,216.9326 Q940.3697,217.9993 941.7144,217.9993 Q942.3453,217.9993 942.9388,217.7295 Q943.5323,217.4597 944.1631,216.8787 Z " fill="#000000"/><text fill="#000000" font-family="sans-serif" font-size="14" lengthAdjust="spacing" textLength="168.6152" x="955.69" y="218.7493">TechnicalIndicatorsTools</text><line style="stroke:#181818;stroke-width:0.5;" x1="927.69" x2="1126.3052" y1="229.4583" y2="229.4583"/><text fill="#000000" font-family="sans-serif" font-size="14" lengthAdjust="spacing" textLength="150.4795" x="932.69" y="246.9934">+get_indicators : Tool</text><line style="stroke:#181818;stroke-width:0.5;" x1="927.69" x2="1126.3052" y1="253.9466" y2="253.9466"/></g><!--class FundamentalDataTools--><g class="entity" data-qualified-name="agents.utils.tools.FundamentalDataTools" data-source-line="93" id="ent0027"><rect fill="#F1F1F1" height="130.4414" rx="2.5" ry="2.5" style="stroke:#181818;stroke-width:0.5;" width="231.6729" x="1162.16" y="164.4883"/><ellipse cx="1196.6238" cy="180.4883" fill="#ADD1B2" rx="11" ry="11" style="stroke:#181818;stroke-width:1;"/><path d="M1199.097,186.6313 Q1198.5159,186.9302 1197.8767,187.0796 Q1197.2376,187.229 1196.532,187.229 Q1194.0252,187.229 1192.7054,185.5771 Q1191.3855,183.9253 1191.3855,180.8042 Q1191.3855,177.6748 1192.7054,176.0229 Q1194.0252,174.3711 1196.532,174.3711 Q1197.2376,174.3711 1197.885,174.5205 Q1198.5325,174.6699 1199.097,174.9688 L1199.097,177.6914 Q1198.4661,177.1104 1197.8726,176.8406 Q1197.2791,176.5708 1196.6482,176.5708 Q1195.3035,176.5708 1194.6187,177.6375 Q1193.9339,178.7041 1193.9339,180.8042 Q1193.9339,182.896 1194.6187,183.9626 Q1195.3035,185.0293 1196.6482,185.0293 Q1197.2791,185.0293 1197.8726,184.7595 Q1198.4661,184.4897 1199.097,183.9087 Z " fill="#000000"/><text fill="#000000" font-family="sans-serif" font-size="14" lengthAdjust="spacing" textLength="156.4199" x="1214.9491" y="185.7793">FundamentalDataTools</text><line style="stroke:#181818;stroke-width:0.5;" x1="1163.16" x2="1392.8329" y1="196.4883" y2="196.4883"/><text fill="#000000" font-family="sans-serif" font-size="14" lengthAdjust="spacing" textLength="176.0596" x="1168.16" y="214.0234">+get_fundamentals : Tool</text><text fill="#000000" font-family="sans-serif" font-size="14" lengthAdjust="spacing" textLength="178.9238" x="1168.16" y="230.5117">+get_balance_sheet : Tool</text><text fill="#000000" font-family="sans-serif" font-size="14" lengthAdjust="spacing" textLength="142.5908" x="1168.16" y="247">+get_cashflow : Tool</text><text fill="#000000" font-family="sans-serif" font-size="14" lengthAdjust="spacing" textLength="207.5938" x="1168.16" y="263.4883">+get_income_statement : Tool</text><text fill="#000000" font-family="sans-serif" font-size="14" lengthAdjust="spacing" textLength="219.6729" x="1168.16" y="279.9766">+get_insider_transactions : Tool</text><line style="stroke:#181818;stroke-width:0.5;" x1="1163.16" x2="1392.8329" y1="286.9297" y2="286.9297"/></g><!--class NewsDataTools--><g class="entity" data-qualified-name="agents.utils.tools.NewsDataTools" data-source-line="100" id="ent0028"><rect fill="#F1F1F1" height="80.9766" rx="2.5" ry="2.5" style="stroke:#181818;stroke-width:0.5;" width="178.6602" x="1428.67" y="189.2183"/><ellipse cx="1462.6478" cy="205.2183" fill="#ADD1B2" rx="11" ry="11" style="stroke:#181818;stroke-width:1;"/><path d="M1465.1209,211.3613 Q1464.5399,211.6602 1463.9007,211.8096 Q1463.2616,211.959 1462.556,211.959 Q1460.0492,211.959 1458.7293,210.3071 Q1457.4095,208.6553 1457.4095,205.5342 Q1457.4095,202.4048 1458.7293,200.7529 Q1460.0492,199.1011 1462.556,199.1011 Q1463.2616,199.1011 1463.909,199.2505 Q1464.5565,199.3999 1465.1209,199.6987 L1465.1209,202.4214 Q1464.4901,201.8404 1463.8966,201.5706 Q1463.3031,201.3008 1462.6722,201.3008 Q1461.3275,201.3008 1460.6427,202.3675 Q1459.9578,203.4341 1459.9578,205.5342 Q1459.9578,207.626 1460.6427,208.6926 Q1461.3275,209.7593 1462.6722,209.7593 Q1463.3031,209.7593 1463.8966,209.4895 Q1464.4901,209.2197 1465.1209,208.6387 Z " fill="#000000"/><text fill="#000000" font-family="sans-serif" font-size="14" lengthAdjust="spacing" textLength="104.4873" x="1480.8651" y="210.5093">NewsDataTools</text><line style="stroke:#181818;stroke-width:0.5;" x1="1429.67" x2="1606.3302" y1="221.2183" y2="221.2183"/><text fill="#000000" font-family="sans-serif" font-size="14" lengthAdjust="spacing" textLength="117.6943" x="1434.67" y="238.7534">+get_news : Tool</text><text fill="#000000" font-family="sans-serif" font-size="14" lengthAdjust="spacing" textLength="166.6602" x="1434.67" y="255.2417">+get_global_news : Tool</text><line style="stroke:#181818;stroke-width:0.5;" x1="1429.67" x2="1606.3302" y1="262.1948" y2="262.1948"/></g><g class="entity" data-qualified-name="GMN33" data-source-line="112" id="ent0034"><path d="M2203.86,654.4583 L2203.86,725.7005 L2530.1378,725.7005 L2530.1378,664.4583 L2520.1378,654.4583 L2203.86,654.4583" fill="#FEFFDD" style="stroke:#181818;stroke-width:0.5;"/><path d="M2520.1378,654.4583 L2520.1378,664.4583 L2530.1378,664.4583 L2520.1378,654.4583" fill="#FEFFDD" style="stroke:#181818;stroke-width:1;"/><text fill="#000000" font-family="sans-serif" font-size="13" lengthAdjust="spacing" textLength="103.27" x="2209.86" y="672.0266">Routing priority:</text><text fill="#000000" font-family="sans-serif" font-size="13" lengthAdjust="spacing" textLength="305.2778" x="2209.86" y="687.3372">1. tool_vendors[tool_name]  (tool-level override)</text><text fill="#000000" font-family="sans-serif" font-size="13" lengthAdjust="spacing" textLength="286.2285" x="2209.86" y="702.6477">2. data_vendors[category]   (category default)</text><text fill="#000000" font-family="sans-serif" font-size="13" lengthAdjust="spacing" textLength="236.0122" x="2209.86" y="717.9583">3. "yfinance"               (global default)</text></g><!--link DataflowInterface to DataflowConfig--><g class="link" data-entity-1="ent0004" data-entity-2="ent0003" data-link-type="dependency" data-source-line="74" id="lnk14"><path codeLine="74" d="M970.72,548.5483 C970.72,582.2283 970.72,616.2983 970.72,616.2983 C970.72,616.2983 484.3,616.2983 255.88,616.2983" fill="none" id="DataflowInterface-to-DataflowConfig" style="stroke:#181818;stroke-width:1;"/><polygon fill="#181818" points="249.88,616.2983,258.88,620.2983,254.88,616.2983,258.88,612.2983,249.88,616.2983" style="stroke:#181818;stroke-width:1;"/><text fill="#000000" font-family="sans-serif" font-size="13" lengthAdjust="spacing" textLength="34.5503" x="609.17" y="612.8666">reads</text></g><!--link DataflowInterface to YFinanceStock--><g class="link" data-entity-1="ent0004" data-entity-2="ent0006" data-link-type="dependency" data-source-line="75" id="lnk15"><path codeLine="75" d="M966.13,483.2983 C846.39,483.2983 712.96,483.2983 712.96,483.2983 C712.96,483.2983 712.96,582.9583 712.96,643.2283" fill="none" id="DataflowInterface-to-YFinanceStock" style="stroke:#181818;stroke-width:1;stroke-dasharray:7,7;"/><polygon fill="#181818" points="712.96,649.2283,716.96,640.2283,712.96,644.2283,708.96,640.2283,712.96,649.2283" style="stroke:#181818;stroke-width:1;"/><text fill="#000000" font-family="sans-serif" font-size="13" lengthAdjust="spacing" textLength="57.0654" x="698.58" y="479.8666">routes to</text></g><!--link DataflowInterface to YFinanceNews--><g class="link" data-entity-1="ent0004" data-entity-2="ent0007" data-link-type="dependency" data-source-line="76" id="lnk16"><path codeLine="76" d="M979.36,548.6183 C979.36,581.6583 979.36,614.6883 979.36,643.3783" fill="none" id="DataflowInterface-to-YFinanceNews" style="stroke:#181818;stroke-width:1;stroke-dasharray:7,7;"/><polygon fill="#181818" points="979.36,649.3783,983.36,640.3783,979.36,644.3783,975.36,640.3783,979.36,649.3783" style="stroke:#181818;stroke-width:1;"/><text fill="#000000" font-family="sans-serif" font-size="13" lengthAdjust="spacing" textLength="57.0654" x="980.36" y="595.5666">routes to</text></g><!--link DataflowInterface to YFinanceFundamentals--><g class="link" data-entity-1="ent0004" data-entity-2="ent0008" data-link-type="dependency" data-source-line="77" id="lnk17"><path codeLine="77" d="M1152,548.6183 C1152,572.8983 1152,594.4083 1152,618.6783" fill="none" id="DataflowInterface-to-YFinanceFundamentals" style="stroke:#181818;stroke-width:1;stroke-dasharray:7,7;"/><polygon fill="#181818" points="1152,624.6783,1156,615.6783,1152,619.6783,1148,615.6783,1152,624.6783" style="stroke:#181818;stroke-width:1;"/><text fill="#000000" font-family="sans-serif" font-size="13" lengthAdjust="spacing" textLength="57.0654" x="1094" y="583.2166">routes to</text></g><!--link DataflowInterface to AlphaVantageStock--><g class="link" data-entity-1="ent0004" data-entity-2="ent0010" data-link-type="dependency" data-source-line="78" id="lnk18"><path codeLine="78" d="M1302.85,548.6883 C1302.85,609.3783 1302.85,690.2983 1302.85,690.2983 C1302.85,690.2983 1312.67,690.2983 1334.85,690.2983" fill="none" id="DataflowInterface-to-AlphaVantageStock" style="stroke:#181818;stroke-width:1;stroke-dasharray:7,7;"/><polygon fill="#181818" points="1340.85,690.2983,1331.85,686.2983,1335.85,690.2983,1331.85,694.2983,1340.85,690.2983" style="stroke:#181818;stroke-width:1;"/><text fill="#000000" font-family="sans-serif" font-size="13" lengthAdjust="spacing" textLength="57.0654" x="1303.85" y="635.0666">routes to</text></g><!--link DataflowInterface to AlphaVantageNews--><g class="link" data-entity-1="ent0004" data-entity-2="ent0011" data-link-type="dependency" data-source-line="79" id="lnk19"><path codeLine="79" d="M1337.74,515.2983 C1515.25,515.2983 1756,515.2983 1756,515.2983 C1756,515.2983 1756,583.2283 1756,634.9283" fill="none" id="DataflowInterface-to-AlphaVantageNews" style="stroke:#181818;stroke-width:1;stroke-dasharray:7,7;"/><polygon fill="#181818" points="1756,640.9283,1760,631.9283,1756,635.9283,1752,631.9283,1756,640.9283" style="stroke:#181818;stroke-width:1;"/><text fill="#000000" font-family="sans-serif" font-size="13" lengthAdjust="spacing" textLength="57.0654" x="1551.68" y="511.8666">routes to</text></g><!--link DataflowInterface to AlphaVantageFundamentals--><g class="link" data-entity-1="ent0004" data-entity-2="ent0012" data-link-type="dependency" data-source-line="80" id="lnk20"><path codeLine="80" d="M1320.22,548.5683 C1320.22,589.0283 1320.22,633.2983 1320.22,633.2983 C1320.22,633.2983 1685.15,633.2983 1887.28,633.2983" fill="none" id="DataflowInterface-to-AlphaVantageFundamentals" style="stroke:#181818;stroke-width:1;stroke-dasharray:7,7;"/><polygon fill="#181818" points="1893.28,633.2983,1884.28,629.2983,1888.28,633.2983,1884.28,637.2983,1893.28,633.2983" style="stroke:#181818;stroke-width:1;"/><text fill="#000000" font-family="sans-serif" font-size="13" lengthAdjust="spacing" textLength="57.0654" x="1506.39" y="629.8666">routes to</text></g><!--link DataflowInterface to ToolCategory--><g class="link" data-entity-1="ent0004" data-entity-2="ent0013" data-link-type="dependency" data-source-line="81" id="lnk21"><path codeLine="81" d="M975.04,548.4683 C975.04,591.2583 975.04,639.2983 975.04,639.2983 C975.04,639.2983 601.6,639.2983 437.82,639.2983" fill="none" id="DataflowInterface-to-ToolCategory" style="stroke:#181818;stroke-width:1;"/><polygon fill="#181818" points="431.82,639.2983,440.82,643.2983,436.82,639.2983,440.82,635.2983,431.82,639.2983" style="stroke:#181818;stroke-width:1;"/><text fill="#000000" font-family="sans-serif" font-size="13" lengthAdjust="spacing" textLength="80.8247" x="667.84" y="635.8666">organizes by</text></g><!--link CoreStockTools to DataflowInterface--><g class="link" data-entity-1="ent0023" data-entity-2="ent0004" data-link-type="dependency" data-source-line="105" id="lnk29"><path codeLine="105" d="M892.27,266.2983 C954.03,266.2983 1020.04,266.2983 1020.04,266.2983 C1020.04,266.2983 1020.04,347.6683 1020.04,411.4983" fill="none" id="CoreStockTools-to-DataflowInterface" style="stroke:#181818;stroke-width:1;"/><polygon fill="#181818" points="1020.04,417.4983,1024.04,408.4983,1020.04,412.4983,1016.04,408.4983,1020.04,417.4983" style="stroke:#181818;stroke-width:1;"/><text fill="#000000" font-family="sans-serif" font-size="13" lengthAdjust="spacing" textLength="27.9805" x="992.04" y="291.5766">calls</text></g><!--link TechnicalIndicatorsTools to DataflowInterface--><g class="link" data-entity-1="ent0026" data-entity-2="ent0004" data-link-type="dependency" data-source-line="106" id="lnk30"><path codeLine="106" d="M1073.67,262.3183 C1073.67,301.3583 1073.67,361.6983 1073.67,411.4983" fill="none" id="TechnicalIndicatorsTools-to-DataflowInterface" style="stroke:#181818;stroke-width:1;"/><polygon fill="#181818" points="1073.67,417.4983,1077.67,408.4983,1073.67,412.4983,1069.67,408.4983,1073.67,417.4983" style="stroke:#181818;stroke-width:1;"/><text fill="#000000" font-family="sans-serif" font-size="13" lengthAdjust="spacing" textLength="27.9805" x="1045.67" y="336.4766">calls</text></g><!--link FundamentalDataTools to DataflowInterface--><g class="link" data-entity-1="ent0027" data-entity-2="ent0004" data-link-type="dependency" data-source-line="107" id="lnk31"><path codeLine="107" d="M1249.88,295.3083 C1249.88,332.9983 1249.88,374.1783 1249.88,411.8283" fill="none" id="FundamentalDataTools-to-DataflowInterface" style="stroke:#181818;stroke-width:1;"/><polygon fill="#181818" points="1249.88,417.8283,1253.88,408.8283,1249.88,412.8283,1245.88,408.8283,1249.88,417.8283" style="stroke:#181818;stroke-width:1;"/><text fill="#000000" font-family="sans-serif" font-size="13" lengthAdjust="spacing" textLength="27.9805" x="1221.88" y="353.1366">calls</text></g><!--link NewsDataTools to DataflowInterface--><g class="link" data-entity-1="ent0028" data-entity-2="ent0004" data-link-type="dependency" data-source-line="108" id="lnk32"><path codeLine="108" d="M1518,270.6783 C1518,334.4783 1518,450.2983 1518,450.2983 C1518,450.2983 1434.46,450.2983 1343.95,450.2983" fill="none" id="NewsDataTools-to-DataflowInterface" style="stroke:#181818;stroke-width:1;"/><polygon fill="#181818" points="1337.95,450.2983,1346.95,454.2983,1342.95,450.2983,1346.95,446.2983,1337.95,450.2983" style="stroke:#181818;stroke-width:1;"/><text fill="#000000" font-family="sans-serif" font-size="13" lengthAdjust="spacing" textLength="27.9805" x="1489.78" y="446.8666">calls</text></g><!--link DataflowInterface to GMN33--><g class="link" data-entity-1="ent0004" data-entity-2="ent0034" data-link-type="association" data-source-line="112" id="lnk35"><path d="M1337.85,483.2983 C1678.21,483.2983 2367,483.2983 2367,483.2983 C2367,483.2983 2367,594.8183 2367,654.0583" fill="none" id="DataflowInterface-GMN33" style="stroke:#181818;stroke-width:1;stroke-dasharray:7,7;"/></g><?plantuml-src rLTjInj14FwUNp7ueOrKGr--1Gc4gAtG6j1KA1AEpTtUPSbcD-nkbBG8_WX_eR-aixltVXUZq8A6O69cPkUPcMVcPWqpdC94aOY9P9XGOJGytZ_0CJ4avl9M7y14IWuNScrG0zx15HMHL32SQQD8Q9WKdOvUCB4YYYmXv4JheJ6ApTQ6deLINBBV53wML3WJr6nM5AGoSzdfh4Yu80c5lIZpkGT_EXtmP-L8HbB4B449uEi3X5BHG1iPBWAoOXhwW7XIcQ7XNB2Gy82923-DL5M5U2qYiiHWKSLwhGW5lTNDNmrc8RXniTkpy5XpZT83gp9DTH9gWj31xEwdEgb45nB_uQLMwrmAYbftpOZFXA4g9Y7DWxuwEJyUNmG_JYRVniUN5HZ5jn7XdCmudMQm9kFnzyjWD9oSV1rVd9rKxJZJxjkq78IDFWsswm8Nc2sNZGEeuozIP2sTTYmQLlumzuyroZ2cbhCruv6tjNYwM3AQIBNPuj9XjhISPebx3uyFz_uDcvW98Z1htcSXURLl321lWWnzclwzjFQU6RzElV3IyZwLP9dtlM0hrpKiN517JQBC0U11vK9b1aLlv0PeJSkgTos-px4zQgvjnsmz8rDAk9nXkpdTv_WvBNgqxg_KlfdVDe_epcLIpoarJ-Y5HCzjlpsXmaGebtRU873h-4bLpIAg0foEGli1sGRoheswGxwQ4xWY65doclbR9Yonc8CRZxcLjIwgDAWwSt5s1mkwQSdZ_-Pp6LMDqzj1_LEcbn5iOVjs9A-o1rf9xVQ7aP_eZEgtCOzzXIpq5Fa6ZeweM2-f8hQb1uECujKznFtMjdyuGNtlS3_c-qQMlERp__1mKD-3-g0eYNIhUgytg3qgK1iNE4o-aJijN3EynA32tUSODWV2IwsUZN5hZ-qojYclbB-F-sf216wp6cQR3bQgChdjwkof_bFRkVW6M5wCSBVtzt33vxfdjp3j1xXlWX4ot5N9HgVpNRGwep4zLboIMNRuHL8Ak_8N6dT5VsMDSfRtITD9POTl754ggYrYqpokLhs6iZ8Vc-9iB3ObzMdOfj5S1DeYi5nkXouyosldbXulvUFmJwrIvQbH4BiFc6zk1yVMxEyoRCtvBgDgc4zhOpH26WepQOnSWeoRkdXYTYTTAOPF5hFfus-VUfMRsdL-3va2k4l98QStb8EyeKfXUVRHvdCFIXSUVPtTFj04ygi8H3GcQswimPTUiQVlGVNLzUKfrF5GiC5q_W80?></g></svg>