<svg xmlns="http://www.w3.org/2000/svg" xmlns:xlink="http://www.w3.org/1999/xlink" contentStyleType="text/css" data-diagram-type="DESCRIPTION" height="400px" preserveAspectRatio="none" style="width:1559px;height:400px;background:#FFFFFF;" version="1.1" viewBox="0 0 1559 400" width="1559px" zoomAndPan="magnify"><?plantuml 1.2026.3?><defs/><g><g class="title" data-source-line="1"><text fill="#000000" font-family="sans-serif" font-size="14" font-weight="700" lengthAdjust="spacing" textLength="381.6709" x="585.3457" y="23.5352">TradingAgents &#8212; Agent Communication &amp; Data Flow</text></g><!--entity STATE--><g class="entity" data-qualified-name="STATE" data-source-line="9" id="ent0002"><rect fill="#ADD8E6" height="52.9766" rx="2.5" ry="2.5" style="stroke:#181818;stroke-width:0.5;" width="156.6914" x="591.29" y="140.9783"/><text fill="#000000" font-family="sans-serif" font-size="14" lengthAdjust="spacing" textLength="73.6572" x="601.29" y="164.5134">AgentState</text><text fill="#000000" font-family="sans-serif" font-size="14" lengthAdjust="spacing" textLength="136.6914" x="601.29" y="181.0017">(shared graph state)</text></g><!--entity MA--><g class="entity" data-qualified-name="MA" data-source-line="11" id="ent0003"><rect fill="#FFFFE0" height="36.4883" rx="2.5" ry="2.5" style="stroke:#181818;stroke-width:0.5;" width="116.5508" x="384.36" y="44.4883"/><text fill="#000000" font-family="sans-serif" font-size="14" lengthAdjust="spacing" textLength="96.5508" x="394.36" y="68.0234">MarketAnalyst</text></g><!--entity NA--><g class="entity" data-qualified-name="NA" data-source-line="12" id="ent0004"><rect fill="#FFFFE0" height="36.4883" rx="2.5" ry="2.5" style="stroke:#181818;stroke-width:0.5;" width="105.8799" x="535.7" y="44.4883"/><text fill="#000000" font-family="sans-serif" font-size="14" lengthAdjust="spacing" textLength="85.8799" x="545.7" y="68.0234">NewsAnalyst</text></g><!--entity SA--><g class="entity" data-qualified-name="SA" data-source-line="13" id="ent0005"><rect fill="#FFFFE0" height="36.4883" rx="2.5" ry="2.5" style="stroke:#181818;stroke-width:0.5;" width="149.3975" x="676.94" y="44.4883"/><text fill="#000000" font-family="sans-serif" font-size="14" lengthAdjust="spacing" textLength="129.3975" x="686.94" y="68.0234">SocialMediaAnalyst</text></g><!--entity FA--><g class="entity" data-qualified-name="FA" data-source-line="14" id="ent0006"><rect fill="#FFFFE0" height="36.4883" rx="2.5" ry="2.5" style="stroke:#181818;stroke-width:0.5;" width="164.9492" x="861.16" y="44.4883"/><text fill="#000000" font-family="sans-serif" font-size="14" lengthAdjust="spacing" textLength="144.9492" x="871.16" y="68.0234">FundamentalsAnalyst</text></g><!--entity BULL--><g class="entity" data-qualified-name="BULL" data-source-line="16" id="ent0007"><rect fill="#90EE90" height="36.4883" rx="2.5" ry="2.5" style="stroke:#181818;stroke-width:0.5;" width="119.2715" x="7" y="253.9483"/><text fill="#000000" font-family="sans-serif" font-size="14" lengthAdjust="spacing" textLength="99.2715" x="17" y="277.4834">BullResearcher</text></g><!--entity BEAR--><g class="entity" data-qualified-name="BEAR" data-source-line="17" id="ent0008"><rect fill="#90EE90" height="36.4883" rx="2.5" ry="2.5" style="stroke:#181818;stroke-width:0.5;" width="123.749" x="161.76" y="253.9483"/><text fill="#000000" font-family="sans-serif" font-size="14" lengthAdjust="spacing" textLength="103.749" x="171.76" y="277.4834">BearResearcher</text></g><!--entity RM--><g class="entity" data-qualified-name="RM" data-source-line="18" id="ent0009"><rect fill="#90EE90" height="36.4883" rx="2.5" ry="2.5" style="stroke:#181818;stroke-width:0.5;" width="139.376" x="320.95" y="253.9483"/><text fill="#000000" font-family="sans-serif" font-size="14" lengthAdjust="spacing" textLength="119.376" x="330.95" y="277.4834">ResearchManager</text></g><!--entity TR--><g class="entity" data-qualified-name="TR" data-source-line="20" id="ent0010"><rect fill="#F08080" height="36.4883" rx="2.5" ry="2.5" style="stroke:#181818;stroke-width:0.5;" width="64.6523" x="495.31" y="253.9483"/><text fill="#000000" font-family="sans-serif" font-size="14" lengthAdjust="spacing" textLength="44.6523" x="505.31" y="277.4834">Trader</text></g><!--entity AGG--><g class="entity" data-qualified-name="AGG" data-source-line="22" id="ent0011"><rect fill="#E6E6FA" height="36.4883" rx="2.5" ry="2.5" style="stroke:#181818;stroke-width:0.5;" width="148.4063" x="595.43" y="253.9483"/><text fill="#000000" font-family="sans-serif" font-size="14" lengthAdjust="spacing" textLength="128.4063" x="605.43" y="277.4834">AggressiveDebator</text></g><!--entity CON--><g class="entity" data-qualified-name="CON" data-source-line="23" id="ent0012"><rect fill="#E6E6FA" height="36.4883" rx="2.5" ry="2.5" style="stroke:#181818;stroke-width:0.5;" width="161.3398" x="778.97" y="253.9483"/><text fill="#000000" font-family="sans-serif" font-size="14" lengthAdjust="spacing" textLength="141.3398" x="788.97" y="277.4834">ConservativeDebator</text></g><!--entity NEU--><g class="entity" data-qualified-name="NEU" data-source-line="24" id="ent0013"><rect fill="#E6E6FA" height="36.4883" rx="2.5" ry="2.5" style="stroke:#181818;stroke-width:0.5;" width="123.9678" x="975.65" y="253.9483"/><text fill="#000000" font-family="sans-serif" font-size="14" lengthAdjust="spacing" textLength="103.9678" x="985.65" y="277.4834">NeutralDebator</text></g><!--entity PM--><g class="entity" data-qualified-name="PM" data-source-line="25" id="ent0014"><rect fill="#E6E6FA" height="36.4883" rx="2.5" ry="2.5" style="stroke:#181818;stroke-width:0.5;" width="136.2109" x="1134.53" y="253.9483"/><text fill="#000000" font-family="sans-serif" font-size="14" lengthAdjust="spacing" textLength="116.2109" x="1144.53" y="277.4834">PortfolioManager</text></g><!--entity SIG--><g class="entity" data-qualified-name="SIG" data-source-line="27" id="ent0015"><rect fill="#D3D3D3" height="36.4883" rx="2.5" ry="2.5" style="stroke:#181818;stroke-width:0.5;" width="126.4219" x="1305.42" y="253.9483"/><text fill="#000000" font-family="sans-serif" font-size="14" lengthAdjust="spacing" textLength="106.4219" x="1315.42" y="277.4834">SignalProcessor</text></g><!--entity MEM--><g class="entity" data-qualified-name="MEM" data-source-line="28" id="ent0016"><rect fill="#F5DEB3" height="36.4883" rx="2.5" ry="2.5" style="stroke:#181818;stroke-width:0.5;" width="151.9541" x="1350.66" y="350.4383"/><text fill="#000000" font-family="sans-serif" font-size="14" lengthAdjust="spacing" textLength="131.9541" x="1360.66" y="373.9734">TradingMemoryLog</text></g><!--link MA to STATE--><g class="link" data-entity-1="ent0003" data-entity-2="ent0002" data-link-type="dependency" data-source-line="31" id="lnk17"><path d="M477.82,81.1983 C477.82,105.7083 477.82,145.9283 477.82,145.9283 C477.82,145.9283 532.09,145.9283 585.06,145.9283" fill="none" id="MA-to-STATE" style="stroke:#181818;stroke-width:1;"/><polygon fill="#181818" points="591.06,145.9283,582.06,141.9283,586.06,145.9283,582.06,149.9283,591.06,145.9283" style="stroke:#181818;stroke-width:1;"/><text fill="#000000" font-family="sans-serif" font-size="13" lengthAdjust="spacing" textLength="131.6885" x="370.07" y="142.4966">writes market_report</text></g><!--link NA to STATE--><g class="link" data-entity-1="ent0004" data-entity-2="ent0002" data-link-type="dependency" data-source-line="32" id="lnk18"><path d="M616.43,81.4583 C616.43,97.9283 616.43,116.1083 616.43,134.6383" fill="none" id="NA-to-STATE" style="stroke:#181818;stroke-width:1;"/><polygon fill="#181818" points="616.43,140.6383,620.43,131.6383,616.43,135.6383,612.43,131.6383,616.43,140.6383" style="stroke:#181818;stroke-width:1;"/><text fill="#000000" font-family="sans-serif" font-size="13" lengthAdjust="spacing" textLength="119.3042" x="496.43" y="107.6166">writes news_report</text></g><!--link SA to STATE--><g class="link" data-entity-1="ent0005" data-entity-2="ent0002" data-link-type="dependency" data-source-line="33" id="lnk19"><path d="M712.46,81.4583 C712.46,97.9283 712.46,116.1083 712.46,134.6383" fill="none" id="SA-to-STATE" style="stroke:#181818;stroke-width:1;"/><polygon fill="#181818" points="712.46,140.6383,716.46,131.6383,712.46,135.6383,708.46,131.6383,712.46,140.6383" style="stroke:#181818;stroke-width:1;"/><text fill="#000000" font-family="sans-serif" font-size="13" lengthAdjust="spacing" textLength="150.2173" x="561.46" y="124.6166">writes sentiment_report</text></g><!--link FA to STATE--><g class="link" data-entity-1="ent0006" data-entity-2="ent0002" data-link-type="dependency" data-source-line="34" id="lnk20"><path d="M900.73,81.1983 C900.73,105.7083 900.73,145.9283 900.73,145.9283 C900.73,145.9283 821.19,145.9283 754.2,145.9283" fill="none" id="FA-to-STATE" style="stroke:#181818;stroke-width:1;"/><polygon fill="#181818" points="748.2,145.9283,757.2,149.9283,753.2,145.9283,757.2,141.9283,748.2,145.9283" style="stroke:#181818;stroke-width:1;"/><text fill="#000000" font-family="sans-serif" font-size="13" lengthAdjust="spacing" textLength="173.5005" x="682.83" y="142.4966">writes fundamentals_report</text></g><!--link STATE to BULL--><g class="link" data-entity-1="ent0002" data-entity-2="ent0007" data-link-type="dependency" data-source-line="37" id="lnk21"><path d="M591.06,151.9283 C423.61,151.9283 46.76,151.9283 46.76,151.9283 C46.76,151.9283 46.76,213.9283 46.76,247.6683" fill="none" id="STATE-to-BULL" style="stroke:#181818;stroke-width:1;"/><polygon fill="#181818" points="46.76,253.6683,50.76,244.6683,46.76,248.6683,42.76,244.6683,46.76,253.6683" style="stroke:#181818;stroke-width:1;"/><text fill="#000000" font-family="sans-serif" font-size="13" lengthAdjust="spacing" textLength="128.4131" x="137.6142" y="87.4966">reads market_report</text><text fill="#000000" font-family="sans-serif" font-size="13" lengthAdjust="spacing" textLength="77.3652" x="163.1381" y="102.8072">news_report</text><text fill="#000000" font-family="sans-serif" font-size="13" lengthAdjust="spacing" textLength="108.2783" x="147.6816" y="118.1177">sentiment_report</text><text fill="#000000" font-family="sans-serif" font-size="13" lengthAdjust="spacing" textLength="131.5615" x="136.04" y="133.4283">fundamentals_report</text><text fill="#000000" font-family="sans-serif" font-size="13" lengthAdjust="spacing" textLength="77.835" x="162.9033" y="148.7388">bear_history</text></g><!--link BULL to STATE--><g class="link" data-entity-1="ent0007" data-entity-2="ent0002" data-link-type="dependency" data-source-line="41" id="lnk23"><path d="M86.51,253.6783 C86.51,221.0883 86.51,156.9283 86.51,156.9283 C86.51,156.9283 425.83,156.9283 584.99,156.9283" fill="none" id="BULL-to-STATE" style="stroke:#181818;stroke-width:1;"/><polygon fill="#181818" points="590.99,156.9283,581.99,152.9283,585.99,156.9283,581.99,160.9283,590.99,156.9283" style="stroke:#181818;stroke-width:1;"/><text fill="#000000" font-family="sans-serif" font-size="13" lengthAdjust="spacing" textLength="128.1338" x="291.38" y="138.4966">updates bull_history</text><text fill="#000000" font-family="sans-serif" font-size="13" lengthAdjust="spacing" textLength="56.3101" x="327.2919" y="153.8072">count++</text></g><!--link STATE to BEAR--><g class="link" data-entity-1="ent0002" data-entity-2="ent0008" data-link-type="dependency" data-source-line="38" id="lnk22"><path d="M591.12,167.9283 C468.21,167.9283 244.26,167.9283 244.26,167.9283 C244.26,167.9283 244.26,217.5683 244.26,247.5583" fill="none" id="STATE-to-BEAR" style="stroke:#181818;stroke-width:1;"/><polygon fill="#181818" points="244.26,253.5583,248.26,244.5583,244.26,248.5583,240.26,244.5583,244.26,253.5583" style="stroke:#181818;stroke-width:1;"/><text fill="#000000" font-family="sans-serif" font-size="13" lengthAdjust="spacing" textLength="128.4131" x="244.4542" y="181.4966">reads market_report</text><text fill="#000000" font-family="sans-serif" font-size="13" lengthAdjust="spacing" textLength="77.3652" x="269.9781" y="196.8072">news_report</text><text fill="#000000" font-family="sans-serif" font-size="13" lengthAdjust="spacing" textLength="108.2783" x="254.5216" y="212.1177">sentiment_report</text><text fill="#000000" font-family="sans-serif" font-size="13" lengthAdjust="spacing" textLength="131.5615" x="242.88" y="227.4283">fundamentals_report</text><text fill="#000000" font-family="sans-serif" font-size="13" lengthAdjust="spacing" textLength="73.6772" x="271.8221" y="242.7388">bull_history</text></g><!--link BEAR to STATE--><g class="link" data-entity-1="ent0008" data-entity-2="ent0002" data-link-type="dependency" data-source-line="42" id="lnk24"><path d="M203.01,253.4883 C203.01,222.0283 203.01,161.9283 203.01,161.9283 C203.01,161.9283 452.02,161.9283 585.01,161.9283" fill="none" id="BEAR-to-STATE" style="stroke:#181818;stroke-width:1;"/><polygon fill="#181818" points="591.01,161.9283,582.01,157.9283,586.01,161.9283,582.01,165.9283,591.01,161.9283" style="stroke:#181818;stroke-width:1;"/><text fill="#000000" font-family="sans-serif" font-size="13" lengthAdjust="spacing" textLength="132.2915" x="318.73" y="175.4966">updates bear_history</text><text fill="#000000" font-family="sans-serif" font-size="13" lengthAdjust="spacing" textLength="56.3101" x="356.7207" y="190.8072">count++</text></g><!--link STATE to RM--><g class="link" data-entity-1="ent0002" data-entity-2="ent0009" data-link-type="dependency" data-source-line="45" id="lnk25"><path d="M590.85,177.9283 C522.69,177.9283 435,177.9283 435,177.9283 C435,177.9283 435,220.0983 435,247.5683" fill="none" id="STATE-to-RM" style="stroke:#181818;stroke-width:1;"/><polygon fill="#181818" points="435,253.5683,439,244.5683,435,248.5683,431,244.5683,435,253.5683" style="stroke:#181818;stroke-width:1;"/><text fill="#000000" font-family="sans-serif" font-size="13" lengthAdjust="spacing" textLength="106.0313" x="422.3583" y="191.4966">reads full debate</text><text fill="#000000" font-family="sans-serif" font-size="13" lengthAdjust="spacing" textLength="178.5278" x="386.11" y="206.8072">(bull_history + bear_history)</text><text fill="#000000" font-family="sans-serif" font-size="13" lengthAdjust="spacing" textLength="112.9248" x="418.9115" y="222.1177">all analyst reports</text></g><!--link RM to STATE--><g class="link" data-entity-1="ent0009" data-entity-2="ent0002" data-link-type="dependency" data-source-line="46" id="lnk26"><path d="M409.68,253.5283 C409.68,224.7683 409.68,172.9283 409.68,172.9283 C409.68,172.9283 508.42,172.9283 584.94,172.9283" fill="none" id="RM-to-STATE" style="stroke:#181818;stroke-width:1;"/><polygon fill="#181818" points="590.94,172.9283,581.94,168.9283,585.94,172.9283,581.94,176.9283,590.94,172.9283" style="stroke:#181818;stroke-width:1;"/><text fill="#000000" font-family="sans-serif" font-size="13" lengthAdjust="spacing" textLength="145.2217" x="464.4568" y="154.4966">writes investment_plan</text><text fill="#000000" font-family="sans-serif" font-size="13" lengthAdjust="spacing" textLength="152.1152" x="461.01" y="169.8072">(ResearchPlan rendered)</text></g><!--link STATE to TR--><g class="link" data-entity-1="ent0002" data-entity-2="ent0010" data-link-type="dependency" data-source-line="49" id="lnk27"><path d="M591,182.9283 C565.57,182.9283 543.78,182.9283 543.78,182.9283 C543.78,182.9283 543.78,221.5483 543.78,247.6983" fill="none" id="STATE-to-TR" style="stroke:#181818;stroke-width:1;"/><polygon fill="#181818" points="543.78,253.6983,547.78,244.6983,543.78,248.6983,539.78,244.6983,543.78,253.6983" style="stroke:#181818;stroke-width:1;"/><text fill="#000000" font-family="sans-serif" font-size="13" lengthAdjust="spacing" textLength="141.9463" x="544.78" y="208.2766">reads investment_plan</text><text fill="#000000" font-family="sans-serif" font-size="13" lengthAdjust="spacing" textLength="112.9248" x="559.2907" y="223.5872">all analyst reports</text></g><!--link TR to STATE--><g class="link" data-entity-1="ent0010" data-entity-2="ent0002" data-link-type="dependency" data-source-line="50" id="lnk28"><path d="M551.87,253.7183 C551.87,229.1883 551.87,188.9283 551.87,188.9283 C551.87,188.9283 563.48,188.9283 585.09,188.9283" fill="none" id="TR-to-STATE" style="stroke:#181818;stroke-width:1;"/><polygon fill="#181818" points="591.09,188.9283,582.09,184.9283,586.09,188.9283,582.09,192.9283,591.09,188.9283" style="stroke:#181818;stroke-width:1;"/><text fill="#000000" font-family="sans-serif" font-size="13" lengthAdjust="spacing" textLength="189.8267" x="409.62" y="215.2866">writes trader_investment_plan</text><text fill="#000000" font-family="sans-serif" font-size="13" lengthAdjust="spacing" textLength="165.0518" x="422.0075" y="230.5972">(TraderProposal rendered)</text></g><!--link STATE to AGG--><g class="link" data-entity-1="ent0002" data-entity-2="ent0011" data-link-type="dependency" data-source-line="53" id="lnk29"><path d="M694.37,194.4383 C694.37,212.9783 694.37,231.1383 694.37,247.5683" fill="none" id="STATE-to-AGG" style="stroke:#181818;stroke-width:1;"/><polygon fill="#181818" points="694.37,253.5683,698.37,244.5683,694.37,248.5683,690.37,244.5683,694.37,253.5683" style="stroke:#181818;stroke-width:1;"/><text fill="#000000" font-family="sans-serif" font-size="13" lengthAdjust="spacing" textLength="186.5513" x="695.37" y="205.5666">reads trader_investment_plan</text><text fill="#000000" font-family="sans-serif" font-size="13" lengthAdjust="spacing" textLength="116.8477" x="730.2218" y="220.8772">aggressive_history</text></g><!--link AGG to STATE--><g class="link" data-entity-1="ent0011" data-entity-2="ent0002" data-link-type="dependency" data-source-line="57" id="lnk32"><path d="M644.9,253.4683 C644.9,236.9983 644.9,218.8183 644.9,200.2883" fill="none" id="AGG-to-STATE" style="stroke:#181818;stroke-width:1;"/><polygon fill="#181818" points="644.9,194.2883,640.9,203.2883,644.9,199.2883,648.9,203.2883,644.9,194.2883" style="stroke:#181818;stroke-width:1;"/><text fill="#000000" font-family="sans-serif" font-size="13" lengthAdjust="spacing" textLength="171.3042" x="645.9" y="237.4466">updates aggressive_history</text></g><!--link STATE to CON--><g class="link" data-entity-1="ent0002" data-entity-2="ent0012" data-link-type="dependency" data-source-line="54" id="lnk30"><path d="M748.17,188.9283 C773.3,188.9283 794.76,188.9283 794.76,188.9283 C794.76,188.9283 794.76,223.1883 794.76,247.7183" fill="none" id="STATE-to-CON" style="stroke:#181818;stroke-width:1;"/><polygon fill="#181818" points="794.76,253.7183,798.76,244.7183,794.76,248.7183,790.76,244.7183,794.76,253.7183" style="stroke:#181818;stroke-width:1;"/><text fill="#000000" font-family="sans-serif" font-size="13" lengthAdjust="spacing" textLength="186.5513" x="795.76" y="164.5966">reads trader_investment_plan</text><text fill="#000000" font-family="sans-serif" font-size="13" lengthAdjust="spacing" textLength="116.8477" x="830.6118" y="179.9072">aggressive_history</text><text fill="#000000" font-family="sans-serif" font-size="13" lengthAdjust="spacing" textLength="128.3115" x="824.8799" y="195.2177">conservative_history</text></g><!--link CON to STATE--><g class="link" data-entity-1="ent0012" data-entity-2="ent0002" data-link-type="dependency" data-source-line="58" id="lnk33"><path d="M810.54,253.6983 C810.54,227.5483 810.54,182.9283 810.54,182.9283 C810.54,182.9283 786.61,182.9283 754.33,182.9283" fill="none" id="CON-to-STATE" style="stroke:#181818;stroke-width:1;"/><polygon fill="#181818" points="748.33,182.9283,757.33,186.9283,753.33,182.9283,757.33,178.9283,748.33,182.9283" style="stroke:#181818;stroke-width:1;"/><text fill="#000000" font-family="sans-serif" font-size="13" lengthAdjust="spacing" textLength="182.7681" x="627.54" y="183.7766">updates conservative_history</text></g><!--link STATE to NEU--><g class="link" data-entity-1="ent0002" data-entity-2="ent0013" data-link-type="dependency" data-source-line="55" id="lnk31"><path d="M748.41,172.9283 C848.75,172.9283 1009.29,172.9283 1009.29,172.9283 C1009.29,172.9283 1009.29,218.7683 1009.29,247.5283" fill="none" id="STATE-to-NEU" style="stroke:#181818;stroke-width:1;"/><polygon fill="#181818" points="1009.29,253.5283,1013.29,244.5283,1009.29,248.5283,1005.29,244.5283,1009.29,253.5283" style="stroke:#181818;stroke-width:1;"/><text fill="#000000" font-family="sans-serif" font-size="13" lengthAdjust="spacing" textLength="186.5513" x="920.15" y="154.4966">reads trader_investment_plan</text><text fill="#000000" font-family="sans-serif" font-size="13" lengthAdjust="spacing" textLength="114.7974" x="956.027" y="169.8072">agg+con histories</text></g><!--link NEU to STATE--><g class="link" data-entity-1="ent0013" data-entity-2="ent0002" data-link-type="dependency" data-source-line="59" id="lnk34"><path d="M992.47,253.5683 C992.47,226.0983 992.47,177.9283 992.47,177.9283 C992.47,177.9283 849.76,177.9283 754.2,177.9283" fill="none" id="NEU-to-STATE" style="stroke:#181818;stroke-width:1;"/><polygon fill="#181818" points="748.2,177.9283,757.2,181.9283,753.2,177.9283,757.2,173.9283,748.2,177.9283" style="stroke:#181818;stroke-width:1;"/><text fill="#000000" font-family="sans-serif" font-size="13" lengthAdjust="spacing" textLength="148.8652" x="909.16" y="191.4966">updates neutral_history</text><text fill="#000000" font-family="sans-serif" font-size="13" lengthAdjust="spacing" textLength="56.3101" x="955.4376" y="206.8072">count++</text></g><!--link STATE to PM--><g class="link" data-entity-1="ent0002" data-entity-2="ent0014" data-link-type="dependency" data-source-line="62" id="lnk35"><path d="M748.37,161.9283 C901.67,161.9283 1225.34,161.9283 1225.34,161.9283 C1225.34,161.9283 1225.34,216.0283 1225.34,247.4883" fill="none" id="STATE-to-PM" style="stroke:#181818;stroke-width:1;"/><polygon fill="#181818" points="1225.34,253.4883,1229.34,244.4883,1225.34,248.4883,1221.34,244.4883,1225.34,253.4883" style="stroke:#181818;stroke-width:1;"/><text fill="#000000" font-family="sans-serif" font-size="13" lengthAdjust="spacing" textLength="173.1069" x="1033.63" y="175.4966">reads full risk_debate_state</text><text fill="#000000" font-family="sans-serif" font-size="13" lengthAdjust="spacing" textLength="147.8877" x="1046.2396" y="190.8072">trader_investment_plan</text><text fill="#000000" font-family="sans-serif" font-size="13" lengthAdjust="spacing" textLength="103.2827" x="1068.5421" y="206.1177">investment_plan</text></g><!--link PM to STATE--><g class="link" data-entity-1="ent0014" data-entity-2="ent0002" data-link-type="dependency" data-source-line="63" id="lnk36"><path d="M1179.93,253.5583 C1179.93,223.5683 1179.93,167.9283 1179.93,167.9283 C1179.93,167.9283 897.39,167.9283 754.25,167.9283" fill="none" id="PM-to-STATE" style="stroke:#181818;stroke-width:1;"/><polygon fill="#181818" points="748.25,167.9283,757.25,171.9283,753.25,167.9283,757.25,163.9283,748.25,167.9283" style="stroke:#181818;stroke-width:1;"/><text fill="#000000" font-family="sans-serif" font-size="13" lengthAdjust="spacing" textLength="167.5464" x="1012.547" y="149.4966">writes final_trade_decision</text><text fill="#000000" font-family="sans-serif" font-size="13" lengthAdjust="spacing" textLength="176.8203" x="1007.91" y="164.8072">(PortfolioDecision rendered)</text></g><!--link STATE to SIG--><g class="link" data-entity-1="ent0002" data-entity-2="ent0015" data-link-type="dependency" data-source-line="66" id="lnk37"><path d="M748.46,156.9283 C931.27,156.9283 1368.64,156.9283 1368.64,156.9283 C1368.64,156.9283 1368.64,215.0883 1368.64,247.6783" fill="none" id="STATE-to-SIG" style="stroke:#181818;stroke-width:1;"/><polygon fill="#181818" points="1368.64,253.6783,1372.64,244.6783,1368.64,248.6783,1364.64,244.6783,1368.64,253.6783" style="stroke:#181818;stroke-width:1;"/><text fill="#000000" font-family="sans-serif" font-size="13" lengthAdjust="spacing" textLength="164.271" x="1107.92" y="153.4966">reads final_trade_decision</text></g><!--link SIG to MEM--><g class="link" data-entity-1="ent0015" data-entity-2="ent0016" data-link-type="dependency" data-source-line="67" id="lnk38"><path d="M1391.25,290.7983 C1391.25,307.8883 1391.25,327.0683 1391.25,344.1383" fill="none" id="SIG-to-MEM" style="stroke:#181818;stroke-width:1;"/><polygon fill="#181818" points="1391.25,350.1383,1395.25,341.1383,1391.25,345.1383,1387.25,341.1383,1391.25,350.1383" style="stroke:#181818;stroke-width:1;"/><text fill="#000000" font-family="sans-serif" font-size="13" lengthAdjust="spacing" textLength="151.1123" x="1392.25" y="302.0366">stores signal + decision</text><text fill="#000000" font-family="sans-serif" font-size="13" lengthAdjust="spacing" textLength="110.6333" x="1412.4895" y="317.3472">as PENDING entry</text></g><!--link MEM to STATE--><g class="link" data-entity-1="ent0016" data-entity-2="ent0002" data-link-type="dependency" data-source-line="70" id="lnk39"><path d="M1467.23,350.2083 C1467.23,297.7883 1467.23,151.9283 1467.23,151.9283 C1467.23,151.9283 955.52,151.9283 754.29,151.9283" fill="none" id="MEM-to-STATE" style="stroke:#181818;stroke-width:1;"/><polygon fill="#181818" points="748.29,151.9283,757.29,155.9283,753.29,151.9283,757.29,147.9283,748.29,151.9283" style="stroke:#181818;stroke-width:1;"/><text fill="#000000" font-family="sans-serif" font-size="13" lengthAdjust="spacing" textLength="126.2866" x="1208.0682" y="165.4966">injects past_context</text><text fill="#000000" font-family="sans-serif" font-size="13" lengthAdjust="spacing" textLength="126.623" x="1207.9" y="180.8072">into new AgentState</text><text fill="#000000" font-family="sans-serif" font-size="13" lengthAdjust="spacing" textLength="99.5376" x="1221.4427" y="196.1177">(via Propagator)</text></g><?plantuml-src rLV1YYCt4BthAueD96E6tTpd4F3Cs6PXx1ZRImWOZAQxtAsCB3MIRCUtFUK3mdpXVCcMMcrRtIkp6mZ93FZGxdvLKhsgUYevuIJ2ml1SgA9Ve78MNZu_G_q8TtgpsIgHSIUqWX_XdZiEGwdtZDadeIfk-0OolQcq8lZS7SYNmSnnLKYC858eT8SAGHjNQiP-WaKfBEI25_wpBVNUmhuKMGayx24xhOpqWJl8_T9Eqn-z-K0E-iPu8yaVKM8EU-5AS2K6NCMjfPS_asTkwC4wxsSjKEOMjXLXCF_0s6chyAwET-vXItNLMD7UgZBOzju1jp1Vz1S3-E515AMxbLjiUHXpyuIkhxWyM5V3n_q6-pjApra4dk3Unj39PUXSPuBBCH9PiSNyiiLmgtA-eNYuR2qox9Z4DhTRAMTeaPkiH5F3RpyzF3G68uEeMd02Tk63_kmI_0WTSqNv3VZPk8MEuRuS6zJYwFDE6ouxAIiCMYjsU8-FtEbWq1-Do8BlK96B67wdbKMper9k6zpzEaaRJ73hQCqOEnbyIcEdLDXhBOME8voE8t0hfQAWj4oDpcZ_ZUlvnz693txeia7DESQDDeS7NOJQ6f3ptqhapdVJo_Fdy8Cct_3orzzGb_FvsvluCMgQz-z_QLhj1lP6EBImgPjhPR0YejaaYL7KKqV4F8cmr1F2DyOHDap2rb7_794jaXjYYU9p3zWtG3GBWVgGw-Q-8R7cUOVTfOg8NAekPqkLe6Uf7ec65MawTSeXNiQBmh-v3CdKQPbMJiwPeCGyDocwodtp8ZGMlVywHwocEIwnSFXOY0DPganlbRk-PZLTINX4xnd-ZQ9ij0XUToNIEN0ia3MH0Y5bT0h75C5rYuBUacHE0c_4BbI7PUGgqSv2xT2wkhOgoHLvFX8qfRzaxFKPyzubEiDfzCPqjCtnujo4Nx6H8d8nIn7fQY9MN_CP6ABphDAMosypEXFs2PfpzNNhPiIX7ooE95vYWfz6aeGM-a7ZdplmtNuUN19k_Kpo7MwloKsZWm8jOpwSbD8aGl0RJq6J6_FRIO5LcAQ-MyIw4zKhLx5fHyKCbVWgIDdAXcl5fUHqNh1fKiNMWdfqLViWlvcmT2EZrZlHTD-ykzHzGsyFpSn9uoIyJINpO_A9w0Gbp0Cyq0_8D-1hpGz-zS1DXyYPEJ-V3oRt7oSZ8EQxqqGOjaCXagpnmaiLN2dyaqHogthmVq_9WtQH2FK7NHYil_Yw5VMbeutwog8BCurPqBhTxWIFWkgnBm00?></g></svg>