<svg xmlns="http://www.w3.org/2000/svg" xmlns:xlink="http://www.w3.org/1999/xlink" contentStyleType="text/css" data-diagram-type="DESCRIPTION" height="914px" preserveAspectRatio="none" style="width:3224px;height:914px;background:#FFFFFF;" version="1.1" viewBox="0 0 3224 914" width="3224px" zoomAndPan="magnify"><?plantuml 1.2026.3?><defs/><g><g class="title" data-source-line="1"><text fill="#000000" font-family="sans-serif" font-size="14" font-weight="700" lengthAdjust="spacing" textLength="310.4063" x="1453.4518" y="23.5352">TradingAgents &#8212; Deployment Architecture</text></g><!--cluster LOCAL--><g class="cluster" data-qualified-name="LOCAL" data-source-line="9" id="ent0002"><polygon fill="#F0F8FF" points="16,53.4883,26,43.4883,1425,43.4883,1425,879.0183,1415,889.0183,16,889.0183,16,53.4883" style="stroke:#4682B4;stroke-width:1;"/><line style="stroke:#4682B4;stroke-width:1;" x1="1415" x2="1425" y1="53.4883" y2="43.4883"/><line style="stroke:#4682B4;stroke-width:1;" x1="16" x2="1415" y1="53.4883" y2="53.4883"/><line style="stroke:#4682B4;stroke-width:1;" x1="1415" x2="1415" y1="53.4883" y2="889.0183"/><text fill="#000000" font-family="sans-serif" font-size="14" font-weight="700" lengthAdjust="spacing" textLength="199.8828" x="616.5586" y="70.0234">Developer Machine / Server</text></g><!--cluster PYTHON--><g class="cluster" data-qualified-name="LOCAL.PYTHON" data-source-line="11" id="ent0003"><polygon fill="#F0F8FF" points="1093,101.4883,1103,91.4883,1401,91.4883,1401,462.4183,1391,472.4183,1093,472.4183,1093,101.4883" style="stroke:#4682B4;stroke-width:1;"/><line style="stroke:#4682B4;stroke-width:1;" x1="1391" x2="1401" y1="101.4883" y2="91.4883"/><line style="stroke:#4682B4;stroke-width:1;" x1="1093" x2="1391" y1="101.4883" y2="101.4883"/><line style="stroke:#4682B4;stroke-width:1;" x1="1391" x2="1391" y1="101.4883" y2="472.4183"/><text fill="#000000" font-family="sans-serif" font-size="14" font-weight="700" lengthAdjust="spacing" textLength="114.4199" x="1185.79" y="118.0234">Python Runtime</text><text fill="#000000" font-family="sans-serif" font-size="14" font-weight="700" lengthAdjust="spacing" textLength="52.6777" x="1216.6611" y="134.5117">(3.10+)</text></g><!--cluster FS--><g class="cluster" data-qualified-name="LOCAL.FS" data-source-line="18" id="ent0008"><polygon fill="#F0F8FF" points="48,514.4183,58,504.4183,1393,504.4183,1393,847.0183,1383,857.0183,48,857.0183,48,514.4183" style="stroke:#4682B4;stroke-width:1;"/><line style="stroke:#4682B4;stroke-width:1;" x1="1383" x2="1393" y1="514.4183" y2="504.4183"/><line style="stroke:#4682B4;stroke-width:1;" x1="48" x2="1383" y1="514.4183" y2="514.4183"/><line style="stroke:#4682B4;stroke-width:1;" x1="1383" x2="1383" y1="514.4183" y2="857.0183"/><text fill="#000000" font-family="sans-serif" font-size="14" font-weight="700" lengthAdjust="spacing" textLength="118.7266" x="657.1367" y="530.9534">Local Filesystem</text></g><!--cluster RESULTS--><g class="cluster" data-qualified-name="LOCAL.FS.RESULTS" data-source-line="19" id="ent0009"><path d="M80,586.4183 C80,576.4183 192,576.4183 192,576.4183 C192,576.4183 304,576.4183 304,586.4183 L304,687.9083 C304,697.9083 192,697.9083 192,697.9083 C192,697.9083 80,697.9083 80,687.9083 L80,586.4183" fill="#90EE90" style="stroke:#181818;stroke-width:1;"/><path d="M80,586.4183 C80,596.4183 192,596.4183 192,596.4183 C192,596.4183 304,596.4183 304,586.4183" fill="none" style="stroke:#181818;stroke-width:1;"/><text fill="#000000" font-family="sans-serif" font-size="14" font-weight="700" lengthAdjust="spacing" textLength="57.7363" x="163.1318" y="611.9534">results/</text><ellipse cx="174.4136" cy="623.8948" fill="#000000" rx="2.5" ry="2.5"/><text fill="#000000" font-family="sans-serif" font-size="14" font-weight="700" lengthAdjust="spacing" textLength="34.1729" x="180.9136" y="628.4417">.json</text></g><!--cluster MEMLOG--><g class="cluster" data-qualified-name="LOCAL.FS.MEMLOG" data-source-line="22" id="ent0011"><path d="M740,578.4183 C740,568.4183 887.5,568.4183 887.5,568.4183 C887.5,568.4183 1035,568.4183 1035,578.4183 L1035,695.9083 C1035,705.9083 887.5,705.9083 887.5,705.9083 C887.5,705.9083 740,705.9083 740,695.9083 L740,578.4183" fill="#90EE90" style="stroke:#181818;stroke-width:1;"/><path d="M740,578.4183 C740,588.4183 887.5,588.4183 887.5,588.4183 C887.5,588.4183 1035,588.4183 1035,578.4183" fill="none" style="stroke:#181818;stroke-width:1;"/><text fill="#000000" font-family="sans-serif" font-size="14" font-weight="700" lengthAdjust="spacing" textLength="114.8643" x="830.0679" y="603.9534">memory_log.md</text><text fill="#000000" font-family="sans-serif" font-size="14" font-weight="700" lengthAdjust="spacing" textLength="103.626" x="835.687" y="620.4417">(append-only)</text></g><!--cluster CKPT--><g class="cluster" data-qualified-name="LOCAL.FS.CKPT" data-source-line="25" id="ent0013"><path d="M1075,578.4183 C1075,568.4183 1210,568.4183 1210,568.4183 C1210,568.4183 1345,568.4183 1345,578.4183 L1345,695.9083 C1345,705.9083 1210,705.9083 1210,705.9083 C1210,705.9083 1075,705.9083 1075,695.9083 L1075,578.4183" fill="#90EE90" style="stroke:#181818;stroke-width:1;"/><path d="M1075,578.4183 C1075,588.4183 1210,588.4183 1210,588.4183 C1210,588.4183 1345,588.4183 1345,578.4183" fill="none" style="stroke:#181818;stroke-width:1;"/><text fill="#000000" font-family="sans-serif" font-size="14" font-weight="700" lengthAdjust="spacing" textLength="94.6299" x="1162.6851" y="603.9534">checkpoints/</text><text fill="#000000" font-family="sans-serif" font-size="14" font-weight="700" lengthAdjust="spacing" textLength="56.4785" x="1181.7607" y="620.4417">(SQLite)</text></g><!--cluster ENV--><g class="cluster" data-qualified-name="LOCAL.FS.ENV" data-source-line="28" id="ent0015"><path d="M328,586.4183 C328,576.4183 518,576.4183 518,576.4183 C518,576.4183 708,576.4183 708,586.4183 L708,815.0183 C708,825.0183 518,825.0183 518,825.0183 C518,825.0183 328,825.0183 328,815.0183 L328,586.4183" fill="#90EE90" style="stroke:#181818;stroke-width:1;"/><path d="M328,586.4183 C328,596.4183 518,596.4183 518,596.4183 C518,596.4183 708,596.4183 708,586.4183" fill="none" style="stroke:#181818;stroke-width:1;"/><text fill="#000000" font-family="sans-serif" font-size="14" font-weight="700" lengthAdjust="spacing" textLength="91.4854" x="472.2573" y="611.9534">.env / config</text><text fill="#000000" font-family="sans-serif" font-size="14" font-weight="700" lengthAdjust="spacing" textLength="71.668" x="482.166" y="628.4417">(API keys)</text></g><!--cluster LLMCLOUD--><g class="cluster" data-qualified-name="LLMCLOUD" data-source-line="41" id="ent0023"><path d="M1475.7264,542.6053 C1501.3926,506.695 1540.776,506.7968 1556.6287,552.3511 C1577.2572,507.3768 1618.4588,512.0637 1644.9518,545.7677 C1673.3453,510.1297 1698.2722,517.265 1720.4847,552.3675 C1741.6328,512.1119 1775.2679,501.1078 1804.4147,544.3251 C1837.028,500.3859 1864.1125,506.2164 1890.1806,550.6755 C1914.0588,497.283 1943.37,495.8399 1981.5871,536.7815 C2004.867,499.7909 2046.6283,502.6294 2067.6576,539.4074 C2097.1531,503.8411 2125.3277,501.0181 2148.9699,545.3633 C2175.0844,511.8845 2206.7213,504.1236 2231.8177,546.4756 C2253.0686,494.7748 2298.5085,496.792 2324.6754,541.753 C2351.3349,514.7745 2379.4974,512.328 2396.6303,552.0327 C2413.5624,509.5653 2455.7976,505.4945 2482.833,540.8402 C2513.3023,501.5922 2544.0246,505.7943 2565.2559,549.9677 C2591.8711,512.2471 2626.6271,508.3237 2656,546.6783 C2667.2435,544.0504 2672.1027,549.4082 2669.3742,560.3992 C2715.2757,577.6702 2712.733,611.1674 2680.0901,639.129 C2710.1332,679.8138 2699.4373,713.8835 2649,725.6483 C2656.5626,723.7878 2658.7222,728.2441 2657.4629,734.6643 C2635.7445,771.6508 2606.0072,776.8475 2577.7286,741.94 C2550.2111,787.4961 2510.6616,780.9286 2482.5246,742.6436 C2462.273,781.7503 2429.5215,775.2186 2407.1518,744.9448 C2375.1948,778.8783 2342.6894,783.0199 2321.7801,733.6261 C2303.6512,774.1533 2264.0941,790.2584 2233.735,746.3842 C2200.0047,782.1591 2164.3751,789.0068 2141.6998,735.0458 C2125.3908,783.6541 2088.7643,779.2233 2058.9552,749.2637 C2032.1901,783.2307 2007.2791,779.2937 1983.3112,746.1125 C1960.569,790.5438 1922.6861,783.3433 1898.4062,747.7438 C1859.8189,787.0855 1829.6828,788.2657 1804.7431,734.0768 C1778.0599,774.3294 1752.7764,770.4432 1729.0757,731.2366 C1702.1105,775.119 1674.6298,772.8932 1647.3232,731.5641 C1622.5511,766.394 1582.1805,774.9067 1560.064,728.7045 C1520.779,772.1521 1487.3953,766.3094 1457,718.6483 C1463.983,716.4348 1469.2632,720.072 1467.4584,727.8483 C1424.8497,700.9845 1427.5404,674.4811 1460.9806,641.8865 C1409.7505,608.1787 1422.0174,570.6325 1464,539.6783 C1469.3551,535.4519 1473.0947,535.9214 1475.7264,542.6053" fill="none" style="stroke:#181818;stroke-width:1;"/><text fill="#000000" font-family="sans-serif" font-size="14" font-weight="700" lengthAdjust="spacing" textLength="103.6943" x="2004.6528" y="558.2134">LLM API Cloud</text></g><!--cluster OPENAI--><g class="cluster" data-qualified-name="LLMCLOUD.OPENAI" data-source-line="42" id="ent0024"><polygon fill="#F0F8FF" points="1473,600.6783,1483,590.6783,1693,590.6783,1693,699.6483,1683,709.6483,1473,709.6483,1473,600.6783" style="stroke:#4682B4;stroke-width:1;"/><line style="stroke:#4682B4;stroke-width:1;" x1="1683" x2="1693" y1="600.6783" y2="590.6783"/><line style="stroke:#4682B4;stroke-width:1;" x1="1473" x2="1683" y1="600.6783" y2="600.6783"/><line style="stroke:#4682B4;stroke-width:1;" x1="1683" x2="1683" y1="600.6783" y2="709.6483"/><text fill="#000000" font-family="sans-serif" font-size="14" font-weight="700" lengthAdjust="spacing" textLength="119.4922" x="1519.2539" y="617.2134">OpenAI Platform</text></g><!--cluster ANTHROPIC--><g class="cluster" data-qualified-name="LLMCLOUD.ANTHROPIC" data-source-line="45" id="ent0026"><polygon fill="#F0F8FF" points="1717,600.6783,1727,590.6783,1910,590.6783,1910,699.6483,1900,709.6483,1717,709.6483,1717,600.6783" style="stroke:#4682B4;stroke-width:1;"/><line style="stroke:#4682B4;stroke-width:1;" x1="1900" x2="1910" y1="600.6783" y2="590.6783"/><line style="stroke:#4682B4;stroke-width:1;" x1="1717" x2="1900" y1="600.6783" y2="600.6783"/><line style="stroke:#4682B4;stroke-width:1;" x1="1900" x2="1900" y1="600.6783" y2="709.6483"/><text fill="#000000" font-family="sans-serif" font-size="14" font-weight="700" lengthAdjust="spacing" textLength="117.5098" x="1750.7451" y="617.2134">Anthropic Cloud</text></g><!--cluster GOOGLE--><g class="cluster" data-qualified-name="LLMCLOUD.GOOGLE" data-source-line="48" id="ent0028"><polygon fill="#F0F8FF" points="1934,584.6783,1944,574.6783,2146,574.6783,2146,699.6483,2136,709.6483,1934,709.6483,1934,584.6783" style="stroke:#4682B4;stroke-width:1;"/><line style="stroke:#4682B4;stroke-width:1;" x1="2136" x2="2146" y1="584.6783" y2="574.6783"/><line style="stroke:#4682B4;stroke-width:1;" x1="1934" x2="2136" y1="584.6783" y2="584.6783"/><line style="stroke:#4682B4;stroke-width:1;" x1="2136" x2="2136" y1="584.6783" y2="709.6483"/><text fill="#000000" font-family="sans-serif" font-size="14" font-weight="700" lengthAdjust="spacing" textLength="120.1279" x="1975.936" y="601.2134">Google AI Studio</text><text fill="#000000" font-family="sans-serif" font-size="14" font-weight="700" lengthAdjust="spacing" textLength="78.5928" x="1996.7036" y="617.7017">/ Vertex AI</text></g><!--cluster AZURE--><g class="cluster" data-qualified-name="LLMCLOUD.AZURE" data-source-line="51" id="ent0030"><polygon fill="#F0F8FF" points="2170,584.6783,2180,574.6783,2388,574.6783,2388,699.6483,2378,709.6483,2170,709.6483,2170,584.6783" style="stroke:#4682B4;stroke-width:1;"/><line style="stroke:#4682B4;stroke-width:1;" x1="2378" x2="2388" y1="584.6783" y2="574.6783"/><line style="stroke:#4682B4;stroke-width:1;" x1="2170" x2="2378" y1="584.6783" y2="584.6783"/><line style="stroke:#4682B4;stroke-width:1;" x1="2378" x2="2378" y1="584.6783" y2="709.6483"/><text fill="#000000" font-family="sans-serif" font-size="14" font-weight="700" lengthAdjust="spacing" textLength="100.1055" x="2224.9473" y="601.2134">Azure OpenAI</text><text fill="#000000" font-family="sans-serif" font-size="14" font-weight="700" lengthAdjust="spacing" textLength="51.0781" x="2249.4609" y="617.7017">Service</text></g><!--cluster DEEPSEEK--><g class="cluster" data-qualified-name="LLMCLOUD.DEEPSEEK" data-source-line="54" id="ent0032"><polygon fill="#F0F8FF" points="2412,584.6783,2422,574.6783,2640,574.6783,2640,699.6483,2630,709.6483,2412,709.6483,2412,584.6783" style="stroke:#4682B4;stroke-width:1;"/><line style="stroke:#4682B4;stroke-width:1;" x1="2630" x2="2640" y1="584.6783" y2="574.6783"/><line style="stroke:#4682B4;stroke-width:1;" x1="2412" x2="2630" y1="584.6783" y2="584.6783"/><line style="stroke:#4682B4;stroke-width:1;" x1="2630" x2="2630" y1="584.6783" y2="709.6483"/><text fill="#000000" font-family="sans-serif" font-size="14" font-weight="700" lengthAdjust="spacing" textLength="98.1982" x="2472.9009" y="601.2134">DeepSeek API</text><text fill="#000000" font-family="sans-serif" font-size="14" font-weight="700" lengthAdjust="spacing" textLength="152.2021" x="2445.8989" y="617.7017">(OpenAI-compatible)</text></g><!--cluster DATACLOUD--><g class="cluster" data-qualified-name="DATACLOUD" data-source-line="59" id="ent0034"><path d="M2706.2072,545.0625 C2716.1547,525.7648 2727.178,524.9845 2742.0201,539.9459 C2750.972,527.8064 2765.7704,527.5514 2771.4213,543.4122 C2779.1372,526.7488 2794.035,527.1849 2802.9919,542.1744 C2813.3545,526.4085 2825.0435,526.8005 2836.8165,540.5584 C2845.1616,524.4332 2863.4302,522.7754 2873.6645,538.3632 C2881.936,521.996 2894.119,523.1048 2903.7276,537.0365 C2911.6658,517.7859 2927.9019,521.433 2937.9626,534.8094 C2949.3418,519.0793 2959.1099,520.7194 2969.8047,535.5231 C2981.1794,522.3289 2994.3573,523.0512 3003.9473,537.7109 C3015.2088,523.9253 3031.539,524.7739 3040.0493,541.0184 C3050.1621,522.3916 3061.8055,523.3246 3074.8697,537.9255 C3087.2362,523.4733 3098.5716,523.9115 3107.2211,541.66 C3116.257,528.4706 3132.1861,527.5017 3139.7956,543.2648 C3150.768,525.5207 3168.5755,526.7929 3176,546.6783 C3177.9932,545.0175 3180.4751,545.6329 3181.0953,548.2961 C3201.7586,561.9866 3204.6285,574.6855 3182.6331,589.9509 C3202.727,598.9862 3201.0764,614.2719 3184.8169,625.5379 C3203.3112,636.3978 3204.2166,649.7079 3188.5906,663.9223 C3208.671,671.8065 3209.3098,689.112 3192.9045,701.2166 C3205.0405,712.2352 3206.3089,727.5331 3188.0844,734.1017 C3202.9148,746.6638 3203.9244,762.5803 3184.5425,771.9399 C3202.0248,785.0911 3203.8494,802.0502 3182.0922,812.8513 C3194.9446,831.699 3191.691,845.5712 3169,852.7583 C3171.0523,850.9526 3172.7743,851.2837 3173.4734,854.0751 C3163.994,872.838 3152.6358,874.0125 3138.8547,858.4083 C3128.2911,874.5325 3116.4098,873.9534 3104.824,859.5477 C3092.8462,873.205 3082.5002,870.4936 3073.9192,855.8398 C3062.9269,872.4333 3051.5819,876.5932 3037.5513,859.0796 C3029.3148,873.0731 3017.0722,872.371 3008.4513,859.496 C2997.7925,877.2741 2982.7807,879.7722 2969.5201,862.3757 C2960.0113,877.8317 2946.0851,879.5096 2936.5996,862.3522 C2925.0684,874.4693 2912.1842,875.4428 2905.0674,857.6918 C2895.2896,870.5665 2885.3698,871.2327 2875.4964,857.7993 C2862.1636,876.432 2850.6211,874.1998 2838.2955,856.7606 C2829.5126,870.3681 2814.6084,871.3418 2807.1207,855.3945 C2797.9701,870.1526 2785.9221,872.9565 2774.9522,857.32 C2763.1097,871.7162 2747.3392,871.0808 2738.5115,853.8468 C2721.9625,871.7855 2704.7852,868.6246 2696,845.7583 C2698.2139,843.924 2700.1825,844.8193 2701.0416,847.3302 C2682.0454,836.7323 2678.9258,824.38 2697.3495,810.0738 C2678.9488,799.4642 2681.4339,785.3195 2695.8476,773.3672 C2674.8064,764.8084 2677.1084,748.1954 2692.5623,736.3939 C2674.2782,724.6752 2674.8652,711.9459 2693.9939,701.7742 C2675.7397,689.5923 2677.3969,670.4859 2696.4108,660.4856 C2679.5171,649.4148 2678.3071,637.2718 2695.5129,625.3301 C2678.888,612.4521 2681.7843,598.4655 2698.7764,588.572 C2677.5607,571.8765 2677.3698,552.327 2703,539.6783 C2706.5325,540.0017 2707.366,541.9446 2706.2072,545.0625" fill="none" style="stroke:#181818;stroke-width:1;"/><text fill="#000000" font-family="sans-serif" font-size="14" font-weight="700" lengthAdjust="spacing" textLength="151.498" x="2860.251" y="558.2134">Market Data Services</text></g><!--cluster YAHOO--><g class="cluster" data-qualified-name="DATACLOUD.YAHOO" data-source-line="60" id="ent0035"><polygon fill="#F0F8FF" points="2712,584.6783,2722,574.6783,2931,574.6783,2931,826.7583,2921,836.7583,2712,836.7583,2712,584.6783" style="stroke:#4682B4;stroke-width:1;"/><line style="stroke:#4682B4;stroke-width:1;" x1="2921" x2="2931" y1="584.6783" y2="574.6783"/><line style="stroke:#4682B4;stroke-width:1;" x1="2712" x2="2921" y1="584.6783" y2="584.6783"/><line style="stroke:#4682B4;stroke-width:1;" x1="2921" x2="2921" y1="584.6783" y2="836.7583"/><text fill="#000000" font-family="sans-serif" font-size="14" font-weight="700" lengthAdjust="spacing" textLength="104.3984" x="2765.3008" y="601.2134">Yahoo Finance</text><text fill="#000000" font-family="sans-serif" font-size="14" font-weight="700" lengthAdjust="spacing" textLength="143.4727" x="2745.7637" y="617.7017">(no API key needed)</text></g><!--cluster AV--><g class="cluster" data-qualified-name="DATACLOUD.AV" data-source-line="64" id="ent0038"><polygon fill="#F0F8FF" points="2955,584.6783,2965,574.6783,3160,574.6783,3160,699.6483,3150,709.6483,2955,709.6483,2955,584.6783" style="stroke:#4682B4;stroke-width:1;"/><line style="stroke:#4682B4;stroke-width:1;" x1="3150" x2="3160" y1="584.6783" y2="574.6783"/><line style="stroke:#4682B4;stroke-width:1;" x1="2955" x2="3150" y1="584.6783" y2="584.6783"/><line style="stroke:#4682B4;stroke-width:1;" x1="3150" x2="3150" y1="584.6783" y2="709.6483"/><text fill="#000000" font-family="sans-serif" font-size="14" font-weight="700" lengthAdjust="spacing" textLength="104.7266" x="3001.1367" y="601.2134">Alpha Vantage</text><text fill="#000000" font-family="sans-serif" font-size="14" font-weight="700" lengthAdjust="spacing" textLength="129.8008" x="2988.5996" y="617.7017">(API key required)</text></g><!--entity PKG--><g class="entity" data-qualified-name="LOCAL.PYTHON.PKG" data-source-line="12" id="ent0004"><rect fill="#FFFFE0" height="62.9766" rx="2.5" ry="2.5" style="stroke:#181818;stroke-width:0.5;" width="134.2949" x="1250.85" y="393.4483"/><rect fill="#FFFFE0" height="10" style="stroke:#181818;stroke-width:0.5;" width="15" x="1365.1449" y="398.4483"/><rect fill="#FFFFE0" height="2" style="stroke:#181818;stroke-width:0.5;" width="4" x="1363.1449" y="400.4483"/><rect fill="#FFFFE0" height="2" style="stroke:#181818;stroke-width:0.5;" width="4" x="1363.1449" y="404.4483"/><text fill="#000000" font-family="sans-serif" font-size="14" lengthAdjust="spacing" textLength="94.2949" x="1265.85" y="426.9834">tradingagents</text><text fill="#000000" font-family="sans-serif" font-size="14" lengthAdjust="spacing" textLength="56.1572" x="1265.85" y="443.4717">package</text></g><!--entity CLI--><g class="entity" data-qualified-name="LOCAL.PYTHON.CLI" data-source-line="13" id="ent0005"><rect fill="#FFFFE0" height="62.9766" rx="2.5" ry="2.5" style="stroke:#181818;stroke-width:0.5;" width="116.6992" x="1108.65" y="147.4883"/><rect fill="#FFFFE0" height="10" style="stroke:#181818;stroke-width:0.5;" width="15" x="1205.3492" y="152.4883"/><rect fill="#FFFFE0" height="2" style="stroke:#181818;stroke-width:0.5;" width="4" x="1203.3492" y="154.4883"/><rect fill="#FFFFE0" height="2" style="stroke:#181818;stroke-width:0.5;" width="4" x="1203.3492" y="158.4883"/><text fill="#000000" font-family="sans-serif" font-size="14" lengthAdjust="spacing" textLength="76.6992" x="1123.65" y="181.0234">cli/main.py</text><text fill="#000000" font-family="sans-serif" font-size="14" lengthAdjust="spacing" textLength="73.2266" x="1123.65" y="197.5117">(Typer CLI)</text></g><!--entity MAIN--><g class="entity" data-qualified-name="LOCAL.PYTHON.MAIN" data-source-line="14" id="ent0006"><rect fill="#FFFFE0" height="62.9766" rx="2.5" ry="2.5" style="stroke:#181818;stroke-width:0.5;" width="124.8682" x="1260.57" y="147.4883"/><rect fill="#FFFFE0" height="10" style="stroke:#181818;stroke-width:0.5;" width="15" x="1365.4382" y="152.4883"/><rect fill="#FFFFE0" height="2" style="stroke:#181818;stroke-width:0.5;" width="4" x="1363.4382" y="154.4883"/><rect fill="#FFFFE0" height="2" style="stroke:#181818;stroke-width:0.5;" width="4" x="1363.4382" y="158.4883"/><text fill="#000000" font-family="sans-serif" font-size="14" lengthAdjust="spacing" textLength="54.0928" x="1275.57" y="181.0234">main.py</text><text fill="#000000" font-family="sans-serif" font-size="14" lengthAdjust="spacing" textLength="84.8682" x="1275.57" y="197.5117">(script / API)</text></g><!--entity LG--><g class="entity" data-qualified-name="LOCAL.PYTHON.LG" data-source-line="15" id="ent0007"><rect fill="#FFFFE0" height="62.9766" rx="2.5" ry="2.5" style="stroke:#181818;stroke-width:0.5;" width="113.6914" x="1261.15" y="270.4683"/><rect fill="#FFFFE0" height="10" style="stroke:#181818;stroke-width:0.5;" width="15" x="1354.8414" y="275.4683"/><rect fill="#FFFFE0" height="2" style="stroke:#181818;stroke-width:0.5;" width="4" x="1352.8414" y="277.4683"/><rect fill="#FFFFE0" height="2" style="stroke:#181818;stroke-width:0.5;" width="4" x="1352.8414" y="281.4683"/><text fill="#000000" font-family="sans-serif" font-size="14" lengthAdjust="spacing" textLength="73.6914" x="1276.15" y="304.0034">LangGraph</text><text fill="#000000" font-family="sans-serif" font-size="14" lengthAdjust="spacing" textLength="56.3828" x="1276.15" y="320.4917">Runtime</text></g><!--entity AAPL_2025-01-10.json--><g class="entity" data-qualified-name="LOCAL.FS.RESULTS.AAPL_2025-01-10.json" data-source-line="20" id="ent0010"><rect fill="#F1F1F1" height="39.4883" rx="2.5" ry="2.5" style="stroke:#181818;stroke-width:0.5;" width="191.6563" x="96.17" y="642.4183"/><polygon fill="#F1F1F1" points="270.8263,647.4183,270.8263,661.4183,282.8263,661.4183,282.8263,653.4183,276.8263,647.4183,270.8263,647.4183" style="stroke:#181818;stroke-width:0.5;"/><line style="stroke:#181818;stroke-width:0.5;" x1="276.8263" x2="276.8263" y1="647.4183" y2="653.4183"/><line style="stroke:#181818;stroke-width:0.5;" x1="282.8263" x2="276.8263" y1="653.4183" y2="653.4183"/><text fill="#000000" font-family="sans-serif" font-size="14" lengthAdjust="spacing" textLength="161.6563" x="106.17" y="668.9534">AAPL_2025-01-10.json</text></g><!--entity PENDING / RESOLVED entries--><g class="entity" data-qualified-name="LOCAL.FS.MEMLOG.PENDING . RESOLVED entries" data-source-line="23" id="ent0012"><rect fill="#F1F1F1" height="39.4883" rx="2.5" ry="2.5" style="stroke:#181818;stroke-width:0.5;" width="227.2646" x="764.37" y="642.4183"/><polygon fill="#F1F1F1" points="974.6346,647.4183,974.6346,661.4183,986.6346,661.4183,986.6346,653.4183,980.6346,647.4183,974.6346,647.4183" style="stroke:#181818;stroke-width:0.5;"/><line style="stroke:#181818;stroke-width:0.5;" x1="980.6346" x2="980.6346" y1="647.4183" y2="653.4183"/><line style="stroke:#181818;stroke-width:0.5;" x1="986.6346" x2="980.6346" y1="653.4183" y2="653.4183"/><text fill="#000000" font-family="sans-serif" font-size="14" lengthAdjust="spacing" textLength="197.2646" x="774.37" y="668.9534">PENDING / RESOLVED entries</text></g><!--entity langgraph_checkpoint.db--><g class="entity" data-qualified-name="LOCAL.FS.CKPT.langgraph_checkpoint.db" data-source-line="26" id="ent0014"><rect fill="#F1F1F1" height="39.4883" rx="2.5" ry="2.5" style="stroke:#181818;stroke-width:0.5;" width="202.334" x="1098.83" y="642.4183"/><polygon fill="#F1F1F1" points="1284.164,647.4183,1284.164,661.4183,1296.164,661.4183,1296.164,653.4183,1290.164,647.4183,1284.164,647.4183" style="stroke:#181818;stroke-width:0.5;"/><line style="stroke:#181818;stroke-width:0.5;" x1="1290.164" x2="1290.164" y1="647.4183" y2="653.4183"/><line style="stroke:#181818;stroke-width:0.5;" x1="1296.164" x2="1290.164" y1="653.4183" y2="653.4183"/><text fill="#000000" font-family="sans-serif" font-size="14" lengthAdjust="spacing" textLength="172.334" x="1108.83" y="668.9534">langgraph_checkpoint.db</text></g><!--entity OPENAI_API_KEY--><g class="entity" data-qualified-name="LOCAL.FS.ENV.OPENAI_API_KEY" data-source-line="29" id="ent0016"><rect fill="#F1F1F1" height="39.4883" rx="2.5" ry="2.5" style="stroke:#181818;stroke-width:0.5;" width="141.1182" x="344.44" y="642.4183"/><polygon fill="#F1F1F1" points="468.5582,647.4183,468.5582,661.4183,480.5582,661.4183,480.5582,653.4183,474.5582,647.4183,468.5582,647.4183" style="stroke:#181818;stroke-width:0.5;"/><line style="stroke:#181818;stroke-width:0.5;" x1="474.5582" x2="474.5582" y1="647.4183" y2="653.4183"/><line style="stroke:#181818;stroke-width:0.5;" x1="480.5582" x2="474.5582" y1="653.4183" y2="653.4183"/><text fill="#000000" font-family="sans-serif" font-size="14" lengthAdjust="spacing" textLength="111.1182" x="354.44" y="668.9534">OPENAI_API_KEY</text></g><!--entity ANTHROPIC_API_KEY--><g class="entity" data-qualified-name="LOCAL.FS.ENV.ANTHROPIC_API_KEY" data-source-line="30" id="ent0017"><rect fill="#F1F1F1" height="39.4883" rx="2.5" ry="2.5" style="stroke:#181818;stroke-width:0.5;" width="171.21" x="520.4" y="642.4183"/><polygon fill="#F1F1F1" points="674.61,647.4183,674.61,661.4183,686.61,661.4183,686.61,653.4183,680.61,647.4183,674.61,647.4183" style="stroke:#181818;stroke-width:0.5;"/><line style="stroke:#181818;stroke-width:0.5;" x1="680.61" x2="680.61" y1="647.4183" y2="653.4183"/><line style="stroke:#181818;stroke-width:0.5;" x1="686.61" x2="680.61" y1="653.4183" y2="653.4183"/><text fill="#000000" font-family="sans-serif" font-size="14" lengthAdjust="spacing" textLength="141.21" x="530.4" y="668.9534">ANTHROPIC_API_KEY</text></g><!--entity ALPHA_VANTAGE_API_KEY--><g class="entity" data-qualified-name="LOCAL.FS.ENV.ALPHA_VANTAGE_API_KEY" data-source-line="31" id="ent0018"><rect fill="#F1F1F1" height="39.4883" rx="2.5" ry="2.5" style="stroke:#181818;stroke-width:0.5;" width="208.0625" x="343.97" y="769.5283"/><polygon fill="#F1F1F1" points="535.0325,774.5283,535.0325,788.5283,547.0325,788.5283,547.0325,780.5283,541.0325,774.5283,535.0325,774.5283" style="stroke:#181818;stroke-width:0.5;"/><line style="stroke:#181818;stroke-width:0.5;" x1="541.0325" x2="541.0325" y1="774.5283" y2="780.5283"/><line style="stroke:#181818;stroke-width:0.5;" x1="547.0325" x2="541.0325" y1="780.5283" y2="780.5283"/><text fill="#000000" font-family="sans-serif" font-size="14" lengthAdjust="spacing" textLength="178.0625" x="353.97" y="796.0634">ALPHA_VANTAGE_API_KEY</text></g><!--entity OAIAPI--><g class="entity" data-qualified-name="LLMCLOUD.OPENAI.OAIAPI" data-source-line="43" id="ent0025"><rect fill="#FFFFE0" height="62.9766" rx="2.5" ry="2.5" style="stroke:#181818;stroke-width:0.5;" width="187.3555" x="1489.32" y="630.6783"/><rect fill="#FFFFE0" height="10" style="stroke:#181818;stroke-width:0.5;" width="15" x="1656.6755" y="635.6783"/><rect fill="#FFFFE0" height="2" style="stroke:#181818;stroke-width:0.5;" width="4" x="1654.6755" y="637.6783"/><rect fill="#FFFFE0" height="2" style="stroke:#181818;stroke-width:0.5;" width="4" x="1654.6755" y="641.6783"/><text fill="#000000" font-family="sans-serif" font-size="14" lengthAdjust="spacing" textLength="85.9141" x="1504.32" y="664.2134">GPT-4o / o3</text><text fill="#000000" font-family="sans-serif" font-size="14" lengthAdjust="spacing" textLength="147.3555" x="1504.32" y="680.7017">Chat Completions API</text></g><!--entity ANTAPI--><g class="entity" data-qualified-name="LLMCLOUD.ANTHROPIC.ANTAPI" data-source-line="46" id="ent0027"><rect fill="#FFFFE0" height="62.9766" rx="2.5" ry="2.5" style="stroke:#181818;stroke-width:0.5;" width="138.3828" x="1732.81" y="630.6783"/><rect fill="#FFFFE0" height="10" style="stroke:#181818;stroke-width:0.5;" width="15" x="1851.1928" y="635.6783"/><rect fill="#FFFFE0" height="2" style="stroke:#181818;stroke-width:0.5;" width="4" x="1849.1928" y="637.6783"/><rect fill="#FFFFE0" height="2" style="stroke:#181818;stroke-width:0.5;" width="4" x="1849.1928" y="641.6783"/><text fill="#000000" font-family="sans-serif" font-size="14" lengthAdjust="spacing" textLength="98.3828" x="1747.81" y="664.2134">Claude 3.5 / 4</text><text fill="#000000" font-family="sans-serif" font-size="14" lengthAdjust="spacing" textLength="91.3896" x="1747.81" y="680.7017">Messages API</text></g><!--entity GOOAPI--><g class="entity" data-qualified-name="LLMCLOUD.GOOGLE.GOOAPI" data-source-line="49" id="ent0029"><rect fill="#FFFFE0" height="62.9766" rx="2.5" ry="2.5" style="stroke:#181818;stroke-width:0.5;" width="180.6973" x="1949.65" y="630.6783"/><rect fill="#FFFFE0" height="10" style="stroke:#181818;stroke-width:0.5;" width="15" x="2110.3473" y="635.6783"/><rect fill="#FFFFE0" height="2" style="stroke:#181818;stroke-width:0.5;" width="4" x="2108.3473" y="637.6783"/><rect fill="#FFFFE0" height="2" style="stroke:#181818;stroke-width:0.5;" width="4" x="2108.3473" y="641.6783"/><text fill="#000000" font-family="sans-serif" font-size="14" lengthAdjust="spacing" textLength="74.334" x="1964.65" y="664.2134">Gemini 2.0</text><text fill="#000000" font-family="sans-serif" font-size="14" lengthAdjust="spacing" textLength="140.6973" x="1964.65" y="680.7017">GenerateContent API</text></g><!--entity AZUAPI--><g class="entity" data-qualified-name="LLMCLOUD.AZURE.AZUAPI" data-source-line="52" id="ent0031"><rect fill="#FFFFE0" height="62.9766" rx="2.5" ry="2.5" style="stroke:#181818;stroke-width:0.5;" width="185.291" x="2186.35" y="630.6783"/><rect fill="#FFFFE0" height="10" style="stroke:#181818;stroke-width:0.5;" width="15" x="2351.641" y="635.6783"/><rect fill="#FFFFE0" height="2" style="stroke:#181818;stroke-width:0.5;" width="4" x="2349.641" y="637.6783"/><rect fill="#FFFFE0" height="2" style="stroke:#181818;stroke-width:0.5;" width="4" x="2349.641" y="641.6783"/><text fill="#000000" font-family="sans-serif" font-size="14" lengthAdjust="spacing" textLength="71.0391" x="2201.35" y="664.2134">Azure GPT</text><text fill="#000000" font-family="sans-serif" font-size="14" lengthAdjust="spacing" textLength="145.291" x="2201.35" y="680.7017">deployment endpoint</text></g><!--entity DSAPI--><g class="entity" data-qualified-name="LLMCLOUD.DEEPSEEK.DSAPI" data-source-line="55" id="ent0033"><rect fill="#FFFFE0" height="62.9766" rx="2.5" ry="2.5" style="stroke:#181818;stroke-width:0.5;" width="161.4951" x="2428.25" y="630.6783"/><rect fill="#FFFFE0" height="10" style="stroke:#181818;stroke-width:0.5;" width="15" x="2569.7451" y="635.6783"/><rect fill="#FFFFE0" height="2" style="stroke:#181818;stroke-width:0.5;" width="4" x="2567.7451" y="637.6783"/><rect fill="#FFFFE0" height="2" style="stroke:#181818;stroke-width:0.5;" width="4" x="2567.7451" y="641.6783"/><text fill="#000000" font-family="sans-serif" font-size="14" lengthAdjust="spacing" textLength="88.6553" x="2443.25" y="664.2134">DeepSeek V3</text><text fill="#000000" font-family="sans-serif" font-size="14" lengthAdjust="spacing" textLength="121.4951" x="2443.25" y="680.7017">Chat Completions</text></g><!--entity YFLIB--><g class="entity" data-qualified-name="DATACLOUD.YAHOO.YFLIB" data-source-line="61" id="ent0036"><rect fill="#FFFFE0" height="62.9766" rx="2.5" ry="2.5" style="stroke:#181818;stroke-width:0.5;" width="134.1035" x="2732.95" y="630.6783"/><rect fill="#FFFFE0" height="10" style="stroke:#181818;stroke-width:0.5;" width="15" x="2847.0535" y="635.6783"/><rect fill="#FFFFE0" height="2" style="stroke:#181818;stroke-width:0.5;" width="4" x="2845.0535" y="637.6783"/><rect fill="#FFFFE0" height="2" style="stroke:#181818;stroke-width:0.5;" width="4" x="2845.0535" y="641.6783"/><text fill="#000000" font-family="sans-serif" font-size="14" lengthAdjust="spacing" textLength="56.5879" x="2747.95" y="664.2134">yfinance</text><text fill="#000000" font-family="sans-serif" font-size="14" lengthAdjust="spacing" textLength="94.1035" x="2747.95" y="680.7017">Python library</text></g><!--entity YFAPI--><g class="entity" data-qualified-name="DATACLOUD.YAHOO.YFAPI" data-source-line="62" id="ent0037"><rect fill="#FFFFE0" height="62.9766" rx="2.5" ry="2.5" style="stroke:#181818;stroke-width:0.5;" width="155.5205" x="2728.24" y="757.7883"/><rect fill="#FFFFE0" height="10" style="stroke:#181818;stroke-width:0.5;" width="15" x="2863.7605" y="762.7883"/><rect fill="#FFFFE0" height="2" style="stroke:#181818;stroke-width:0.5;" width="4" x="2861.7605" y="764.7883"/><rect fill="#FFFFE0" height="2" style="stroke:#181818;stroke-width:0.5;" width="4" x="2861.7605" y="768.7883"/><text fill="#000000" font-family="sans-serif" font-size="14" lengthAdjust="spacing" textLength="98.4033" x="2743.24" y="791.3234">Yahoo Finance</text><text fill="#000000" font-family="sans-serif" font-size="14" lengthAdjust="spacing" textLength="115.5205" x="2743.24" y="807.8117">HTTPS endpoints</text></g><!--entity AVAPI--><g class="entity" data-qualified-name="DATACLOUD.AV.AVAPI" data-source-line="65" id="ent0039"><rect fill="#FFFFE0" height="62.9766" rx="2.5" ry="2.5" style="stroke:#181818;stroke-width:0.5;" width="138.4375" x="2970.78" y="630.6783"/><rect fill="#FFFFE0" height="10" style="stroke:#181818;stroke-width:0.5;" width="15" x="3089.2175" y="635.6783"/><rect fill="#FFFFE0" height="2" style="stroke:#181818;stroke-width:0.5;" width="4" x="3087.2175" y="637.6783"/><rect fill="#FFFFE0" height="2" style="stroke:#181818;stroke-width:0.5;" width="4" x="3087.2175" y="641.6783"/><text fill="#000000" font-family="sans-serif" font-size="14" lengthAdjust="spacing" textLength="98.4375" x="2985.78" y="664.2134">Alpha Vantage</text><text fill="#000000" font-family="sans-serif" font-size="14" lengthAdjust="spacing" textLength="58.6934" x="2985.78" y="680.7017">REST API</text></g><g class="entity" data-qualified-name="GMN48" data-source-line="81" id="ent0049"><path d="M1685.8,753.6483 L1685.8,824.8905 L1930.1931,824.8905 L1930.1931,763.6483 L1920.1931,753.6483 L1685.8,753.6483" fill="#FEFFDD" style="stroke:#181818;stroke-width:0.5;"/><path d="M1920.1931,753.6483 L1920.1931,763.6483 L1930.1931,763.6483 L1920.1931,753.6483" fill="#FEFFDD" style="stroke:#181818;stroke-width:1;"/><text fill="#000000" font-family="sans-serif" font-size="13" lengthAdjust="spacing" textLength="165.5024" x="1691.8" y="771.2166">SQLite checkpoint enables</text><text fill="#000000" font-family="sans-serif" font-size="13" lengthAdjust="spacing" textLength="203.5693" x="1691.8" y="786.5272">mid-graph resume / inspection.</text><text fill="#000000" font-family="sans-serif" font-size="13" lengthAdjust="spacing" textLength="223.3931" x="1691.8" y="801.8377">Requires checkpoint_enabled=True</text><text fill="#000000" font-family="sans-serif" font-size="13" lengthAdjust="spacing" textLength="59.4077" x="1691.8" y="817.1483">in config.</text></g><g class="entity" data-qualified-name="GMN51" data-source-line="88" id="ent0052"><path d="M1441.39,753.6483 L1441.39,824.8905 L1650.6044,824.8905 L1650.6044,763.6483 L1640.6044,753.6483 L1441.39,753.6483" fill="#FEFFDD" style="stroke:#181818;stroke-width:0.5;"/><path d="M1640.6044,753.6483 L1640.6044,763.6483 L1650.6044,763.6483 L1640.6044,753.6483" fill="#FEFFDD" style="stroke:#181818;stroke-width:1;"/><text fill="#000000" font-family="sans-serif" font-size="13" lengthAdjust="spacing" textLength="128.3115" x="1447.39" y="771.2166">Plain markdown file.</text><text fill="#000000" font-family="sans-serif" font-size="13" lengthAdjust="spacing" textLength="139.877" x="1447.39" y="786.5272">No database required.</text><text fill="#000000" font-family="sans-serif" font-size="13" lengthAdjust="spacing" textLength="188.2144" x="1447.39" y="801.8377">Append-only; atomic updates</text><text fill="#000000" font-family="sans-serif" font-size="13" lengthAdjust="spacing" textLength="117.2793" x="1447.39" y="817.1483">via Python file I/O.</text></g><!--link MAIN to LG--><g class="link" data-entity-1="ent0006" data-entity-2="ent0007" data-link-type="dependency" data-source-line="35" id="lnk19"><path d="M1318,210.6483 C1318,229.0083 1318,246.0483 1318,264.3983" fill="none" id="MAIN-to-LG" style="stroke:#181818;stroke-width:1;"/><polygon fill="#181818" points="1318,270.3983,1322,261.3983,1318,265.3983,1314,261.3983,1318,270.3983" style="stroke:#181818;stroke-width:1;"/></g><!--link CLI to LG--><g class="link" data-entity-1="ent0005" data-entity-2="ent0007" data-link-type="dependency" data-source-line="36" id="lnk20"><path d="M1167,210.6683 C1167,247.1183 1167,302.0183 1167,302.0183 C1167,302.0183 1212.15,302.0183 1254.91,302.0183" fill="none" id="CLI-to-LG" style="stroke:#181818;stroke-width:1;"/><polygon fill="#181818" points="1260.91,302.0183,1251.91,298.0183,1255.91,302.0183,1251.91,306.0183,1260.91,302.0183" style="stroke:#181818;stroke-width:1;"/></g><!--link LG to PKG--><g class="link" data-entity-1="ent0007" data-entity-2="ent0004" data-link-type="dependency" data-source-line="37" id="lnk21"><path d="M1318,333.6283 C1318,351.9883 1318,369.0283 1318,387.3683" fill="none" id="LG-to-PKG" style="stroke:#181818;stroke-width:1;"/><polygon fill="#181818" points="1318,393.3683,1322,384.3683,1318,388.3683,1314,384.3683,1318,393.3683" style="stroke:#181818;stroke-width:1;"/></g><!--link PKG to FS--><g class="link" data-entity-1="ent0004" data-entity-2="ent0008" data-link-type="dependency" data-source-line="38" id="lnk22"><path d="M1384.57,456.4383 C1384.57,464.1895 1384.57,473.0469 1384.57,482.6328 C1384.57,487.4257 1384.57,492.4008 1384.57,497.5108 C1384.57,498.7883 1384.57,500.0742 1384.57,501.3679 C1384.57,502.0147 1384.57,502.6634 1384.57,503.314 C1384.57,503.6393 1384.57,497.965 1384.57,498.2912" fill="none" id="PKG-to-FS" style="stroke:#181818;stroke-width:1;"/><polygon fill="#181818" points="1384.57,504.2912,1388.57,495.2912,1384.57,499.2912,1380.57,495.2912,1384.57,504.2912" style="stroke:#181818;stroke-width:1;"/></g><!--link PKG to OAIAPI--><g class="link" data-entity-1="ent0004" data-entity-2="ent0025" data-link-type="dependency" data-source-line="70" id="lnk40"><path d="M1361,456.6883 C1361,515.8483 1361,637.0183 1361,637.0183 C1361,637.0183 1422.35,637.0183 1482.85,637.0183" fill="none" id="PKG-to-OAIAPI" style="stroke:#181818;stroke-width:1;stroke-dasharray:7,7;"/><polygon fill="#181818" points="1488.85,637.0183,1479.85,633.0183,1483.85,637.0183,1479.85,641.0183,1488.85,637.0183" style="stroke:#181818;stroke-width:1;"/><text fill="#000000" font-family="sans-serif" font-size="13" lengthAdjust="spacing" textLength="169.5205" x="1362" y="624.3466">HTTPS (LangChain OpenAI)</text></g><!--link PKG to ANTAPI--><g class="link" data-entity-1="ent0004" data-entity-2="ent0027" data-link-type="dependency" data-source-line="71" id="lnk41"><path d="M1385.55,447.0183 C1518.65,447.0183 1802,447.0183 1802,447.0183 C1802,447.0183 1802,564.5683 1802,624.4183" fill="none" id="PKG-to-ANTAPI" style="stroke:#181818;stroke-width:1;stroke-dasharray:7,7;"/><polygon fill="#181818" points="1802,630.4183,1806,621.4183,1802,625.4183,1798,621.4183,1802,630.4183" style="stroke:#181818;stroke-width:1;"/><text fill="#000000" font-family="sans-serif" font-size="13" lengthAdjust="spacing" textLength="185.085" x="1499.48" y="443.5866">HTTPS (LangChain Anthropic)</text></g><!--link PKG to GOOAPI--><g class="link" data-entity-1="ent0004" data-entity-2="ent0029" data-link-type="dependency" data-source-line="72" id="lnk42"><path d="M1385.6,438.0183 C1565.08,438.0183 2040,438.0183 2040,438.0183 C2040,438.0183 2040,562.7383 2040,624.5283" fill="none" id="PKG-to-GOOAPI" style="stroke:#181818;stroke-width:1;stroke-dasharray:7,7;"/><polygon fill="#181818" points="2040,630.5283,2044,621.5283,2040,625.5283,2036,621.5283,2040,630.5283" style="stroke:#181818;stroke-width:1;"/><text fill="#000000" font-family="sans-serif" font-size="13" lengthAdjust="spacing" textLength="167.686" x="1810.05" y="451.5866">HTTPS (LangChain Google)</text></g><!--link PKG to AZUAPI--><g class="link" data-entity-1="ent0004" data-entity-2="ent0031" data-link-type="dependency" data-source-line="73" id="lnk43"><path d="M1385.58,429.0183 C1604.32,429.0183 2279,429.0183 2279,429.0183 C2279,429.0183 2279,560.3783 2279,624.2383" fill="none" id="PKG-to-AZUAPI" style="stroke:#181818;stroke-width:1;stroke-dasharray:7,7;"/><polygon fill="#181818" points="2279,630.2383,2283,621.2383,2279,625.2383,2275,621.2383,2279,630.2383" style="stroke:#181818;stroke-width:1;"/><text fill="#000000" font-family="sans-serif" font-size="13" lengthAdjust="spacing" textLength="160.2656" x="1771.9" y="425.5866">HTTPS (LangChain Azure)</text></g><!--link PKG to DSAPI--><g class="link" data-entity-1="ent0004" data-entity-2="ent0033" data-link-type="dependency" data-source-line="74" id="lnk44"><path d="M1385.45,420.0183 C1637.39,420.0183 2509,420.0183 2509,420.0183 C2509,420.0183 2509,558.5083 2509,624.2583" fill="none" id="PKG-to-DSAPI" style="stroke:#181818;stroke-width:1;stroke-dasharray:7,7;"/><polygon fill="#181818" points="2509,630.2583,2513,621.2583,2509,625.2583,2505,621.2583,2509,630.2583" style="stroke:#181818;stroke-width:1;"/><text fill="#000000" font-family="sans-serif" font-size="13" lengthAdjust="spacing" textLength="176.522" x="2053.34" y="433.5866">HTTPS (OpenAI-compatible)</text></g><!--link PKG to YFLIB--><g class="link" data-entity-1="ent0004" data-entity-2="ent0036" data-link-type="dependency" data-source-line="76" id="lnk45"><path d="M1385.53,411.0183 C1675.45,411.0183 2800,411.0183 2800,411.0183 C2800,411.0183 2800,556.7783 2800,624.3583" fill="none" id="PKG-to-YFLIB" style="stroke:#181818;stroke-width:1;stroke-dasharray:7,7;"/><polygon fill="#181818" points="2800,630.3583,2804,621.3583,2800,625.3583,2796,621.3583,2800,630.3583" style="stroke:#181818;stroke-width:1;"/><text fill="#000000" font-family="sans-serif" font-size="13" lengthAdjust="spacing" textLength="65.7744" x="2136.43" y="407.5866">library call</text></g><!--link YFLIB to YFAPI--><g class="link" data-entity-1="ent0036" data-entity-2="ent0037" data-link-type="dependency" data-source-line="77" id="lnk46"><path d="M2800,693.9083 C2800,713.3283 2800,732.0683 2800,751.4883" fill="none" id="YFLIB-to-YFAPI" style="stroke:#181818;stroke-width:1;stroke-dasharray:7,7;"/><polygon fill="#181818" points="2800,757.4883,2804,748.4883,2800,752.4883,2796,748.4883,2800,757.4883" style="stroke:#181818;stroke-width:1;"/><text fill="#000000" font-family="sans-serif" font-size="13" lengthAdjust="spacing" textLength="40.1807" x="2759" y="722.2666">HTTPS</text></g><!--link PKG to AVAPI--><g class="link" data-entity-1="ent0004" data-entity-2="ent0039" data-link-type="dependency" data-source-line="78" id="lnk47"><path d="M1385.5,402.0183 C1703.88,402.0183 3040,402.0183 3040,402.0183 C3040,402.0183 3040,554.7983 3040,624.2683" fill="none" id="PKG-to-AVAPI" style="stroke:#181818;stroke-width:1;stroke-dasharray:7,7;"/><polygon fill="#181818" points="3040,630.2683,3044,621.2683,3040,625.2683,3036,621.2683,3040,630.2683" style="stroke:#181818;stroke-width:1;"/><text fill="#000000" font-family="sans-serif" font-size="13" lengthAdjust="spacing" textLength="74.7817" x="2251.88" y="398.5866">HTTPS REST</text></g><!--link CKPT to GMN48--><g class="link" data-entity-1="ent0013" data-entity-2="ent0049" data-link-type="association" data-source-line="81" id="lnk50"><path d="M1337,706.1493 C1337,706.2531 1337,706.3566 1337,706.4598 C1337,709.7645 1337,712.817 1337,715.4183 C1337,720.6208 1337,724.0183 1337,724.0183 C1337,724.0183 1709.31,724.0183 1709.31,724.0183 C1709.31,724.0183 1709.31,738.1183 1709.31,753.2083" fill="none" id="CKPT-GMN48" style="stroke:#181818;stroke-width:1;stroke-dasharray:7,7;"/></g><!--link MEMLOG to GMN51--><g class="link" data-entity-1="ent0011" data-entity-2="ent0052" data-link-type="association" data-source-line="88" id="lnk53"><path d="M1027,706.1345 C1027,706.3192 1027,706.504 1027,706.6889 C1027,709.6476 1027,712.6319 1027,715.5995 C1027,739.3408 1027,762.0183 1027,762.0183 C1027,762.0183 1289.32,762.0183 1440.97,762.0183" fill="none" id="MEMLOG-GMN51" style="stroke:#181818;stroke-width:1;stroke-dasharray:7,7;"/></g><?plantuml-src rLRRRkD637ttLn1vQRQ5dTlkIuikeDYAOaIsr5WnaCA0CP5eU-hHZ3eQP-iM0VOZzWltIyhHo9PZ2trlO0Iw7FAGd4DIXXk1a6YMSRdqbYXD2T-_VeC15a9jSxe7JwShRZ0r6usTJhdcic2QvI1LXhSiNI-rsiYihuJIu0cUugtOu35EwGormqmCeZZ2f2elb2IsOuSXNwxCCmgXlXp0CsRO2okn5HreH7a05boYsHO8IfkLwdHiF70sm5SKga0D8qRvIOGBcA1-HNq6h8GmwdiX_DFf03Xyl2LZ2OyRQNYECtb-qxkw_Eb31OwVa_jeJ6YWltqgS6PSMLbLrXc5awxfsfay1CVeLF2Bd77PAxRaFjdQsFhXq57GnJ6-mPQfveMX1BouXe-yuVWO7pAv33GhLZDPP-4ojO6yDOc6AcK2xhZ0SbiQp2lGtQJERbTvEDDOReGfBsRonzuVfP8Lxj6VF8N93Wp0jE4BbXAxvyNX_Fho-bFtygfxTUbCAjJRaUCSSwMtSw6MlJoZx5XHeCowIefjdPm_2gEWXIFsnuFXEA12K1nHEFK7G9bhZcKxKxh2T5qeBgiqpYU_XQJpkjuFSTB28AY6Irl3UMFRorxQtVTGlb8igP8BlYJ_T3gmnctf6Fpnj8KWeXoyuPoWymV_-UoqZEFa_Z6AX_t_W8JnlJUV4j8B_FUmjzrHMtr0j_lPdJw9gxa9W-hQ2PJ-LtTtamxPfK9jCb98EB9AWxwzTHeAH_qmUXfK2JaPHNHetX1YmSn2QQSYbznfdmHnqlseg5JgPYRxAsQWJoy56gvaQQcSjJUaouxBmf5uqgoqAdXw4Ck-GgSyVS4sP7RJ-qHS7sToX6L93TbGs9eTKGHABMb2KjWJiycuciaBcA8s-1Szguo2A0f2loKhpBdaSDsxdCa09MfciA-agMPglBSzoUblchFWoZUJTYJHI7NH_VxqsCBZ3AY6CvarKvjQfbBdplAOPe1OJ13NDXJIfkFhMhVCy1THjy70z-E9xp-SikxjfordvcmdEyv6EYEcrsXWG3q2TMers4kyOmazivLID8aaawcTk591tK8W4JFCN8pFtdqKdGQuNUmCwz4j-8jcUkjixiBXxR754TzzaiIJVHtBskxak4InOZ1bqf2IcYO7ZNzkkDx5w4rRpksz9Osif17YzA1sFy3tRr_TZuei9QtYgZ7sJ_ztluwTAxtUvxgduMTmnJwtEuh4n6NT01_sIDUQRSZz46Z0hgtQmAwT3znMdT7grhPL0wpK30tmj64wUsobBekj9GUqKKN7FNNl3pYRKARl6AmUxCUAGNXHngWSrA9QIoGBjwcWsK4aKqOnbFGkvrctMb5WDtHklskuB0idcXu17fqoomFpkJFFVaqqVPO16THRgzSX_OCDuYGKjuNjZX2sN3brTgQ-I5ZGbuEb6Qjc5UwQmJxtcdN-2p1oHjDxKn2qYlwLCwZxrJg2uKLq4CE_?></g></svg>