<svg xmlns="http://www.w3.org/2000/svg" xmlns:xlink="http://www.w3.org/1999/xlink" contentStyleType="text/css" data-diagram-type="STATE" height="2227px" preserveAspectRatio="none" style="width:641px;height:2227px;background:#FFFFFF;" version="1.1" viewBox="0 0 641 2227" width="641px" zoomAndPan="magnify"><?plantuml 1.2026.3?><defs/><g><g class="title" data-source-line="1"><text fill="#000000" font-family="sans-serif" font-size="14" font-weight="700" lengthAdjust="spacing" textLength="441.335" x="96.3593" y="23.5352">TradingAgents &#8212; Graph Execution &amp; Memory Lifecycle States</text></g><g class="entity" data-qualified-name="Idle" id="ent0002"><rect fill="#F0F8FF" height="78.8867" rx="12.5" ry="12.5" style="stroke:#4682B4;stroke-width:0.5;" width="213.3828" x="326.3578" y="1554.4583"/><line style="stroke:#4682B4;stroke-width:0.5;" x1="326.3578" x2="539.7406" y1="1580.9466" y2="1580.9466"/><text fill="#000000" font-family="sans-serif" font-size="14" lengthAdjust="spacing" textLength="24.6914" x="420.7035" y="1572.9934">Idle</text><text fill="#000000" font-family="sans-serif" font-size="12" lengthAdjust="spacing" textLength="193.3828" x="331.3578" y="1597.5481">TradingAgentsGraph constructed</text><text fill="#000000" font-family="sans-serif" font-size="12" lengthAdjust="spacing" textLength="90.0703" x="331.3578" y="1611.6809">LLMs initialized</text><text fill="#000000" font-family="sans-serif" font-size="12" lengthAdjust="spacing" textLength="110.2852" x="331.3578" y="1625.8138">workflow compiled</text></g><g class="entity" data-qualified-name="ResolvingPending" id="ent0003"><rect fill="#F0F8FF" height="78.8867" rx="12.5" ry="12.5" style="stroke:#4682B4;stroke-width:0.5;" width="172.4961" x="346.7978" y="1710.3383"/><line style="stroke:#4682B4;stroke-width:0.5;" x1="346.7978" x2="519.2939" y1="1736.8266" y2="1736.8266"/><text fill="#000000" font-family="sans-serif" font-size="14" lengthAdjust="spacing" textLength="119.6494" x="373.2211" y="1728.8734">ResolvingPending</text><text fill="#000000" font-family="sans-serif" font-size="12" lengthAdjust="spacing" textLength="152.4961" x="351.7978" y="1753.4281">Check TradingMemoryLog</text><text fill="#000000" font-family="sans-serif" font-size="12" lengthAdjust="spacing" textLength="148.084" x="351.7978" y="1767.5609">for prior PENDING entries</text><text fill="#000000" font-family="sans-serif" font-size="12" lengthAdjust="spacing" textLength="78.5215" x="351.7978" y="1781.6938">for this ticker</text></g><g class="entity" data-qualified-name="ResolvingCheck" id="ent0004"><polygon fill="#F1F1F1" points="433.0478,1850.2283,445.0478,1862.2283,433.0478,1874.2283,421.0478,1862.2283,433.0478,1850.2283" style="stroke:#181818;stroke-width:0.5;"/></g><g class="entity" data-qualified-name="Reflecting" id="ent0005"><rect fill="#F0F8FF" height="93.0195" rx="12.5" ry="12.5" style="stroke:#4682B4;stroke-width:0.5;" width="271.7891" x="176.1478" y="1966.2283"/><line style="stroke:#4682B4;stroke-width:0.5;" x1="176.1478" x2="447.9369" y1="1992.7166" y2="1992.7166"/><text fill="#000000" font-family="sans-serif" font-size="14" lengthAdjust="spacing" textLength="67.5186" x="278.283" y="1984.7634">Reflecting</text><text fill="#000000" font-family="sans-serif" font-size="12" lengthAdjust="spacing" textLength="175.7109" x="181.1478" y="2009.3181">Fetch actual returns (yfinance)</text><text fill="#000000" font-family="sans-serif" font-size="12" lengthAdjust="spacing" textLength="208.8691" x="181.1478" y="2023.4509">Compute raw_return + alpha vs SPY</text><text fill="#000000" font-family="sans-serif" font-size="12" lengthAdjust="spacing" textLength="203.2266" x="181.1478" y="2037.5838">LLM reflects on each prior decision</text><text fill="#000000" font-family="sans-serif" font-size="12" lengthAdjust="spacing" textLength="251.7891" x="181.1478" y="2051.7166">Memory log updated: PENDING&#8594;RESOLVED</text></g><g class="entity" data-qualified-name="InitializingState" id="ent0006"><rect fill="#F0F8FF" height="93.0195" rx="12.5" ry="12.5" style="stroke:#4682B4;stroke-width:0.5;" width="281.6328" x="171.2278" y="2120.2483"/><line style="stroke:#4682B4;stroke-width:0.5;" x1="171.2278" x2="452.8606" y1="2146.7366" y2="2146.7366"/><text fill="#000000" font-family="sans-serif" font-size="14" lengthAdjust="spacing" textLength="104.9111" x="259.5886" y="2138.7834">InitializingState</text><text fill="#000000" font-family="sans-serif" font-size="12" lengthAdjust="spacing" textLength="183.9609" x="176.2278" y="2163.3381">Propagator.create_initial_state()</text><text fill="#000000" font-family="sans-serif" font-size="12" lengthAdjust="spacing" textLength="221.8125" x="176.2278" y="2177.4709">Injects past_context from memory log</text><text fill="#000000" font-family="sans-serif" font-size="12" lengthAdjust="spacing" textLength="225.0234" x="176.2278" y="2191.6038">Creates AgentState with empty reports</text><text fill="#000000" font-family="sans-serif" font-size="12" lengthAdjust="spacing" textLength="261.6328" x="176.2278" y="2205.7366">Sets up InvestDebateState + RiskDebateState</text></g><path d="M34.3078,215.3783 L251.7824,215.3783 A12.5,12.5 0 0 1 264.2824,227.8783 L264.2824,241.8666 L21.8078,241.8666 L21.8078,227.8783 A12.5,12.5 0 0 1 34.3078,215.3783" fill="#F0F8FF"/><rect fill="none" height="588.0383" rx="12.5" ry="12.5" style="stroke:#4682B4;stroke-width:0.5;" width="242.4746" x="21.8078" y="215.3783"/><line style="stroke:#4682B4;stroke-width:0.5;" x1="21.8078" x2="264.2824" y1="241.8666" y2="241.8666"/><text fill="#000000" font-family="sans-serif" font-size="14" lengthAdjust="spacing" textLength="88.9082" x="98.591" y="233.9134">AnalystPhase</text><g class="entity" data-qualified-name="AnalystPhase.MarketAnalysis" id="ent0008"><rect fill="#F0F8FF" height="78.8867" rx="12.5" ry="12.5" style="stroke:#4682B4;stroke-width:0.5;" width="206.4746" x="33.8078" y="308.8666"/><line style="stroke:#4682B4;stroke-width:0.5;" x1="33.8078" x2="240.2824" y1="335.3548" y2="335.3548"/><text fill="#000000" font-family="sans-serif" font-size="14" lengthAdjust="spacing" textLength="102.498" x="85.7961" y="327.4017">MarketAnalysis</text><text fill="#000000" font-family="sans-serif" font-size="12" lengthAdjust="spacing" textLength="79.1895" x="38.8078" y="351.9564">LLM tool loop</text><text fill="#000000" font-family="sans-serif" font-size="12" lengthAdjust="spacing" textLength="186.4746" x="38.8078" y="366.0892">get_stock_data + get_indicators</text><text fill="#000000" font-family="sans-serif" font-size="12" lengthAdjust="spacing" textLength="145.3887" x="38.8078" y="380.222">market_report populated</text></g><g class="entity" data-qualified-name="AnalystPhase.SocialAnalysis" id="ent0009"><rect fill="#F0F8FF" height="78.8867" rx="12.5" ry="12.5" style="stroke:#4682B4;stroke-width:0.5;" width="182.4922" x="45.7978" y="423.7566"/><line style="stroke:#4682B4;stroke-width:0.5;" x1="45.7978" x2="228.29" y1="450.2448" y2="450.2448"/><text fill="#000000" font-family="sans-serif" font-size="14" lengthAdjust="spacing" textLength="94.8965" x="89.5956" y="442.2917">SocialAnalysis</text><text fill="#000000" font-family="sans-serif" font-size="12" lengthAdjust="spacing" textLength="79.1895" x="50.7978" y="466.8464">LLM tool loop</text><text fill="#000000" font-family="sans-serif" font-size="12" lengthAdjust="spacing" textLength="142.4121" x="50.7978" y="480.9792">news/sentiment sources</text><text fill="#000000" font-family="sans-serif" font-size="12" lengthAdjust="spacing" textLength="162.4922" x="50.7978" y="495.112">sentiment_report populated</text></g><g class="entity" data-qualified-name="AnalystPhase.NewsAnalysis" id="ent0010"><rect fill="#F0F8FF" height="78.8867" rx="12.5" ry="12.5" style="stroke:#4682B4;stroke-width:0.5;" width="187.4082" x="43.3378" y="538.6466"/><line style="stroke:#4682B4;stroke-width:0.5;" x1="43.3378" x2="230.746" y1="565.1348" y2="565.1348"/><text fill="#000000" font-family="sans-serif" font-size="14" lengthAdjust="spacing" textLength="91.8271" x="91.1283" y="557.1817">NewsAnalysis</text><text fill="#000000" font-family="sans-serif" font-size="12" lengthAdjust="spacing" textLength="79.1895" x="48.3378" y="581.7364">LLM tool loop</text><text fill="#000000" font-family="sans-serif" font-size="12" lengthAdjust="spacing" textLength="167.4082" x="48.3378" y="595.8692">get_news + get_global_news</text><text fill="#000000" font-family="sans-serif" font-size="12" lengthAdjust="spacing" textLength="133.957" x="48.3378" y="610.002">news_report populated</text></g><g class="entity" data-qualified-name="AnalystPhase.FundamentalsAnalysis" id="ent0011"><rect fill="#F0F8FF" height="78.8867" rx="12.5" ry="12.5" style="stroke:#4682B4;stroke-width:0.5;" width="203.9844" x="35.0578" y="653.5266"/><line style="stroke:#4682B4;stroke-width:0.5;" x1="35.0578" x2="239.0422" y1="680.0148" y2="680.0148"/><text fill="#000000" font-family="sans-serif" font-size="14" lengthAdjust="spacing" textLength="150.8965" x="61.6017" y="672.0617">FundamentalsAnalysis</text><text fill="#000000" font-family="sans-serif" font-size="12" lengthAdjust="spacing" textLength="79.1895" x="40.0578" y="696.6164">LLM tool loop</text><text fill="#000000" font-family="sans-serif" font-size="12" lengthAdjust="spacing" textLength="176.543" x="40.0578" y="710.7492">get_fundamentals + financials</text><text fill="#000000" font-family="sans-serif" font-size="12" lengthAdjust="spacing" textLength="183.9844" x="40.0578" y="724.882">fundamentals_report populated</text></g><g class="start_entity" data-qualified-name="AnalystPhase..start.AnalystPhase" data-source-line="32" id="ent0010"><ellipse cx="137.0478" cy="262.8666" fill="#222222" rx="10" ry="10" style="stroke:#222222;stroke-width:1;"/></g><g class="end_entity" data-qualified-name="AnalystPhase..end.AnalystPhase" data-source-line="44" id="ent0015"><ellipse cx="137.0478" cy="779.4166" fill="none" rx="11" ry="11" style="stroke:#222222;stroke-width:1;"/><ellipse cx="137.0478" cy="779.4166" fill="#222222" rx="6" ry="6" style="stroke:#222222;stroke-width:1;"/></g><!--link *start*AnalystPhase to MarketAnalysis--><g class="link" data-entity-1="ent0010" data-entity-2="ent0008" data-link-type="dependency" data-source-line="32" id="lnk11"><path d="M137.0478,273.1166 C137.0478,281.7766 137.0478,289.3066 137.0478,302.4666" fill="none" id="*start*AnalystPhase-to-MarketAnalysis" style="stroke:#4682B4;stroke-width:1;"/><polygon fill="#4682B4" points="137.0478,308.4666,141.0478,299.4666,137.0478,303.4666,133.0478,299.4666,137.0478,308.4666" style="stroke:#4682B4;stroke-width:1;"/></g><!--link MarketAnalysis to SocialAnalysis--><g class="link" data-entity-1="ent0008" data-entity-2="ent0009" data-link-type="dependency" data-source-line="35" id="lnk12"><path d="M137.0478,388.1666 C137.0478,399.5166 137.0478,405.9266 137.0478,417.2766" fill="none" id="MarketAnalysis-to-SocialAnalysis" style="stroke:#4682B4;stroke-width:1;"/><polygon fill="#4682B4" points="137.0478,423.2766,141.0478,414.2766,137.0478,418.2766,133.0478,414.2766,137.0478,423.2766" style="stroke:#4682B4;stroke-width:1;"/></g><!--link SocialAnalysis to NewsAnalysis--><g class="link" data-entity-1="ent0009" data-entity-2="ent0010" data-link-type="dependency" data-source-line="38" id="lnk13"><path d="M137.0478,503.0466 C137.0478,514.3966 137.0478,520.8066 137.0478,532.1666" fill="none" id="SocialAnalysis-to-NewsAnalysis" style="stroke:#4682B4;stroke-width:1;"/><polygon fill="#4682B4" points="137.0478,538.1666,141.0478,529.1666,137.0478,533.1666,133.0478,529.1666,137.0478,538.1666" style="stroke:#4682B4;stroke-width:1;"/></g><!--link NewsAnalysis to FundamentalsAnalysis--><g class="link" data-entity-1="ent0010" data-entity-2="ent0011" data-link-type="dependency" data-source-line="41" id="lnk14"><path d="M137.0478,617.9366 C137.0478,629.2866 137.0478,635.6966 137.0478,647.0566" fill="none" id="NewsAnalysis-to-FundamentalsAnalysis" style="stroke:#4682B4;stroke-width:1;"/><polygon fill="#4682B4" points="137.0478,653.0566,141.0478,644.0566,137.0478,648.0566,133.0478,644.0566,137.0478,653.0566" style="stroke:#4682B4;stroke-width:1;"/></g><!--link FundamentalsAnalysis to *end*AnalystPhase--><g class="link" data-entity-1="ent0011" data-entity-2="ent0015" data-link-type="dependency" data-source-line="44" id="lnk16"><path d="M137.0478,732.7366 C137.0478,745.7466 137.0478,753.1866 137.0478,762.0966" fill="none" id="FundamentalsAnalysis-to-*end*AnalystPhase" style="stroke:#4682B4;stroke-width:1;"/><polygon fill="#4682B4" points="137.0478,768.0966,141.0478,759.0966,137.0478,763.0966,133.0478,759.0966,137.0478,768.0966" style="stroke:#4682B4;stroke-width:1;"/></g><path d="M188.5878,864.4183 L509.4979,864.4183 A12.5,12.5 0 0 1 521.9979,876.9183 L521.9979,890.9066 L176.0878,890.9066 L176.0878,876.9183 A12.5,12.5 0 0 1 188.5878,864.4183" fill="#F0F8FF"/><rect fill="none" height="459.0183" rx="12.5" ry="12.5" style="stroke:#4682B4;stroke-width:0.5;" width="345.9102" x="176.0878" y="864.4183"/><line style="stroke:#4682B4;stroke-width:0.5;" x1="176.0878" x2="521.9979" y1="890.9066" y2="890.9066"/><text fill="#000000" font-family="sans-serif" font-size="14" lengthAdjust="spacing" textLength="86.96" x="305.5629" y="882.9534">DebatePhase</text><g class="entity" data-qualified-name="DebatePhase.InvestmentDebate" id="ent0013"><rect fill="#F0F8FF" height="78.8867" rx="12.5" ry="12.5" style="stroke:#4682B4;stroke-width:0.5;" width="289.8184" x="198.1378" y="957.9066"/><line style="stroke:#4682B4;stroke-width:0.5;" x1="198.1378" x2="487.9562" y1="984.3948" y2="984.3948"/><text fill="#000000" font-family="sans-serif" font-size="14" lengthAdjust="spacing" textLength="122.8008" x="281.6466" y="976.4417">InvestmentDebate</text><text fill="#000000" font-family="sans-serif" font-size="12" lengthAdjust="spacing" textLength="131.824" x="203.1378" y="1000.9964">Bull &#8596; Bear alternation</text><text fill="#000000" font-family="sans-serif" font-size="12" lengthAdjust="spacing" textLength="138.1289" x="203.1378" y="1015.1292">N rounds (configurable)</text><text fill="#000000" font-family="sans-serif" font-size="12" lengthAdjust="spacing" textLength="269.8184" x="203.1378" y="1029.262">ResearchManager synthesizes &#8594; ResearchPlan</text></g><g class="entity" data-qualified-name="DebatePhase.TraderProposal" id="ent0014"><rect fill="#F0F8FF" height="64.7539" rx="12.5" ry="12.5" style="stroke:#4682B4;stroke-width:0.5;" width="217.666" x="234.2078" y="1072.7966"/><line style="stroke:#4682B4;stroke-width:0.5;" x1="234.2078" x2="451.8738" y1="1099.2848" y2="1099.2848"/><text fill="#000000" font-family="sans-serif" font-size="14" lengthAdjust="spacing" textLength="103.0449" x="291.5183" y="1091.3317">TraderProposal</text><text fill="#000000" font-family="sans-serif" font-size="12" lengthAdjust="spacing" textLength="191.3203" x="239.2078" y="1115.8864">Trader generates TraderProposal</text><text fill="#000000" font-family="sans-serif" font-size="12" lengthAdjust="spacing" textLength="197.666" x="239.2078" y="1130.0192">with entry_price, stop_loss, sizing</text></g><g class="entity" data-qualified-name="DebatePhase.RiskDebate" id="ent0015"><rect fill="#F0F8FF" height="78.8867" rx="12.5" ry="12.5" style="stroke:#4682B4;stroke-width:0.5;" width="309.9102" x="188.0878" y="1173.5466"/><line style="stroke:#4682B4;stroke-width:0.5;" x1="188.0878" x2="497.9979" y1="1200.0348" y2="1200.0348"/><text fill="#000000" font-family="sans-serif" font-size="14" lengthAdjust="spacing" textLength="76.084" x="305.0009" y="1192.0817">RiskDebate</text><text fill="#000000" font-family="sans-serif" font-size="12" lengthAdjust="spacing" textLength="158.5195" x="193.0878" y="1216.6364">Agg &#8594; Con &#8594; Neu rotation</text><text fill="#000000" font-family="sans-serif" font-size="12" lengthAdjust="spacing" textLength="139.5996" x="193.0878" y="1230.7692">M rounds (configurable)</text><text fill="#000000" font-family="sans-serif" font-size="12" lengthAdjust="spacing" textLength="289.9102" x="193.0878" y="1244.902">PortfolioManager synthesizes &#8594; PortfolioDecision</text></g><g class="start_entity" data-qualified-name="DebatePhase..start.DebatePhase" data-source-line="50" id="ent0018"><ellipse cx="343.0478" cy="911.9066" fill="#222222" rx="10" ry="10" style="stroke:#222222;stroke-width:1;"/></g><g class="end_entity" data-qualified-name="DebatePhase..end.DebatePhase" data-source-line="59" id="ent0022"><ellipse cx="343.0478" cy="1299.4366" fill="none" rx="11" ry="11" style="stroke:#222222;stroke-width:1;"/><ellipse cx="343.0478" cy="1299.4366" fill="#222222" rx="6" ry="6" style="stroke:#222222;stroke-width:1;"/></g><!--link *start*DebatePhase to InvestmentDebate--><g class="link" data-entity-1="ent0018" data-entity-2="ent0013" data-link-type="dependency" data-source-line="50" id="lnk19"><path d="M343.0478,922.1566 C343.0478,930.8166 343.0478,938.3466 343.0478,951.5066" fill="none" id="*start*DebatePhase-to-InvestmentDebate" style="stroke:#4682B4;stroke-width:1;"/><polygon fill="#4682B4" points="343.0478,957.5066,347.0478,948.5066,343.0478,952.5066,339.0478,948.5066,343.0478,957.5066" style="stroke:#4682B4;stroke-width:1;"/></g><!--link InvestmentDebate to TraderProposal--><g class="link" data-entity-1="ent0013" data-entity-2="ent0014" data-link-type="dependency" data-source-line="53" id="lnk20"><path d="M343.0478,1037.1566 C343.0478,1048.7166 343.0478,1055.2466 343.0478,1066.3066" fill="none" id="InvestmentDebate-to-TraderProposal" style="stroke:#4682B4;stroke-width:1;"/><polygon fill="#4682B4" points="343.0478,1072.3066,347.0478,1063.3066,343.0478,1067.3066,339.0478,1063.3066,343.0478,1072.3066" style="stroke:#4682B4;stroke-width:1;"/></g><!--link TraderProposal to RiskDebate--><g class="link" data-entity-1="ent0014" data-entity-2="ent0015" data-link-type="dependency" data-source-line="56" id="lnk21"><path d="M343.0478,1137.9266 C343.0478,1149.0066 343.0478,1155.5666 343.0478,1167.1566" fill="none" id="TraderProposal-to-RiskDebate" style="stroke:#4682B4;stroke-width:1;"/><polygon fill="#4682B4" points="343.0478,1173.1566,347.0478,1164.1566,343.0478,1168.1566,339.0478,1164.1566,343.0478,1173.1566" style="stroke:#4682B4;stroke-width:1;"/></g><!--link RiskDebate to *end*DebatePhase--><g class="link" data-entity-1="ent0015" data-entity-2="ent0022" data-link-type="dependency" data-source-line="59" id="lnk23"><path d="M343.0478,1252.7566 C343.0478,1265.7666 343.0478,1273.2066 343.0478,1282.1166" fill="none" id="RiskDebate-to-*end*DebatePhase" style="stroke:#4682B4;stroke-width:1;"/><polygon fill="#4682B4" points="343.0478,1288.1166,347.0478,1279.1166,343.0478,1283.1166,339.0478,1279.1166,343.0478,1288.1166" style="stroke:#4682B4;stroke-width:1;"/></g><g class="entity" data-qualified-name="Finalizing" id="ent0016"><rect fill="#F0F8FF" height="93.0195" rx="12.5" ry="12.5" style="stroke:#4682B4;stroke-width:0.5;" width="266.2813" x="215.9078" y="1384.4383"/><line style="stroke:#4682B4;stroke-width:0.5;" x1="215.9078" x2="482.189" y1="1410.9266" y2="1410.9266"/><text fill="#000000" font-family="sans-serif" font-size="14" lengthAdjust="spacing" textLength="65.5566" x="316.2701" y="1402.9734">Finalizing</text><text fill="#000000" font-family="sans-serif" font-size="12" lengthAdjust="spacing" textLength="217.9395" x="220.9078" y="1427.5281">SignalProcessor extracts 5-tier rating</text><text fill="#000000" font-family="sans-serif" font-size="12" lengthAdjust="spacing" textLength="152.7422" x="220.9078" y="1441.6609">JSON result logged to disk</text><text fill="#000000" font-family="sans-serif" font-size="12" lengthAdjust="spacing" textLength="246.2813" x="220.9078" y="1455.7938">TradingMemoryLog.store_decision() called</text><text fill="#000000" font-family="sans-serif" font-size="12" lengthAdjust="spacing" textLength="141.1758" x="220.9078" y="1469.9266">(entry marked PENDING)</text></g><g class="entity" data-qualified-name="CheckpointSuspended" id="ent0017"><rect fill="#F0F8FF" height="78.8867" rx="12.5" ry="12.5" style="stroke:#4682B4;stroke-width:0.5;" width="191.4395" x="47.3278" y="44.4883"/><line style="stroke:#4682B4;stroke-width:0.5;" x1="47.3278" x2="238.7672" y1="70.9766" y2="70.9766"/><text fill="#000000" font-family="sans-serif" font-size="14" lengthAdjust="spacing" textLength="150.999" x="67.548" y="63.0234">CheckpointSuspended</text><text fill="#000000" font-family="sans-serif" font-size="12" lengthAdjust="spacing" textLength="149.9297" x="52.3278" y="87.5781">Graph suspended at node</text><text fill="#000000" font-family="sans-serif" font-size="12" lengthAdjust="spacing" textLength="148.9219" x="52.3278" y="101.7109">SQLite checkpoint written</text><text fill="#000000" font-family="sans-serif" font-size="12" lengthAdjust="spacing" textLength="171.4395" x="52.3278" y="115.8438">(if checkpoint_enabled=True)</text></g><g class="start_entity" data-qualified-name=".start." data-source-line="9" id="ent0002"><ellipse cx="572.0478" cy="1430.9483" fill="#222222" rx="10" ry="10" style="stroke:#222222;stroke-width:1;"/></g><g class="entity" data-qualified-name="GMN2" data-source-line="74" id="ent0003"><path d="M273.2878,55.9683 L273.2878,79.9383 L239.0178,83.9383 L273.2878,87.9383 L273.2878,111.8999 A0,0 0 0 0 273.2878,111.8999 L552.7961,111.8999 A0,0 0 0 0 552.7961,111.8999 L552.7961,65.9683 L542.7961,55.9683 L273.2878,55.9683 A0,0 0 0 0 273.2878,55.9683" fill="#FEFFDD" style="stroke:#181818;stroke-width:0.5;"/><path d="M542.7961,55.9683 L542.7961,65.9683 L552.7961,65.9683 L542.7961,55.9683" fill="#FEFFDD" style="stroke:#181818;stroke-width:0.5;"/><text fill="#000000" font-family="sans-serif" font-size="13" lengthAdjust="spacing" textLength="184.1772" x="279.2878" y="73.5366">Checkpoint allows inspection</text><text fill="#000000" font-family="sans-serif" font-size="13" lengthAdjust="spacing" textLength="176.4712" x="279.2878" y="88.8472">and resumption mid-graph.</text><text fill="#000000" font-family="sans-serif" font-size="13" lengthAdjust="spacing" textLength="258.5083" x="279.2878" y="104.1577">Enabled via config["checkpoint_enabled"]</text></g><!--link *start* to Idle--><g class="link" data-entity-1="ent0002" data-entity-2="ent0002" data-link-type="dependency" data-source-line="9" id="lnk3"><path d="M572.1478,1441.3483 C571.8878,1459.2783 569.0078,1498.8483 550.0478,1524.4583 C541.5678,1535.8983 535.466,1542.2832 523.606,1550.6732" fill="none" id="*start*-to-Idle" style="stroke:#4682B4;stroke-width:1;"/><polygon fill="#4682B4" points="518.7078,1554.1383,528.3653,1552.2061,522.7897,1551.2507,523.7451,1545.6751,518.7078,1554.1383" style="stroke:#4682B4;stroke-width:1;"/></g><!--link Idle to ResolvingPending--><g class="link" data-entity-1="ent0002" data-entity-2="ent0003" data-link-type="dependency" data-source-line="13" id="lnk4"><path d="M433.0478,1633.7283 C433.0478,1657.0583 433.0478,1680.6383 433.0478,1703.9683" fill="none" id="Idle-to-ResolvingPending" style="stroke:#4682B4;stroke-width:1;"/><polygon fill="#4682B4" points="433.0478,1709.9683,437.0478,1700.9683,433.0478,1704.9683,429.0478,1700.9683,433.0478,1709.9683" style="stroke:#4682B4;stroke-width:1;"/><text fill="#000000" font-family="sans-serif" font-size="13" lengthAdjust="spacing" textLength="184.7168" x="434.0478" y="1676.9066">propagate(ticker, date) called</text></g><!--link ResolvingPending to ResolvingCheck--><g class="link" data-entity-1="ent0003" data-entity-2="ent0004" data-link-type="dependency" data-source-line="18" id="lnk5"><path d="M433.0478,1789.7283 C433.0478,1810.8383 433.0478,1829.4383 433.0478,1843.5883" fill="none" id="ResolvingPending-to-ResolvingCheck" style="stroke:#4682B4;stroke-width:1;"/><polygon fill="#4682B4" points="433.0478,1849.5883,437.0478,1840.5883,433.0478,1844.5883,429.0478,1840.5883,433.0478,1849.5883" style="stroke:#4682B4;stroke-width:1;"/></g><!--link ResolvingCheck to Reflecting--><g class="link" data-entity-1="ent0004" data-entity-2="ent0005" data-link-type="dependency" data-source-line="20" id="lnk6"><path d="M423.6478,1865.3783 C406.5978,1869.7483 370.4178,1881.2683 350.0478,1904.2283 C334.8078,1921.4083 327.1115,1939.2903 321.5815,1960.0603" fill="none" id="ResolvingCheck-to-Reflecting" style="stroke:#4682B4;stroke-width:1;"/><polygon fill="#4682B4" points="320.0378,1965.8583,326.2187,1958.1904,321.3242,1961.0266,318.488,1956.1321,320.0378,1965.8583" style="stroke:#4682B4;stroke-width:1;"/><text fill="#000000" font-family="sans-serif" font-size="13" lengthAdjust="spacing" textLength="140.0356" x="351.0478" y="1917.7966">pending entries found</text><text fill="#000000" font-family="sans-serif" font-size="13" lengthAdjust="spacing" textLength="135.5034" x="353.3139" y="1933.1072">(prices now available)</text></g><!--link ResolvingCheck to InitializingState--><g class="link" data-entity-1="ent0004" data-entity-2="ent0006" data-link-type="dependency" data-source-line="21" id="lnk7"><path d="M442.0078,1865.9683 C456.4578,1870.9183 484.4778,1882.8883 496.0478,1904.2283 C517.4878,1943.7583 505.2378,2001.0983 465.0478,2059.2483 C448.3978,2083.3483 429.3703,2100.3606 405.2903,2116.6206" fill="none" id="ResolvingCheck-to-InitializingState" style="stroke:#4682B4;stroke-width:1;"/><polygon fill="#4682B4" points="400.3178,2119.9783,410.015,2118.2568,404.4616,2117.1802,405.5381,2111.6267,400.3178,2119.9783" style="stroke:#4682B4;stroke-width:1;"/><text fill="#000000" font-family="sans-serif" font-size="13" lengthAdjust="spacing" textLength="119.0059" x="506.0478" y="2017.8066">no pending entries</text></g><!--link Reflecting to InitializingState--><g class="link" data-entity-1="ent0005" data-entity-2="ent0006" data-link-type="dependency" data-source-line="25" id="lnk8"><path d="M312.0478,2059.3483 C312.0478,2078.4983 312.0478,2094.7383 312.0478,2113.9183" fill="none" id="Reflecting-to-InitializingState" style="stroke:#4682B4;stroke-width:1;"/><polygon fill="#4682B4" points="312.0478,2119.9183,316.0478,2110.9183,312.0478,2114.9183,308.0478,2110.9183,312.0478,2119.9183" style="stroke:#4682B4;stroke-width:1;"/></g><!--link InitializingState to AnalystPhase--><g class="link" data-entity-1="ent0006" data-entity-2="ent0007" data-link-type="dependency" data-source-line="29" id="lnk9"><path d="M199.0978,2119.8483 C158.7378,2095.4283 123.0478,2060.5883 123.0478,2013.7383 C123.0478,1092.9283 123.0478,1092.9283 123.0478,1092.9283 C123.0478,998.8183 125.47,902.2043 128.83,809.6843" fill="none" id="InitializingState-to-AnalystPhase" style="stroke:#4682B4;stroke-width:1;"/><polygon fill="#4682B4" points="129.0478,803.6883,124.7238,812.5372,128.8663,808.685,132.7185,812.8275,129.0478,803.6883" style="stroke:#4682B4;stroke-width:1;"/></g><!--link AnalystPhase to DebatePhase--><g class="link" data-entity-1="ent0007" data-entity-2="ent0012" data-link-type="dependency" data-source-line="47" id="lnk17"><path d="M246.7978,803.7983 C253.9578,824.0383 259.1071,838.6017 266.1171,858.4217" fill="none" id="AnalystPhase-to-DebatePhase" style="stroke:#4682B4;stroke-width:1;"/><polygon fill="#4682B4" points="268.1178,864.0783,268.8879,854.2596,266.4506,859.3644,261.3457,856.9271,268.1178,864.0783" style="stroke:#4682B4;stroke-width:1;"/></g><!--link DebatePhase to Finalizing--><g class="link" data-entity-1="ent0012" data-entity-2="ent0016" data-link-type="dependency" data-source-line="62" id="lnk24"><path d="M349.0478,1323.4883 C349.0478,1346.1083 349.0478,1361.0183 349.0478,1378.1983" fill="none" id="DebatePhase-to-Finalizing" style="stroke:#4682B4;stroke-width:1;"/><polygon fill="#4682B4" points="349.0478,1384.1983,353.0478,1375.1983,349.0478,1379.1983,345.0478,1375.1983,349.0478,1384.1983" style="stroke:#4682B4;stroke-width:1;"/></g><!--link Finalizing to Idle--><g class="link" data-entity-1="ent0016" data-entity-2="ent0002" data-link-type="dependency" data-source-line="66" id="lnk25"><path d="M339.2078,1477.5083 C337.9678,1493.0683 339.0978,1510.1483 346.0478,1524.4583 C351.5078,1535.6883 355.3792,1541.5792 364.7192,1550.1592" fill="none" id="Finalizing-to-Idle" style="stroke:#4682B4;stroke-width:1;"/><polygon fill="#4682B4" points="369.1378,1554.2183,365.2159,1545.184,365.4556,1550.8357,359.8038,1551.0754,369.1378,1554.2183" style="stroke:#4682B4;stroke-width:1;"/><text fill="#000000" font-family="sans-serif" font-size="13" lengthAdjust="spacing" textLength="198.5737" x="347.0478" y="1521.0266">returns (final_state, signal_dict)</text></g><!--link AnalystPhase to CheckpointSuspended--><g class="link" data-entity-1="ent0007" data-entity-2="ent0017" data-link-type="dependency" data-source-line="70" id="lnk26"><path d="M215.8478,214.9583 C213.7678,193.8683 209.3878,173.1483 202.0478,153.3783 C198.1078,142.7883 195.4677,137.4401 188.3177,128.4701" fill="none" id="AnalystPhase-to-CheckpointSuspended" style="stroke:#4682B4;stroke-width:1;"/><polygon fill="#4682B4" points="184.5778,123.7783,187.0597,133.3093,187.6944,127.6881,193.3155,128.3228,184.5778,123.7783" style="stroke:#4682B4;stroke-width:1;"/><text fill="#000000" font-family="sans-serif" font-size="13" lengthAdjust="spacing" textLength="140.1436" x="211.2978" y="166.9466">interrupt_after analyst</text><text fill="#000000" font-family="sans-serif" font-size="13" lengthAdjust="spacing" textLength="89.2734" x="236.7328" y="182.2572">(if configured)</text></g><!--link CheckpointSuspended to AnalystPhase--><g class="link" data-entity-1="ent0017" data-entity-2="ent0007" data-link-type="dependency" data-source-line="71" id="lnk27"><path d="M63.5878,123.6783 C53.3378,132.0383 44.2678,141.8983 38.0478,153.3783 C18.5278,189.4083 14.3356,223.5765 20.4056,263.4865" fill="none" id="CheckpointSuspended-to-AnalystPhase" style="stroke:#4682B4;stroke-width:1;"/><polygon fill="#4682B4" points="21.3078,269.4183,23.909,259.9192,20.556,264.4751,16,261.1221,21.3078,269.4183" style="stroke:#4682B4;stroke-width:1;"/><text fill="#000000" font-family="sans-serif" font-size="13" lengthAdjust="spacing" textLength="154.1655" x="39.0478" y="174.4466">resume from checkpoint</text></g><?plantuml-src TLRDRjj64BxpAGOv558JkwTUZDI0_nAui1t52WeKKK2ibqDggzKkiRkqeXO5Ul8317b2Fqc_NLAqVfYBHCxkp7mpyyqCWmgQwPCJXJBLMSKcU7h-xpkzTwAUqzLNbarGrj1FTCjBwzPqeqgMQmcbQH21VPRvXJArS699FahedupeNCX5vMnZYWkhhQCphIIVwuRZcNK5krO-3SowavyvPrVxud-pxFFFN-Zew9Ik2ytmbdp4PphPnTr2bjRuu1ePk9YPcvjRJygee8HMVqV9ohf5gUqAzvQrqbnaMR8L7Topj_eHzYPiebaug9sjHGMFew3aWjqRAl0o9YbqqctH32XUp5akDlZQrDtOQcPAH5SxXT_9rTtbzTrx0dIdsBT7OQuyjQuEZBSctxwLSujadfvc1svtWaZNisnFlRrIQfQXYx3JxM1G6OisCoE0b7WrI9Lu54gB1ytZ8MlNc_H2cYW1eyRksts9PiltEmvoJaA6HcXo71fdF8tMfJB2I1xFp0MAr43BYLNUdjDh4hgU2thqD9tycKeCrMJK4uZA0YRR31SibGTvPwRZhhOLDNMiO76ooV_pqxVxg-c7cp-kBcEoUdI3eVNq6uXvqb75kcFf6BAy8rwUT4O8vzhybM3MmeSSH0tyDL3fx9AMFK04dRGz9LQtrbSgp8cNTLWZrjgw0BfC6PQQ6bWUsOTBVi35zlPhkbT-iIK1nmy0n_ZEZD1h7oPpuVlGjcMfbJVjTolSWaDxh3mEslkxOkGX5YHOgn6ChMUcue04MBd8aNS1R56Wm0qPKuKubib0tiP5jQqR7GkKmSEUxOXYQYNYE42nApv4ONZbV_78frhYXxnjd8mzrui6_UzPZVxlOEZ0-xPmE0FHVnTxfUq3I14bBQv1rpice-DtQ4iHaGfz263eS1X8kNKJWDfMGv1n_cmT3M8Qz1AnWI9nKEzG9yfR2kxGQqkqmwwMnT5uUwCFRVy0OPqtMjFpqtSwP-4m3W8x8q9gz3jAImTJ1ErLggfnQMxD30ONBilvhJ2YOaT-RSASFPO2zjtJDzgSJxGmCTO3jn5a7EViOgDRBtGFSLVShINuGF-oIwsyUmDRAFKp9kCwJtFs3IpPEjVMUpocBeqWzWodsTrtTk_-HGJNPrMLuhd0A8p_TzmW9Q5Bp-sFqZD1iKkhbVrHVleBbzrGZVYsF6_HOBl4YRdWcEvYwkZQIu1ugYgy8KWqfCVKnanq8ax9Nu-20X9a41TdvlVf1rINVQD3d9CL5-0s5O0mC_jxzXZfT9nl5i1eix2nrrBMAGsTOhC3nbcs1MdphG5i_KwAVT8DybYWY3Z720lZJKXf7zPMOM8tFku-M3_flg9yBn41gx5W3E-FDmfQijUYbLCXC6eqKkMMF6SJIrJyziarsB-7FJRi6A_iN5E7N9Hu8j6gTTQxsdCnpeRKzrT3IeHlbjpkgXTmMMPitCwgcWUovH0MiEH5Ybx5frVy8iEfZ9J4iJ15QxvE7vfBLHnLCMt7EBjgWwT79JhKdryTvkRLbmo-A6B9_WS0?></g></svg>