<svg xmlns="http://www.w3.org/2000/svg" xmlns:xlink="http://www.w3.org/1999/xlink" contentStyleType="text/css" data-diagram-type="DESCRIPTION" height="913px" preserveAspectRatio="none" style="width:1610px;height:913px;background:#FFFFFF;" version="1.1" viewBox="0 0 1610 913" width="1610px" zoomAndPan="magnify"><?plantuml 1.2026.3?><defs/><g><g class="title" data-source-line="1"><text fill="#000000" font-family="sans-serif" font-size="14" font-weight="700" lengthAdjust="spacing" textLength="203.5537" x="699.8731" y="23.5352">TradingAgents &#8212; Use Cases</text></g><!--cluster TradingAgents System--><g class="cluster" data-qualified-name="TradingAgents System" data-source-line="11" id="ent0006"><rect fill="none" height="698" rx="2.5" ry="2.5" style="stroke:#181818;stroke-width:1;" width="1417.56" x="178.74" y="72.0683"/><text fill="#000000" font-family="sans-serif" font-size="14" font-weight="700" lengthAdjust="spacing" textLength="163.1875" x="805.9263" y="87.6034">TradingAgents System</text></g><!--entity UC1--><g class="entity" data-qualified-name="TradingAgents System.UC1" data-source-line="13" id="ent0007"><ellipse cx="564.4973" cy="474.0688" fill="#F1F1F1" rx="76.3073" ry="25.6805" style="stroke:#181818;stroke-width:0.5;"/><text fill="#000000" font-family="sans-serif" font-size="14" lengthAdjust="spacing" textLength="94.0215" x="517.4865" y="469.6542">Analyze stock</text><text fill="#000000" font-family="sans-serif" font-size="14" lengthAdjust="spacing" textLength="106.5859" x="511.2043" y="486.1425">for a given date</text></g><!--entity UC2--><g class="entity" data-qualified-name="TradingAgents System.UC2" data-source-line="14" id="ent0008"><ellipse cx="850.6189" cy="474.0685" fill="#F1F1F1" rx="71.4789" ry="24.2302" style="stroke:#181818;stroke-width:0.5;"/><text fill="#000000" font-family="sans-serif" font-size="14" lengthAdjust="spacing" textLength="52.5889" x="824.3245" y="467.454">Run full</text><text fill="#000000" font-family="sans-serif" font-size="14" lengthAdjust="spacing" textLength="106.3672" x="797.4353" y="483.9423">analyst pipeline</text></g><!--entity UC3--><g class="entity" data-qualified-name="TradingAgents System.UC3" data-source-line="15" id="ent0009"><ellipse cx="1164.2346" cy="388.07" fill="#F1F1F1" rx="99.8046" ry="26.2818" style="stroke:#181818;stroke-width:0.5;"/><text fill="#000000" font-family="sans-serif" font-size="14" lengthAdjust="spacing" textLength="136.2607" x="1096.1043" y="384.5188">Conduct investment</text><text fill="#000000" font-family="sans-serif" font-size="14" lengthAdjust="spacing" textLength="137.1152" x="1095.677" y="401.0071">debate (Bull vs Bear)</text></g><!--entity UC4--><g class="entity" data-qualified-name="TradingAgents System.UC4" data-source-line="16" id="ent0010"><ellipse cx="1164.2329" cy="302.0665" fill="#F1F1F1" rx="72.0529" ry="24.4082" style="stroke:#181818;stroke-width:0.5;"/><text fill="#000000" font-family="sans-serif" font-size="14" lengthAdjust="spacing" textLength="106.3672" x="1111.0494" y="301.4002">Generate trader</text><text fill="#000000" font-family="sans-serif" font-size="14" lengthAdjust="spacing" textLength="59.4658" x="1134.5" y="317.8885">proposal</text></g><!--entity UC5--><g class="entity" data-qualified-name="TradingAgents System.UC5" data-source-line="17" id="ent0011"><ellipse cx="1164.2326" cy="218.0683" fill="#F1F1F1" rx="103.8026" ry="24.4" style="stroke:#181818;stroke-width:0.5;"/><text fill="#000000" font-family="sans-serif" font-size="14" lengthAdjust="spacing" textLength="86.4063" x="1121.0295" y="211.7217">Conduct risk</text><text fill="#000000" font-family="sans-serif" font-size="14" lengthAdjust="spacing" textLength="155.333" x="1086.5661" y="228.21">debate (Agg/Con/Neu)</text></g><!--entity UC6--><g class="entity" data-qualified-name="TradingAgents System.UC6" data-source-line="18" id="ent0012"><ellipse cx="1164.2253" cy="134.0726" fill="#F1F1F1" rx="82.9153" ry="25.0443" style="stroke:#181818;stroke-width:0.5;"/><text fill="#000000" font-family="sans-serif" font-size="14" lengthAdjust="spacing" textLength="88.6279" x="1119.9113" y="128.7161">Produce final</text><text fill="#000000" font-family="sans-serif" font-size="14" lengthAdjust="spacing" textLength="119.5469" x="1104.4519" y="145.2044">portfolio decision</text></g><!--entity UC7--><g class="entity" data-qualified-name="TradingAgents System.UC7" data-source-line="19" id="ent0013"><ellipse cx="1484.6735" cy="134.064" fill="#F1F1F1" rx="87.9135" ry="24.4957" style="stroke:#181818;stroke-width:0.5;"/><text fill="#000000" font-family="sans-serif" font-size="14" lengthAdjust="spacing" textLength="76.5967" x="1446.3751" y="127.8671">View signal</text><text fill="#000000" font-family="sans-serif" font-size="14" lengthAdjust="spacing" textLength="130.2656" x="1419.5407" y="144.3554">(Buy/Hold/Sell tier)</text></g><!--entity UC8--><g class="entity" data-qualified-name="TradingAgents System.UC8" data-source-line="21" id="ent0014"><ellipse cx="281.9681" cy="645.0639" fill="#F1F1F1" rx="87.2281" ry="25.2456" style="stroke:#181818;stroke-width:0.5;"/><text fill="#000000" font-family="sans-serif" font-size="14" lengthAdjust="spacing" textLength="98.5332" x="232.7015" y="640.0089">Configure LLM</text><text fill="#000000" font-family="sans-serif" font-size="14" lengthAdjust="spacing" textLength="124.8584" x="219.5389" y="656.4972">provider &amp; models</text></g><!--entity UC9--><g class="entity" data-qualified-name="TradingAgents System.UC9" data-source-line="22" id="ent0015"><ellipse cx="281.9686" cy="730.0659" fill="#F1F1F1" rx="68.3886" ry="24.3376" style="stroke:#181818;stroke-width:0.5;"/><text fill="#000000" font-family="sans-serif" font-size="14" lengthAdjust="spacing" textLength="101.0557" x="231.4407" y="729.5105">Configure data</text><text fill="#000000" font-family="sans-serif" font-size="14" lengthAdjust="spacing" textLength="54.0107" x="254.9632" y="745.9988">vendors</text></g><!--entity UC10--><g class="entity" data-qualified-name="TradingAgents System.UC10" data-source-line="23" id="ent0016"><ellipse cx="281.9721" cy="387.0644" fill="#F1F1F1" rx="79.4321" ry="25.8161" style="stroke:#181818;stroke-width:0.5;"/><text fill="#000000" font-family="sans-serif" font-size="14" lengthAdjust="spacing" textLength="100.3926" x="231.7758" y="382.8467">Enable/disable</text><text fill="#000000" font-family="sans-serif" font-size="14" lengthAdjust="spacing" textLength="110.4688" x="226.7377" y="399.335">analyst modules</text></g><!--entity UC11--><g class="entity" data-qualified-name="TradingAgents System.UC11" data-source-line="24" id="ent0017"><ellipse cx="281.9719" cy="473.0644" fill="#F1F1F1" rx="64.0019" ry="25.2362" style="stroke:#181818;stroke-width:0.5;"/><text fill="#000000" font-family="sans-serif" font-size="14" lengthAdjust="spacing" textLength="71.1963" x="246.3738" y="467.9954">Set debate</text><text fill="#000000" font-family="sans-serif" font-size="14" lengthAdjust="spacing" textLength="90.4668" x="236.7385" y="484.4836">round counts</text></g><!--entity UC12--><g class="entity" data-qualified-name="TradingAgents System.UC12" data-source-line="26" id="ent0018"><ellipse cx="850.6201" cy="642.0639" fill="#F1F1F1" rx="88.8101" ry="25.2756" style="stroke:#181818;stroke-width:0.5;"/><text fill="#000000" font-family="sans-serif" font-size="14" lengthAdjust="spacing" textLength="101.1172" x="800.0615" y="637.0536">Reflect on past</text><text fill="#000000" font-family="sans-serif" font-size="14" lengthAdjust="spacing" textLength="127.0322" x="787.104" y="653.5419">decision outcomes</text></g><!--entity UC13--><g class="entity" data-qualified-name="TradingAgents System.UC13" data-source-line="27" id="ent0019"><ellipse cx="850.6222" cy="390.0648" fill="#F1F1F1" rx="88.4522" ry="24.3365" style="stroke:#181818;stroke-width:0.5;"/><text fill="#000000" font-family="sans-serif" font-size="14" lengthAdjust="spacing" textLength="70.5332" x="815.3556" y="383.6184">Inject past</text><text fill="#000000" font-family="sans-serif" font-size="14" lengthAdjust="spacing" textLength="132.0703" x="784.587" y="400.1067">context into agents</text></g><!--entity UC14--><g class="entity" data-qualified-name="TradingAgents System.UC14" data-source-line="28" id="ent0020"><ellipse cx="281.9745" cy="559.0685" fill="#F1F1F1" rx="64.3545" ry="25.4002" style="stroke:#181818;stroke-width:0.5;"/><text fill="#000000" font-family="sans-serif" font-size="14" lengthAdjust="spacing" textLength="90.3232" x="236.8129" y="556.8941">Resume from</text><text fill="#000000" font-family="sans-serif" font-size="14" lengthAdjust="spacing" textLength="74.3955" x="244.7768" y="573.3824">checkpoint</text></g><!--entity UC15--><g class="entity" data-qualified-name="TradingAgents System.UC15" data-source-line="30" id="ent0021"><ellipse cx="1164.229" cy="730.0719" fill="#F1F1F1" rx="89.949" ry="24.4636" style="stroke:#181818;stroke-width:0.5;"/><text fill="#000000" font-family="sans-serif" font-size="14" lengthAdjust="spacing" textLength="77.1572" x="1125.6504" y="723.8249">Fetch stock</text><text fill="#000000" font-family="sans-serif" font-size="14" lengthAdjust="spacing" textLength="133.5879" x="1097.4351" y="740.3132">price &amp; OHLCV data</text></g><!--entity UC16--><g class="entity" data-qualified-name="TradingAgents System.UC16" data-source-line="31" id="ent0022"><ellipse cx="1164.2298" cy="474.0728" fill="#F1F1F1" rx="69.8698" ry="24.7445" style="stroke:#181818;stroke-width:0.5;"/><text fill="#000000" font-family="sans-serif" font-size="14" lengthAdjust="spacing" textLength="101.4111" x="1113.5243" y="472.885">Fetch technical</text><text fill="#000000" font-family="sans-serif" font-size="14" lengthAdjust="spacing" textLength="67.1973" x="1130.6312" y="489.3733">indicators</text></g><!--entity UC17--><g class="entity" data-qualified-name="TradingAgents System.UC17" data-source-line="32" id="ent0023"><ellipse cx="1164.2298" cy="559.0712" fill="#F1F1F1" rx="89.3798" ry="25.5229" style="stroke:#181818;stroke-width:0.5;"/><text fill="#000000" font-family="sans-serif" font-size="14" lengthAdjust="spacing" textLength="126.4717" x="1100.994" y="556.7161">Fetch fundamental</text><text fill="#000000" font-family="sans-serif" font-size="14" lengthAdjust="spacing" textLength="107.4814" x="1110.4891" y="573.2044">data (financials)</text></g><!--entity UC18--><g class="entity" data-qualified-name="TradingAgents System.UC18" data-source-line="33" id="ent0024"><ellipse cx="1164.2337" cy="645.0676" fill="#F1F1F1" rx="72.8737" ry="25.6693" style="stroke:#181818;stroke-width:0.5;"/><text fill="#000000" font-family="sans-serif" font-size="14" lengthAdjust="spacing" textLength="89.4346" x="1119.5164" y="640.6369">Fetch news &amp;</text><text fill="#000000" font-family="sans-serif" font-size="14" lengthAdjust="spacing" textLength="101.6436" x="1113.4119" y="657.1251">sentiment data</text></g><!--entity UC19--><g class="entity" data-qualified-name="TradingAgents System.UC19" data-source-line="35" id="ent0025"><ellipse cx="1484.6749" cy="572.0658" fill="#F1F1F1" rx="64.9649" ry="24.6875" style="stroke:#181818;stroke-width:0.5;"/><text fill="#000000" font-family="sans-serif" font-size="14" lengthAdjust="spacing" textLength="60.9014" x="1454.2242" y="566.1659">Generate</text><text fill="#000000" font-family="sans-serif" font-size="14" lengthAdjust="spacing" textLength="94.2197" x="1437.565" y="582.6542">analyst report</text></g><!--entity UC20--><g class="entity" data-qualified-name="TradingAgents System.UC20" data-source-line="36" id="ent0026"><ellipse cx="1484.6729" cy="302.0729" fill="#F1F1F1" rx="95.6329" ry="25.5346" style="stroke:#181818;stroke-width:0.5;"/><text fill="#000000" font-family="sans-serif" font-size="14" lengthAdjust="spacing" textLength="135.5566" x="1416.8946" y="299.7007">Generate structured</text><text fill="#000000" font-family="sans-serif" font-size="14" lengthAdjust="spacing" textLength="115.5342" x="1426.9058" y="316.1889">output (Pydantic)</text></g><!--entity UC21--><g class="entity" data-qualified-name="TradingAgents System.UC21" data-source-line="39" id="ent0027"><ellipse cx="281.9727" cy="215.0717" fill="#F1F1F1" rx="70.2527" ry="24.8735" style="stroke:#181818;stroke-width:0.5;"/><text fill="#000000" font-family="sans-serif" font-size="14" lengthAdjust="spacing" textLength="101.3906" x="231.2774" y="213.687">Run interactive</text><text fill="#000000" font-family="sans-serif" font-size="14" lengthAdjust="spacing" textLength="70.7451" x="246.6002" y="230.1752">CLI wizard</text></g><!--entity UC22--><g class="entity" data-qualified-name="TradingAgents System.UC22" data-source-line="40" id="ent0028"><ellipse cx="281.9687" cy="301.0721" fill="#F1F1F1" rx="82.8987" ry="25.6538" style="stroke:#181818;stroke-width:0.5;"/><text fill="#000000" font-family="sans-serif" font-size="14" lengthAdjust="spacing" textLength="101.9717" x="230.9828" y="296.6186">View live agent</text><text fill="#000000" font-family="sans-serif" font-size="14" lengthAdjust="spacing" textLength="116.3066" x="223.8154" y="313.1068">execution output</text></g><!--entity UC23--><g class="entity" data-qualified-name="TradingAgents System.UC23" data-source-line="41" id="ent0029"><ellipse cx="281.9741" cy="131.067" fill="#F1F1F1" rx="61.8041" ry="24.2488" style="stroke:#181818;stroke-width:0.5;"/><text fill="#000000" font-family="sans-serif" font-size="14" lengthAdjust="spacing" textLength="91.2598" x="236.3442" y="130.6521">Browse saved</text><text fill="#000000" font-family="sans-serif" font-size="14" lengthAdjust="spacing" textLength="45.7734" x="259.0874" y="147.1404">results</text></g><!--entity DEV--><g class="entity" data-qualified-name="DEV" data-source-line="6" id="ent0002"><ellipse cx="68.8701" cy="622.8183" fill="#F1F1F1" rx="16" ry="16" style="stroke:#181818;stroke-width:0.5;"/><path d="M68.8701,642.8183 C72.8701,642.8183 75.8701,642.8183 79.8701,638.8183 C87.8701,638.8183 95.8701,646.8183 95.8701,654.8183 L95.8701,658.8183 C95.8701,662.8183 91.8701,666.8183 87.8701,666.8183 L49.8701,666.8183 C45.8701,666.8183 41.8701,662.8183 41.8701,658.8183 L41.8701,654.8183 C41.8701,646.8183 49.8701,638.8183 57.8701,638.8183 C61.8701,642.8183 64.8701,642.8183 68.8701,642.8183" fill="#F1F1F1" style="stroke:#181818;stroke-width:0.5;"/><text fill="#000000" font-family="sans-serif" font-size="14" lengthAdjust="spacing" textLength="125.7402" x="6" y="680.8534">Developer / Quant</text></g><!--entity CLI_USER--><g class="entity" data-qualified-name="CLI_USER" data-source-line="7" id="ent0003"><ellipse cx="68.8697" cy="155.8183" fill="#F1F1F1" rx="16" ry="16" style="stroke:#181818;stroke-width:0.5;"/><path d="M68.8697,175.8183 C72.8697,175.8183 75.8697,175.8183 79.8697,171.8183 C87.8697,171.8183 95.8697,179.8183 95.8697,187.8183 L95.8697,191.8183 C95.8697,195.8183 91.8697,199.8183 87.8697,199.8183 L49.8697,199.8183 C45.8697,199.8183 41.8697,195.8183 41.8697,191.8183 L41.8697,187.8183 C41.8697,179.8183 49.8697,171.8183 57.8697,171.8183 C61.8697,175.8183 64.8697,175.8183 68.8697,175.8183" fill="#F1F1F1" style="stroke:#181818;stroke-width:0.5;"/><text fill="#000000" font-family="sans-serif" font-size="14" lengthAdjust="spacing" textLength="55.9795" x="40.88" y="213.8534">CLI User</text></g><!--entity LLM--><g class="entity" data-qualified-name="LLM" data-source-line="8" id="ent0004"><ellipse cx="1164.2372" cy="806.3383" fill="#F1F1F1" rx="16" ry="16" style="stroke:#181818;stroke-width:0.5;"/><path d="M1164.2372,826.3383 C1168.2372,826.3383 1171.2372,826.3383 1175.2372,822.3383 C1183.2372,822.3383 1191.2372,830.3383 1191.2372,838.3383 L1191.2372,842.3383 C1191.2372,846.3383 1187.2372,850.3383 1183.2372,850.3383 L1145.2372,850.3383 C1141.2372,850.3383 1137.2372,846.3383 1137.2372,842.3383 L1137.2372,838.3383 C1137.2372,830.3383 1145.2372,822.3383 1153.2372,822.3383 C1157.2372,826.3383 1160.2372,826.3383 1164.2372,826.3383" fill="#F1F1F1" style="stroke:#181818;stroke-width:0.5;"/><text fill="#000000" font-family="sans-serif" font-size="14" lengthAdjust="spacing" textLength="87.1172" x="1096.37" y="864.3734">LLM Provider</text><text fill="#000000" font-family="sans-serif" font-size="14" lengthAdjust="spacing" textLength="135.7344" x="1096.37" y="880.8617">(OpenAI/Anthropic/</text><text fill="#000000" font-family="sans-serif" font-size="14" lengthAdjust="spacing" textLength="99.6885" x="1096.37" y="897.35">Google/Azure)</text></g><!--entity DATA--><g class="entity" data-qualified-name="DATA" data-source-line="9" id="ent0005"><ellipse cx="850.6212" cy="802.3383" fill="#F1F1F1" rx="16" ry="16" style="stroke:#181818;stroke-width:0.5;"/><path d="M850.6212,822.3383 C854.6212,822.3383 857.6212,822.3383 861.6212,818.3383 C869.6212,818.3383 877.6212,826.3383 877.6212,834.3383 L877.6212,838.3383 C877.6212,842.3383 873.6212,846.3383 869.6212,846.3383 L831.6212,846.3383 C827.6212,846.3383 823.6212,842.3383 823.6212,838.3383 L823.6212,834.3383 C823.6212,826.3383 831.6212,818.3383 839.6212,818.3383 C843.6212,822.3383 846.6212,822.3383 850.6212,822.3383" fill="#F1F1F1" style="stroke:#181818;stroke-width:0.5;"/><text fill="#000000" font-family="sans-serif" font-size="14" lengthAdjust="spacing" textLength="82.3525" x="762.67" y="860.3734">Market Data</text><text fill="#000000" font-family="sans-serif" font-size="14" lengthAdjust="spacing" textLength="55.6992" x="762.67" y="876.8617">Provider</text><text fill="#000000" font-family="sans-serif" font-size="14" lengthAdjust="spacing" textLength="175.9023" x="762.67" y="893.35">(yfinance / AlphaVantage)</text></g><!--link DEV to UC1--><g class="link" data-entity-1="ent0002" data-entity-2="ent0007" data-link-type="dependency" data-source-line="45" id="lnk30"><path d="M88.54,684.1283 C105.36,714.3283 133.21,753.9483 170.74,772.0683 C250.17,810.4183 291.64,814.0783 369.2,772.0683 C479.16,712.4883 534.9292,566.4285 554.1892,505.5885" fill="none" id="DEV-to-UC1" style="stroke:#181818;stroke-width:1;"/><polygon fill="#181818" points="556,499.8683,549.4703,507.2414,554.491,504.6351,557.0972,509.6558,556,499.8683" style="stroke:#181818;stroke-width:1;"/></g><!--link DEV to UC8--><g class="link" data-entity-1="ent0002" data-entity-2="ent0014" data-link-type="dependency" data-source-line="46" id="lnk31"><path d="M132.06,645.0683 C151.65,645.0683 167.64,645.0683 188.58,645.0683" fill="none" id="DEV-to-UC8" style="stroke:#181818;stroke-width:1;"/><polygon fill="#181818" points="194.58,645.0683,185.58,641.0683,189.58,645.0683,185.58,649.0683,194.58,645.0683" style="stroke:#181818;stroke-width:1;"/></g><!--link DEV to UC9--><g class="link" data-entity-1="ent0002" data-entity-2="ent0015" data-link-type="dependency" data-source-line="47" id="lnk32"><path d="M132.13,672.0583 C144.87,677.4483 158.21,683.0083 170.74,688.0683 C191.25,696.3383 208.456,702.9908 227.996,710.3608" fill="none" id="DEV-to-UC9" style="stroke:#181818;stroke-width:1;"/><polygon fill="#181818" points="233.61,712.4783,226.6007,705.5595,228.9317,710.7137,223.7774,713.0448,233.61,712.4783" style="stroke:#181818;stroke-width:1;"/></g><!--link DEV to UC10--><g class="link" data-entity-1="ent0002" data-entity-2="ent0016" data-link-type="dependency" data-source-line="48" id="lnk33"><path d="M78.71,606.0483 C91.38,558.4483 119.1,478.3683 170.74,430.0683 C183.87,417.7883 195.2972,411.025 212.0272,404.615" fill="none" id="DEV-to-UC10" style="stroke:#181818;stroke-width:1;"/><polygon fill="#181818" points="217.63,402.4683,207.7946,401.9531,212.961,404.2572,210.6569,409.4235,217.63,402.4683" style="stroke:#181818;stroke-width:1;"/></g><!--link DEV to UC11--><g class="link" data-entity-1="ent0002" data-entity-2="ent0017" data-link-type="dependency" data-source-line="49" id="lnk34"><path d="M92.41,606.0383 C110.47,577.7383 138.12,540.3283 170.74,516.0683 C187.8,503.3783 203.4173,495.9017 222.7173,489.1417" fill="none" id="DEV-to-UC11" style="stroke:#181818;stroke-width:1;"/><polygon fill="#181818" points="228.38,487.1583,218.5637,486.3583,223.6611,488.8111,221.2082,493.9085,228.38,487.1583" style="stroke:#181818;stroke-width:1;"/></g><!--link DEV to UC12--><g class="link" data-entity-1="ent0002" data-entity-2="ent0018" data-link-type="dependency" data-source-line="50" id="lnk35"><path d="M81.24,683.9783 C95.16,723.7283 123.01,783.2983 170.74,810.0683 C247.67,853.2083 282.24,824.8283 369.2,810.0683 C535.15,781.8883 714.7033,705.1349 798.5033,666.4149" fill="none" id="DEV-to-UC12" style="stroke:#181818;stroke-width:1;"/><polygon fill="#181818" points="803.95,663.8983,794.1022,664.0421,799.4111,665.9955,797.4577,671.3044,803.95,663.8983" style="stroke:#181818;stroke-width:1;"/></g><!--link DEV to UC14--><g class="link" data-entity-1="ent0002" data-entity-2="ent0020" data-link-type="dependency" data-source-line="51" id="lnk36"><path d="M132.16,618.1583 C144.89,612.7583 158.23,607.1683 170.74,602.0683 C191.66,593.5283 209.3543,586.5535 229.1243,578.9035" fill="none" id="DEV-to-UC14" style="stroke:#181818;stroke-width:1;"/><polygon fill="#181818" points="234.72,576.7383,224.883,576.2557,230.0569,578.5427,227.77,583.7166,234.72,576.7383" style="stroke:#181818;stroke-width:1;"/></g><!--link CLI_USER to UC21--><g class="link" data-entity-1="ent0003" data-entity-2="ent0027" data-link-type="dependency" data-source-line="53" id="lnk37"><path d="M97.04,182.8283 C127.55,188.1783 172.1702,195.9921 212.5502,203.0721" fill="none" id="CLI_USER-to-UC21" style="stroke:#181818;stroke-width:1;"/><polygon fill="#181818" points="218.46,204.1083,210.286,198.6141,213.5351,203.2448,208.9044,206.4939,218.46,204.1083" style="stroke:#181818;stroke-width:1;"/></g><!--link CLI_USER to UC22--><g class="link" data-entity-1="ent0003" data-entity-2="ent0028" data-link-type="dependency" data-source-line="54" id="lnk38"><path d="M97.03,202.8283 C116.51,219.6783 143.94,241.6483 170.74,257.0683 C187.53,266.7283 201.2574,273.045 218.9874,279.935" fill="none" id="CLI_USER-to-UC22" style="stroke:#181818;stroke-width:1;"/><polygon fill="#181818" points="224.58,282.1083,217.64,275.1199,219.9195,280.2972,214.7423,282.5767,224.58,282.1083" style="stroke:#181818;stroke-width:1;"/></g><!--link CLI_USER to UC23--><g class="link" data-entity-1="ent0003" data-entity-2="ent0029" data-link-type="dependency" data-source-line="55" id="lnk39"><path d="M97.04,172.0183 C129.89,164.7083 180.0832,153.5214 221.7032,144.2614" fill="none" id="CLI_USER-to-UC23" style="stroke:#181818;stroke-width:1;"/><polygon fill="#181818" points="227.56,142.9583,217.9061,141.0084,222.6793,144.0442,219.6435,148.8174,227.56,142.9583" style="stroke:#181818;stroke-width:1;"/></g><!--link CLI_USER to UC1--><g class="link" data-entity-1="ent0003" data-entity-2="ent0007" data-link-type="dependency" data-source-line="56" id="lnk40"><path d="M97.23,143.7783 C115.6,123.6483 141.69,100.0483 170.74,89.0683 C253.24,57.8683 293.68,43.4883 369.2,89.0683 C503.17,169.9283 546.9301,369.4472 558.8401,442.1572" fill="none" id="CLI_USER-to-UC1" style="stroke:#181818;stroke-width:1;"/><polygon fill="#181818" points="559.81,448.0783,562.3026,438.5501,559.0018,443.144,554.4078,439.8432,559.81,448.0783" style="stroke:#181818;stroke-width:1;"/></g><!--link LLM to UC19--><g class="link" data-entity-1="ent0004" data-entity-2="ent0025" data-link-type="dependency" data-source-line="58" id="lnk41"><path d="M1232.42,797.7283 C1244.46,788.7683 1256.76,779.3083 1268.04,770.0683 C1340.96,710.3083 1417.1306,637.3837 1455.9206,599.4437" fill="none" id="LLM-to-UC19" style="stroke:#181818;stroke-width:1;"/><polygon fill="#181818" points="1460.21,595.2483,1450.979,598.6818,1456.6355,598.7444,1456.5729,604.4009,1460.21,595.2483" style="stroke:#181818;stroke-width:1;"/></g><!--link LLM to UC20--><g class="link" data-entity-1="ent0004" data-entity-2="ent0026" data-link-type="dependency" data-source-line="59" id="lnk42"><path d="M1232.42,804.7183 C1245.48,794.6283 1258.16,782.9583 1268.04,770.0683 C1290.63,740.5883 1283.38,726.1883 1298.04,692.0683 C1357.97,552.5483 1436.5312,395.082 1467.8812,333.122" fill="none" id="LLM-to-UC20" style="stroke:#181818;stroke-width:1;"/><polygon fill="#181818" points="1470.59,327.7683,1462.9576,333.993,1468.3326,332.2297,1470.0959,337.6047,1470.59,327.7683" style="stroke:#181818;stroke-width:1;"/></g><!--link DATA to UC15--><g class="link" data-entity-1="ent0005" data-entity-2="ent0021" data-link-type="dependency" data-source-line="61" id="lnk43"><path d="M938.99,844.4983 C969.84,842.0683 1003.52,834.9483 1030.43,818.0683 C1051.11,805.0883 1041.61,787.6083 1060.43,772.0683 C1072.55,762.0583 1081.8368,756.4886 1096.4068,750.3786" fill="none" id="DATA-to-UC15" style="stroke:#181818;stroke-width:1;"/><polygon fill="#181818" points="1101.94,748.0583,1092.0933,747.85,1097.329,749.9919,1095.1872,755.2276,1101.94,748.0583" style="stroke:#181818;stroke-width:1;"/></g><!--link DATA to UC16--><g class="link" data-entity-1="ent0005" data-entity-2="ent0022" data-link-type="dependency" data-source-line="62" id="lnk44"><path d="M924.11,785.3783 C929.47,780.3883 934.65,775.2583 939.43,770.0683 C955.47,752.6583 953.7,743.7483 969.43,726.0683 C993.3,699.2283 1012.52,704.1983 1030.43,673.0683 C1065.86,611.4883 1015.44,571.0383 1060.43,516.0683 C1071.54,502.4883 1082.1402,495.4128 1098.4102,489.1528" fill="none" id="DATA-to-UC16" style="stroke:#181818;stroke-width:1;"/><polygon fill="#181818" points="1104.01,486.9983,1094.1739,486.4969,1099.3435,488.7938,1097.0467,493.9633,1104.01,486.9983" style="stroke:#181818;stroke-width:1;"/></g><!--link DATA to UC17--><g class="link" data-entity-1="ent0005" data-entity-2="ent0023" data-link-type="dependency" data-source-line="63" id="lnk45"><path d="M938.97,786.3583 C982.65,758.6683 1027.02,729.8783 1030.43,725.0683 C1063,679.1783 1023.88,644.8483 1060.43,602.0683 C1070.11,590.7383 1077.7988,584.8232 1091.4688,578.6032" fill="none" id="DATA-to-UC17" style="stroke:#181818;stroke-width:1;"/><polygon fill="#181818" points="1096.93,576.1183,1087.0815,576.2048,1092.379,578.1891,1090.3948,583.4865,1096.93,576.1183" style="stroke:#181818;stroke-width:1;"/></g><!--link DATA to UC18--><g class="link" data-entity-1="ent0005" data-entity-2="ent0024" data-link-type="dependency" data-source-line="64" id="lnk46"><path d="M938.88,822.4883 C971.17,811.8183 1005.86,795.3183 1030.43,770.0683 C1057.5,742.2583 1033.62,716.1183 1060.43,688.0683 C1072.39,675.5483 1082.9959,668.7734 1098.9559,662.3334" fill="none" id="DATA-to-UC18" style="stroke:#181818;stroke-width:1;"/><polygon fill="#181818" points="1104.52,660.0883,1094.6771,659.7466,1099.8832,661.9593,1097.6706,667.1654,1104.52,660.0883" style="stroke:#181818;stroke-width:1;"/></g><!--link UC1 to UC2--><g class="link" data-entity-1="ent0007" data-entity-2="ent0008" data-link-type="dependency" data-source-line="67" id="lnk47"><path d="M641.27,474.0683 C684.01,474.0683 731.07,474.0683 772.95,474.0683" fill="none" id="UC1-to-UC2" style="stroke:#181818;stroke-width:1;stroke-dasharray:7,7;"/><polygon fill="#181818" points="778.95,474.0683,769.95,470.0683,773.95,474.0683,769.95,478.0683,778.95,474.0683" style="stroke:#181818;stroke-width:1;"/><text fill="#000000" font-family="sans-serif" font-size="13" lengthAdjust="spacing" textLength="59.3569" x="671.81" y="470.6366">&#171;include&#187;</text></g><!--link UC2 to UC3--><g class="link" data-entity-1="ent0008" data-entity-2="ent0009" data-link-type="dependency" data-source-line="68" id="lnk48"><path d="M906.97,458.7883 C959.26,444.3583 1032.0962,424.2543 1088.4462,408.7043" fill="none" id="UC2-to-UC3" style="stroke:#181818;stroke-width:1;stroke-dasharray:7,7;"/><polygon fill="#181818" points="1094.23,407.1083,1084.4902,405.6465,1089.4102,408.4383,1086.6183,413.3583,1094.23,407.1083" style="stroke:#181818;stroke-width:1;"/><text fill="#000000" font-family="sans-serif" font-size="13" lengthAdjust="spacing" textLength="59.3569" x="970.43" y="422.4866">&#171;include&#187;</text></g><!--link UC2 to UC4--><g class="link" data-entity-1="ent0008" data-entity-2="ent0010" data-link-type="dependency" data-source-line="69" id="lnk49"><path d="M898.03,455.6283 C911.92,449.1283 926.81,441.1483 939.43,432.0683 C954.99,420.8683 954.53,413.1283 969.43,401.0683 C1006.52,371.0283 1017.96,365.8383 1060.43,344.0683 C1077.59,335.2683 1091.4549,329.1561 1108.7749,322.2661" fill="none" id="UC2-to-UC4" style="stroke:#181818;stroke-width:1;stroke-dasharray:7,7;"/><polygon fill="#181818" points="1114.35,320.0483,1104.5089,319.6583,1109.7041,321.8964,1107.4659,327.0917,1114.35,320.0483" style="stroke:#181818;stroke-width:1;"/><text fill="#000000" font-family="sans-serif" font-size="13" lengthAdjust="spacing" textLength="59.3569" x="970.43" y="356.8666">&#171;include&#187;</text></g><!--link UC2 to UC5--><g class="link" data-entity-1="ent0008" data-entity-2="ent0011" data-link-type="dependency" data-source-line="70" id="lnk50"><path d="M903.79,457.6483 C916.91,451.4183 929.93,443.0683 939.43,432.0683 C968.92,397.9083 944.3,372.5483 969.43,335.0683 C998.62,291.5383 1015.44,286.9483 1060.43,260.0683 C1074.17,251.8583 1084.2521,246.8432 1099.1121,240.7232" fill="none" id="UC2-to-UC5" style="stroke:#181818;stroke-width:1;stroke-dasharray:7,7;"/><polygon fill="#181818" points="1104.66,238.4383,1094.8149,238.167,1100.0367,240.3423,1097.8614,245.5642,1104.66,238.4383" style="stroke:#181818;stroke-width:1;"/><text fill="#000000" font-family="sans-serif" font-size="13" lengthAdjust="spacing" textLength="59.3569" x="970.43" y="274.1566">&#171;include&#187;</text></g><!--link UC2 to UC6--><g class="link" data-entity-1="ent0008" data-entity-2="ent0012" data-link-type="dependency" data-source-line="71" id="lnk51"><path d="M905.25,458.2383 C918.21,452.0283 930.79,443.5383 939.43,432.0683 C987.95,367.6283 929.54,323.1783 969.43,253.0683 C998.62,201.7583 1054.2133,171.9608 1100.0733,154.2408" fill="none" id="UC2-to-UC6" style="stroke:#181818;stroke-width:1;stroke-dasharray:7,7;"/><polygon fill="#181818" points="1105.67,152.0783,1095.8332,151.5909,1101.0061,153.8804,1098.7166,159.0532,1105.67,152.0783" style="stroke:#181818;stroke-width:1;"/><text fill="#000000" font-family="sans-serif" font-size="13" lengthAdjust="spacing" textLength="59.3569" x="970.43" y="188.6166">&#171;include&#187;</text></g><!--link UC6 to UC7--><g class="link" data-entity-1="ent0012" data-entity-2="ent0013" data-link-type="dependency" data-source-line="72" id="lnk52"><path d="M1247.24,134.0683 C1292.94,134.0683 1343.84,134.0683 1390.37,134.0683" fill="none" id="UC6-to-UC7" style="stroke:#181818;stroke-width:1;stroke-dasharray:7,7;"/><polygon fill="#181818" points="1396.37,134.0683,1387.37,130.0683,1391.37,134.0683,1387.37,138.0683,1396.37,134.0683" style="stroke:#181818;stroke-width:1;"/><text fill="#000000" font-family="sans-serif" font-size="13" lengthAdjust="spacing" textLength="59.3569" x="1299.04" y="130.6366">&#171;include&#187;</text></g><!--link UC2 to UC15--><g class="link" data-entity-1="ent0008" data-entity-2="ent0021" data-link-type="dependency" data-source-line="74" id="lnk53"><path d="M868.61,498.0083 C901,541.9383 975.92,635.7283 1060.43,688.0683 C1074.69,696.8983 1085.5708,702.3209 1101.0608,708.6109" fill="none" id="UC2-to-UC15" style="stroke:#181818;stroke-width:1;stroke-dasharray:7,7;"/><polygon fill="#181818" points="1106.62,710.8683,1099.7862,703.7761,1101.9874,708.9871,1096.7763,711.1883,1106.62,710.8683" style="stroke:#181818;stroke-width:1;"/><text fill="#000000" font-family="sans-serif" font-size="13" lengthAdjust="spacing" textLength="59.3569" x="970.43" y="613.2266">&#171;include&#187;</text></g><!--link UC2 to UC16--><g class="link" data-entity-1="ent0008" data-entity-2="ent0022" data-link-type="dependency" data-source-line="75" id="lnk54"><path d="M922.33,474.0683 C973.69,474.0683 1036.84,474.0683 1087.88,474.0683" fill="none" id="UC2-to-UC16" style="stroke:#181818;stroke-width:1;stroke-dasharray:7,7;"/><polygon fill="#181818" points="1093.88,474.0683,1084.88,470.0683,1088.88,474.0683,1084.88,478.0683,1093.88,474.0683" style="stroke:#181818;stroke-width:1;"/><text fill="#000000" font-family="sans-serif" font-size="13" lengthAdjust="spacing" textLength="59.3569" x="970.43" y="470.6366">&#171;include&#187;</text></g><!--link UC2 to UC17--><g class="link" data-entity-1="ent0008" data-entity-2="ent0023" data-link-type="dependency" data-source-line="76" id="lnk55"><path d="M907.33,489.2583 C960.99,503.8983 1036.3214,524.4497 1092.7914,539.8497" fill="none" id="UC2-to-UC17" style="stroke:#181818;stroke-width:1;stroke-dasharray:7,7;"/><polygon fill="#181818" points="1098.58,541.4283,1090.9495,535.2013,1093.7562,540.1128,1088.8447,542.9194,1098.58,541.4283" style="stroke:#181818;stroke-width:1;"/><text fill="#000000" font-family="sans-serif" font-size="13" lengthAdjust="spacing" textLength="59.3569" x="970.43" y="503.0166">&#171;include&#187;</text></g><!--link UC2 to UC18--><g class="link" data-entity-1="ent0008" data-entity-2="ent0024" data-link-type="dependency" data-source-line="77" id="lnk56"><path d="M883.6,495.9083 C923.8,522.8183 995.41,569.0483 1060.43,602.0683 C1077.51,610.7383 1091.1969,616.866 1108.3769,623.896" fill="none" id="UC2-to-UC18" style="stroke:#181818;stroke-width:1;stroke-dasharray:7,7;"/><polygon fill="#181818" points="1113.93,626.1683,1107.1153,619.0578,1109.3024,624.2747,1104.0855,626.4619,1113.93,626.1683" style="stroke:#181818;stroke-width:1;"/><text fill="#000000" font-family="sans-serif" font-size="13" lengthAdjust="spacing" textLength="59.3569" x="970.43" y="549.2466">&#171;include&#187;</text></g><!--link UC3 to UC19--><g class="link" data-entity-1="ent0009" data-entity-2="ent0025" data-link-type="dependency" data-source-line="79" id="lnk57"><path d="M1221.27,409.9983 C1236.68,416.5783 1253.22,424.1583 1268.04,432.0683 C1337.15,468.9383 1407.9581,517.5602 1448.7281,546.6902" fill="none" id="UC3-to-UC19" style="stroke:#181818;stroke-width:1;stroke-dasharray:7,7;"/><polygon fill="#181818" points="1453.61,550.1783,1448.6125,541.6915,1449.5417,547.2715,1443.9617,548.2007,1453.61,550.1783" style="stroke:#181818;stroke-width:1;"/><text fill="#000000" font-family="sans-serif" font-size="13" lengthAdjust="spacing" textLength="59.3569" x="1299.04" y="445.6266">&#171;include&#187;</text></g><!--link UC4 to UC20--><g class="link" data-entity-1="ent0010" data-entity-2="ent0026" data-link-type="dependency" data-source-line="80" id="lnk58"><path d="M1236.7,302.0683 C1281.53,302.0683 1333.87,302.0683 1382.58,302.0683" fill="none" id="UC4-to-UC20" style="stroke:#181818;stroke-width:1;stroke-dasharray:7,7;"/><polygon fill="#181818" points="1388.58,302.0683,1379.58,298.0683,1383.58,302.0683,1379.58,306.0683,1388.58,302.0683" style="stroke:#181818;stroke-width:1;"/><text fill="#000000" font-family="sans-serif" font-size="13" lengthAdjust="spacing" textLength="59.3569" x="1299.04" y="298.6366">&#171;include&#187;</text></g><!--link UC6 to UC20--><g class="link" data-entity-1="ent0012" data-entity-2="ent0026" data-link-type="dependency" data-source-line="81" id="lnk59"><path d="M1217.37,153.7083 C1233.8,160.3383 1251.87,168.0883 1268.04,176.0683 C1332.78,208.0083 1399.4452,248.4973 1441.6952,275.1473" fill="none" id="UC6-to-UC20" style="stroke:#181818;stroke-width:1;stroke-dasharray:7,7;"/><polygon fill="#181818" points="1446.77,278.3483,1441.2918,270.1636,1442.541,275.6808,1437.0238,276.9299,1446.77,278.3483" style="stroke:#181818;stroke-width:1;"/><text fill="#000000" font-family="sans-serif" font-size="13" lengthAdjust="spacing" textLength="59.3569" x="1299.04" y="188.0966">&#171;include&#187;</text></g><!--link UC1 to UC13--><g class="link" data-entity-1="ent0007" data-entity-2="ent0019" data-link-type="dependency" data-source-line="83" id="lnk60"><path d="M622.66,457.1683 C670.95,442.8883 734.1562,424.1995 783.3662,409.6495" fill="none" id="UC1-to-UC13" style="stroke:#181818;stroke-width:1;stroke-dasharray:7,7;"/><polygon fill="#181818" points="789.12,407.9483,779.3552,406.6643,784.3252,409.366,781.6235,414.336,789.12,407.9483" style="stroke:#181818;stroke-width:1;"/><text fill="#000000" font-family="sans-serif" font-size="13" lengthAdjust="spacing" textLength="59.3569" x="671.81" y="423.6066">&#171;include&#187;</text></g><!--link UC1 to UC12--><g class="link" data-entity-1="ent0007" data-entity-2="ent0018" data-link-type="dependency" data-source-line="84" id="lnk61"><path d="M603.53,496.5483 C657.66,528.5583 751.2455,583.8941 805.7455,616.1241" fill="none" id="UC1-to-UC12" style="stroke:#181818;stroke-width:1;stroke-dasharray:7,7;"/><polygon fill="#181818" points="810.91,619.1783,805.1994,611.154,806.6062,616.6331,801.1271,618.04,810.91,619.1783" style="stroke:#181818;stroke-width:1;"/><text fill="#000000" font-family="sans-serif" font-size="13" lengthAdjust="spacing" textLength="57.1924" x="672.81" y="534.6466">&#171;extend&#187;</text></g><!--link UC21 to UC1--><g class="link" data-entity-1="ent0027" data-entity-2="ent0007" data-link-type="dependency" data-source-line="87" id="lnk62"><path d="M328.71,233.9283 C342.37,240.5683 356.95,248.7483 369.2,258.0683 C444.86,315.6383 510.9308,400.6788 542.3608,444.0788" fill="none" id="UC21-to-UC1" style="stroke:#181818;stroke-width:1;stroke-dasharray:7,7;"/><polygon fill="#181818" points="545.88,448.9383,543.8408,439.3028,542.9473,444.8887,537.3615,443.9952,545.88,448.9383" style="stroke:#181818;stroke-width:1;"/><text fill="#000000" font-family="sans-serif" font-size="13" lengthAdjust="spacing" textLength="57.1924" x="400.2" y="279.6866">&#171;extend&#187;</text></g><!--link UC14 to UC1--><g class="link" data-entity-1="ent0020" data-entity-2="ent0007" data-link-type="dependency" data-source-line="88" id="lnk63"><path d="M333.77,543.6683 C382.56,528.8883 450.3977,508.3379 501.0677,492.9879" fill="none" id="UC14-to-UC1" style="stroke:#181818;stroke-width:1;stroke-dasharray:7,7;"/><polygon fill="#181818" points="506.81,491.2483,497.0369,490.0294,502.0248,492.6979,499.3563,497.6858,506.81,491.2483" style="stroke:#181818;stroke-width:1;"/><text fill="#000000" font-family="sans-serif" font-size="13" lengthAdjust="spacing" textLength="57.1924" x="400.2" y="503.0166">&#171;extend&#187;</text></g><?plantuml-src rLLVRnev47_VJp7Y8PS-f0H829ogI1kIQoEbrrveyhJIoVKEYmzZhsmlb5GdzKFq4_QJt7Z_m2uBxnS90VRCRpppcz_OJZY9yCMmMAWaJ50v2xz-_8GdYp1X5cqGI9mvS1gCIEOEOc6GEw5LO1T2fSom9J3kj9cw3KLYQxHwYK6Gxq7d5bSeTOe6kl1NnfJh0BDmU_TSEKmUxlrX9j-dnTzFqxl7olZmy14-6xqICPf8dNvAKONttL2vkT6fuDr8lTSwaTWDNpA3R_8OXAdW7vbPe8DRvbYaQd4sCw6OuaWvXJATisVAYoKb_ZRy4WQ1Bv8f2WsT9ZdJZNMuxC3t8038B78Y2JgXOdBpWc2Tvej8pUXq1ebOeOAOESm3FqrwTSXZfc2MIHbHAWIs3bAHeXIgykxNlITQnHbt8DGAhLjIAf6AyIl5XjCRYW8h2pV8p9iIFAY3twD2urqTbU8PI8a-RPaidIyEdMI4NUpE29EaIvRkdvXLHrpMKSGkeH0yirHIgesRQIaqnCY59RcKe64Tz2nm3LOaEOJAs7G_Q1btfqZrE87ROgw2lGHd8g5--rRdjUHzXHDOwXYbBK6ZmvWu5mCr9jQcSXtNNUyK-qgAYeNrlxlkKF1COWNfdTSnKr9PmLIaZCvK39o-tTQvroZW4MUIv0LQGSfitiY28z2PupGzMrn30lVg7uyg85mhXz-y7cWoMIxD2ZHedcMp9RN5w2M1viWNgHRb59BlHIEnFz3nUQNXr0Zgvmby-l0mUSvfgq2NROn3FbU2-puA5TCVjsEtDspxpuWZvbNi4Jusd1OpAPYqLTjxLssWmhM5aqXPmWeVe97PA3Wa-rqF3NfXLjxZWpDYdI7varJYI54_qip1wUTDJ5U4u5Lc_ND_q6_mw-UFukDlhZERKXzdWk-sNyLd_r8YUH0JTCUlY3b_FQ_52pDnLNglDS6IF0iDHWg_8SzSgMNYha8rb7nZz9f-BLjvaWr9L6xbsny4_mP1dTemlyoPjPhKuKFRLq1mG4ySd9rTvxV-xl-ezdzSzpclB-e8kWDg2vhNweqijwWV-plzrivWVuSk9F-sbejnRU6bxP_0odRPM0qRgwl6QjHisxtYCekHPauMNPkBz7_SkO0gWBTlSmhWTtZtJXJvNry7VgUm38vQBevQBezQXYtBiBHSxLbgeDxnUBtXSTFLSTEeVTYWierRi8kAfFEZsRTCDMvxRGgtfe9tUjNeSVQekfhkyjtN8gP2J_rjPSt2_1mVjlm7?></g></svg>